<svg width="1028" height="1028" viewBox="0 0 1028 1028" fill="none" xmlns="http://www.w3.org/2000/svg">
<mask id="mask0_63_3" style="mask-type:luminance" maskUnits="userSpaceOnUse" x="172" y="422" width="203" height="491">
<path d="M172.462 422.775H374.937V912.275H172.462V422.775Z" fill="white"/>
</mask>
<g mask="url(#mask0_63_3)">
<mask id="mask1_63_3" style="mask-type:luminance" maskUnits="userSpaceOnUse" x="173" y="423" width="202" height="490">
<path d="M368.206 911.272C372.078 909.568 374.364 906.07 374.325 901.824L368.08 680.867C367.997 677.538 366.376 674.501 363.669 672.628L238.478 585.644C232.112 581.233 228.322 573.989 228.322 566.21V516.638L173.093 423.536L191.449 744.714C191.575 747.378 192.696 749.833 194.569 751.624L356.968 909.19C360.049 912.189 364.251 912.936 368.206 911.233" fill="white"/>
</mask>
<g mask="url(#mask1_63_3)">
<path d="M37.7891 -19.999H990.211V1047.75H37.7891V-19.999Z" fill="#003D0D"/>
</g>
</g>
<mask id="mask2_63_3" style="mask-type:luminance" maskUnits="userSpaceOnUse" x="171" y="181" width="333" height="369">
<path d="M171.35 181.362H503.988V549.217H171.35V181.362Z" fill="white"/>
</mask>
<g mask="url(#mask2_63_3)">
<mask id="mask3_63_3" style="mask-type:luminance" maskUnits="userSpaceOnUse" x="171" y="182" width="333" height="367">
<path d="M235.732 497.412L327.378 410.716C336.574 402.02 350.932 402.102 360.049 410.885L503.01 548.935L424.639 182.145C386.936 183.183 346.73 185.182 338.364 187.099L303.612 229.717C315.102 273.582 311.147 307.462 291.709 330.394C268.568 357.694 229.574 362.104 206.846 362.104C202.561 362.104 198.897 361.939 195.986 361.774L173.801 388.991C172.428 390.656 171.763 392.737 171.637 394.902L233.815 499.659C234.441 498.907 235.023 498.116 235.732 497.412Z" fill="white"/>
</mask>
<g mask="url(#mask3_63_3)">
<path d="M58 0H970V1028H58V0Z" fill="#003D0D"/>
</g>
</g>
<mask id="mask4_63_3" style="mask-type:luminance" maskUnits="userSpaceOnUse" x="437" y="96" width="154" height="442">
<path d="M437.237 96.8125H590.762V537.363H437.237V96.8125Z" fill="white"/>
</mask>
<g mask="url(#mask4_63_3)">
<mask id="mask5_63_3" style="mask-type:luminance" maskUnits="userSpaceOnUse" x="438" y="97" width="153" height="440">
<path d="M590.284 180.815C589.993 180.728 589.785 180.519 589.494 180.398C588.329 179.937 587.247 179.316 586.165 178.69C585.665 178.399 585.126 178.107 584.626 177.773C583.088 176.691 581.671 175.487 580.424 174.027L514.083 97.4512L447.906 173.823C446.659 175.278 445.242 176.486 443.704 177.569C443.204 177.899 442.704 178.151 442.205 178.442C441.123 179.107 439.997 179.689 438.793 180.189C438.541 180.315 438.293 180.48 438.041 180.563L514.204 536.95L590.284 180.815Z" fill="white"/>
</mask>
<g mask="url(#mask5_63_3)">
<path d="M37.7891 -20H990.211V1047.75H37.7891V-20Z" fill="#003D0D"/>
</g>
</g>
<mask id="mask6_63_3" style="mask-type:luminance" maskUnits="userSpaceOnUse" x="653" y="422" width="203" height="492">
<path d="M653.062 422.775H855.537V913.388H653.062V422.775Z" fill="white"/>
</mask>
<g mask="url(#mask6_63_3)">
<mask id="mask7_63_3" style="mask-type:luminance" maskUnits="userSpaceOnUse" x="654" y="423" width="202" height="490">
<path d="M800.004 566.21C800.004 573.95 796.219 581.233 789.852 585.644L664.661 672.628C661.954 674.501 660.333 677.582 660.246 680.828L654.006 901.907C653.923 906.153 656.209 909.773 660.163 911.48C661.163 911.898 662.162 912.189 663.162 912.315C666.156 912.689 669.072 911.689 671.401 909.442L833.8 751.871C835.673 750.042 836.755 747.626 836.881 745.005L855.233 423.536L800.004 516.638V566.21Z" fill="white"/>
</mask>
<g mask="url(#mask7_63_3)">
<path d="M37.7892 -19.999H990.211V1047.75H37.7892V-19.999Z" fill="#003D0D"/>
</g>
</g>
<mask id="mask8_63_3" style="mask-type:luminance" maskUnits="userSpaceOnUse" x="525" y="181" width="332" height="369">
<path d="M525.16 181.362H856.65V549.217H525.16V181.362Z" fill="white"/>
</mask>
<g mask="url(#mask8_63_3)">
<mask id="mask9_63_3" style="mask-type:luminance" maskUnits="userSpaceOnUse" x="525" y="182" width="332" height="368">
<path d="M854.486 389.161L832.218 361.857C829.555 362.022 826.352 362.105 822.727 362.105C799.965 362.105 761.01 357.694 737.869 330.394C718.639 307.671 714.519 274.248 725.592 231.091L688.841 185.974C686.885 183.562 684.013 182.188 680.892 182.188H603.687L525.234 549.183L668.281 411.094C672.857 406.679 678.767 404.432 684.677 404.432C690.505 404.432 696.372 406.596 700.909 410.925L792.555 497.617C793.264 498.286 793.802 499.034 794.428 499.781L856.65 394.902C856.485 392.82 855.859 390.826 854.525 389.161" fill="white"/>
</mask>
<g mask="url(#mask9_63_3)">
<path d="M37.7891 -20H990.211V1047.75H37.7891V-20Z" fill="#003D0D"/>
</g>
</g>
<mask id="mask10_63_3" style="mask-type:luminance" maskUnits="userSpaceOnUse" x="732" y="0" width="239" height="350">
<path d="M732.05 0.0253906H970.125V349.35H732.05V0.0253906Z" fill="white"/>
</mask>
<g mask="url(#mask10_63_3)">
<mask id="mask11_63_3" style="mask-type:luminance" maskUnits="userSpaceOnUse" x="732" y="0" width="238" height="349">
<path d="M906.969 0.811523C922.283 108.937 761.092 217.062 739.49 231.008C728.46 271.458 731.376 301.964 748.146 321.737C767.915 345.082 803.337 348.707 823.271 348.707C829.928 348.707 834.839 348.29 836.92 348.081C919.867 285.694 964.319 220.226 968.978 153.593C974.058 81.3417 930.149 25.1562 906.969 0.811523Z" fill="white"/>
</mask>
<g mask="url(#mask11_63_3)">
<path d="M37.7892 -20H990.211V1047.75H37.7892V-20Z" fill="#003D0D"/>
</g>
</g>
<mask id="mask12_63_3" style="mask-type:luminance" maskUnits="userSpaceOnUse" x="60" y="0" width="238" height="350">
<path d="M60.113 0.0253906H297.062V349.35H60.113V0.0253906Z" fill="white"/>
</mask>
<g mask="url(#mask12_63_3)">
<mask id="mask13_63_3" style="mask-type:luminance" maskUnits="userSpaceOnUse" x="60" y="0" width="237" height="349">
<path d="M122.652 0.811523C99.4286 25.1562 55.5196 81.3418 60.5997 153.593C65.3018 220.226 109.711 285.694 192.657 348.081C194.739 348.29 199.649 348.663 206.307 348.663C226.241 348.663 261.662 345.043 281.47 321.694C298.245 301.925 301.156 271.375 290.127 230.964C268.529 217.062 107.338 108.937 122.652 0.811523Z" fill="white"/>
</mask>
<g mask="url(#mask13_63_3)">
<path d="M37.7892 -20H990.211V1047.75H37.7892V-20Z" fill="#003D0D"/>
</g>
</g>
<mask id="mask14_63_3" style="mask-type:luminance" maskUnits="userSpaceOnUse" x="215" y="416" width="600" height="612">
<path d="M215.85 416.1H814.375V1027.97H215.85V416.1Z" fill="white"/>
</mask>
<g mask="url(#mask14_63_3)">
<mask id="mask15_63_3" style="mask-type:luminance" maskUnits="userSpaceOnUse" x="216" y="416" width="598" height="612">
<path d="M343.609 416.378C341.071 416.378 338.529 417.334 336.574 419.207L244.931 505.899C242.889 507.816 241.724 510.519 241.724 513.352V564.749C241.724 568.121 243.35 571.285 246.135 573.158L371.326 660.141C377.528 664.426 381.317 671.505 381.482 679.037L387.727 899.994C387.766 901.241 387.683 902.493 387.518 903.657C386.519 911.979 381.4 918.972 373.49 922.426C370.37 923.8 367.08 924.464 363.878 924.464C357.924 924.464 352.14 922.135 347.564 917.724L216.254 790.326V952.559H290.879V1027.18H738.699V952.559H813.323V789.078L680.684 917.763C676.103 922.174 670.319 924.508 664.37 924.508H664.327C661.124 924.508 657.878 923.843 654.753 922.47C645.805 918.554 640.356 910.067 640.56 900.285L646.848 679.202C647.013 671.71 650.798 664.635 657 660.35L782.191 573.366C784.937 571.45 786.606 568.286 786.606 564.958V513.557C786.606 510.727 785.437 508.024 783.399 506.108L691.752 419.416C689.758 417.543 687.259 416.587 684.721 416.587C682.183 416.587 679.602 417.543 677.603 419.459L589.246 504.735H589.411L588.955 877.435H440.167V505.608L350.728 419.29C348.729 417.377 346.191 416.421 343.609 416.421V416.378Z" fill="white"/>
</mask>
<g mask="url(#mask15_63_3)">
<path d="M37.7891 -20H990.211V1047.75H37.7891V-20Z" fill="#003D0D"/>
</g>
</g>
</svg>
