<svg xmlns="http://www.w3.org/2000/svg" width="496" height="357" viewBox="0 0 496 357" fill="none"><path d="M360.758 20.0273H137.995V167.976H360.758V20.0273Z" fill="#032100" stroke="#032100" stroke-width="0.7" stroke-linecap="round" stroke-linejoin="round"></path><path d="M357.228 23.5933H141.535V164.401H357.228V23.5933Z" fill="white" stroke="#032100" stroke-width="0.7" stroke-linecap="round" stroke-linejoin="round"></path><path d="M250.475 59.2598H218.775V83.8626H250.475V59.2598Z" fill="#3BC90C"></path><path d="M283.265 84.2637H251.565V108.866H283.265V84.2637Z" fill="#3BC90C"></path><path d="M250.475 133.469H218.775V158.072H250.475V133.469Z" fill="#3BC90C"></path><path d="M316.478 35.0483H284.778V59.6512H316.478V35.0483Z" fill="#3BC90C"></path><path d="M152.909 38.623V158.08" stroke="#032100" stroke-width="0.7" stroke-linecap="round" stroke-linejoin="round"></path><path d="M185.563 38.623V158.08" stroke="#032100" stroke-width="0.7" stroke-linecap="round" stroke-linejoin="round"></path><path d="M218.227 38.623V158.08" stroke="#032100" stroke-width="0.7" stroke-linecap="round" stroke-linejoin="round"></path><path d="M250.882 38.623V158.08" stroke="#032100" stroke-width="0.7" stroke-linecap="round" stroke-linejoin="round"></path><path d="M283.543 38.623V158.08" stroke="#032100" stroke-width="0.7" stroke-linecap="round" stroke-linejoin="round"></path><path d="M316.199 38.623V158.08" stroke="#032100" stroke-width="0.7" stroke-linecap="round" stroke-linejoin="round"></path><path d="M348.862 38.623V158.08" stroke="#032100" stroke-width="0.7" stroke-linecap="round" stroke-linejoin="round"></path><path d="M153.727 59.2598H349.275" stroke="#032100" stroke-width="0.7" stroke-linecap="round" stroke-linejoin="round"></path><path d="M153.727 83.8623H349.275" stroke="#032100" stroke-width="0.7" stroke-linecap="round" stroke-linejoin="round"></path><path d="M153.727 108.473H349.275" stroke="#032100" stroke-width="0.7" stroke-linecap="round" stroke-linejoin="round"></path><path d="M153.727 133.077H349.275" stroke="#032100" stroke-width="0.7" stroke-linecap="round" stroke-linejoin="round"></path><path d="M223.414 63.627H243.091" stroke="#032100" stroke-width="0.7" stroke-linecap="round" stroke-linejoin="round"></path><path d="M223.414 66.8003H243.091" stroke="#032100" stroke-width="0.7" stroke-linecap="round" stroke-linejoin="round"></path><path d="M223.414 69.9736H243.091" stroke="#032100" stroke-width="0.7" stroke-linecap="round" stroke-linejoin="round"></path><path d="M223.414 73.1475H243.091" stroke="#032100" stroke-width="0.7" stroke-linecap="round" stroke-linejoin="round"></path><path d="M223.414 76.3213H243.091" stroke="#032100" stroke-width="0.7" stroke-linecap="round" stroke-linejoin="round"></path><path d="M257.851 90.2178H277.528" stroke="#032100" stroke-width="0.7" stroke-linecap="round" stroke-linejoin="round"></path><path d="M257.851 93.3911H277.528" stroke="#032100" stroke-width="0.7" stroke-linecap="round" stroke-linejoin="round"></path><path d="M257.851 96.5645H277.528" stroke="#032100" stroke-width="0.7" stroke-linecap="round" stroke-linejoin="round"></path><path d="M257.851 99.7378H277.528" stroke="#032100" stroke-width="0.7" stroke-linecap="round" stroke-linejoin="round"></path><path d="M257.851 102.912H277.528" stroke="#032100" stroke-width="0.7" stroke-linecap="round" stroke-linejoin="round"></path><path d="M224.234 139.031H243.911" stroke="#032100" stroke-width="0.7" stroke-linecap="round" stroke-linejoin="round"></path><path d="M224.234 142.205H243.911" stroke="#032100" stroke-width="0.7" stroke-linecap="round" stroke-linejoin="round"></path><path d="M224.234 145.377H243.911" stroke="#032100" stroke-width="0.7" stroke-linecap="round" stroke-linejoin="round"></path><path d="M224.234 148.551H243.911" stroke="#032100" stroke-width="0.7" stroke-linecap="round" stroke-linejoin="round"></path><path d="M224.234 151.726H243.911" stroke="#032100" stroke-width="0.7" stroke-linecap="round" stroke-linejoin="round"></path><path d="M289.416 41.7974H309.093" stroke="#032100" stroke-width="0.7" stroke-linecap="round" stroke-linejoin="round"></path><path d="M289.416 44.9702H309.093" stroke="#032100" stroke-width="0.7" stroke-linecap="round" stroke-linejoin="round"></path><path d="M289.416 48.1436H309.093" stroke="#032100" stroke-width="0.7" stroke-linecap="round" stroke-linejoin="round"></path><path d="M289.416 51.3174H309.093" stroke="#032100" stroke-width="0.7" stroke-linecap="round" stroke-linejoin="round"></path><path d="M289.416 54.499H309.093" stroke="#032100" stroke-width="0.7" stroke-linecap="round" stroke-linejoin="round"></path><path d="M438.24 312.087C435.916 315.191 432.992 317.829 429.631 319.855C424.543 322.689 416.726 323.831 416.726 325.339C416.726 326.847 417.311 329.506 423.174 330.265C429.036 331.023 454.468 331.398 457.791 330.64C461.114 329.881 457.989 313.979 457.989 313.979C457.989 313.979 442.536 314.738 438.24 312.087Z" fill="white" stroke="#032100" stroke-width="0.7" stroke-linecap="round" stroke-linejoin="round"></path><path d="M423.184 330.266C429.055 331.025 454.478 331.4 457.801 330.641C458.648 330.449 459.08 329.272 459.242 327.616C452.155 327.834 438.331 328.034 430.037 327.616C418.888 327.049 416.736 325.34 416.736 325.34C416.727 326.857 417.312 329.508 423.184 330.266Z" fill="white" stroke="#032100" stroke-width="0.7" stroke-linecap="round" stroke-linejoin="round"></path><path d="M420.634 164.035C420.634 164.035 422.201 186.38 423.57 195.848C424.939 205.316 430.027 243.929 433.35 253.964C436.673 263.998 440.195 307.145 440.195 307.145C440.195 307.145 436.475 308.47 436.673 309.978C436.872 311.486 437.061 313.771 437.061 313.771C437.061 313.771 444.688 317.746 449.191 317.746C453.694 317.746 459.359 315.889 459.359 315.889C459.359 315.889 458.188 299.037 457.557 285.785C456.927 272.533 451.308 216.109 451.308 216.109L450.2 159.876L420.634 164.035Z" fill="#032100" stroke="#032100" stroke-width="0.7" stroke-linecap="round" stroke-linejoin="round"></path><path d="M453.685 316.255C453.685 316.255 454.082 319.856 444.302 323.073C434.522 326.29 433.351 329.699 434.522 332.541C435.692 335.383 456.036 335.374 463.664 334.241C471.291 333.108 475.2 332.724 475.785 331.216C476.371 329.708 474.218 318.138 474.218 318.138L453.685 316.255Z" fill="white" stroke="#032100" stroke-width="0.7" stroke-linecap="round" stroke-linejoin="round"></path><path d="M475.785 331.216C475.912 330.546 475.931 329.86 475.839 329.185C473.137 329.664 469.535 330.318 464.834 331.216C454.387 333.178 440.609 332.018 434.215 331.286C434.268 331.717 434.38 332.139 434.548 332.541C435.719 335.375 456.062 335.375 463.69 334.241C471.318 333.108 475.199 332.724 475.785 331.216Z" fill="white" stroke="#032100" stroke-width="0.7" stroke-linecap="round" stroke-linejoin="round"></path><path d="M427.686 169.527L433.359 176.153C433.359 176.153 437.655 221.968 439.222 233.903C440.789 245.838 448.227 288.427 448.227 288.427L452.901 311.146L451.731 313.98C451.437 315.228 451.437 316.524 451.731 317.772C451.929 318.531 451.532 319.097 458.935 320.231C463.868 320.89 468.871 320.89 473.803 320.231C474.45 318.534 474.779 316.739 474.776 314.93C474.873 312.455 474.676 309.977 474.191 307.546C473.605 304.52 474.191 288.427 469.895 271.199C465.599 253.972 462.456 234.086 462.456 227.46C462.456 220.834 462.654 182.021 462.853 181.253C463.051 180.486 466.761 178.028 466.959 171.027C467.157 164.026 466.176 161.367 466.176 161.367H428.064" fill="#032100"></path><path d="M427.686 169.527L433.359 176.153C433.359 176.153 437.655 221.968 439.222 233.903C440.789 245.838 448.227 288.427 448.227 288.427L452.901 311.146L451.731 313.98C451.437 315.228 451.437 316.524 451.731 317.772C451.929 318.531 451.532 319.097 458.935 320.231C463.868 320.89 468.871 320.89 473.803 320.231C474.45 318.534 474.779 316.739 474.776 314.93C474.873 312.455 474.676 309.977 474.191 307.546C473.605 304.52 474.191 288.427 469.895 271.199C465.599 253.972 462.456 234.086 462.456 227.46C462.456 220.834 462.654 182.021 462.853 181.253C463.051 180.486 466.761 178.028 466.959 171.027C467.157 164.026 466.176 161.367 466.176 161.367H428.064" stroke="#032100" stroke-width="0.7" stroke-linecap="round" stroke-linejoin="round"></path><path d="M427.479 75.816C427.479 75.816 418.68 97.0624 418.095 111.012C417.51 124.961 418.095 144.899 418.293 145.658C418.491 146.416 416.141 162.318 417.51 164.777C417.805 165.453 418.344 166.002 419.027 166.323C419.709 166.643 420.488 166.714 421.22 166.52C421.22 166.52 464.05 167.087 466.005 166.704C467.959 166.32 468.355 163.87 468.706 161.97C469.058 160.069 467.536 137.559 467.536 134.141C467.536 130.723 468.706 92.6771 463.816 82.0757C458.926 71.4744 446.805 62.7649 445.238 62.39C443.671 62.0151 431 66.1562 427.479 75.816Z" fill="#3BC90C" stroke="#032100" stroke-width="0.7" stroke-linecap="round" stroke-linejoin="round"></path><path d="M406.072 34.1164C406.072 34.1164 404.578 41.0909 405.019 41.6489C405.46 42.2069 406.964 44.9793 406.964 44.9793L403.074 55.2668L407.721 56.5658L414.304 67.5769L424.489 64.8045L427.488 77.9865C427.488 77.9865 427.038 82.7641 429.289 81.4738C431.54 80.1835 433.477 78.7188 437.817 71.474C442.158 64.2291 446.49 63.0783 446.49 63.0783C446.49 63.0783 441.086 56.1037 440.06 53.9503C439.033 51.7969 439.609 48.1614 437.817 39.3211C436.025 30.4809 429.883 28.6064 421.508 28.6064C413.133 28.6064 406.838 30.2019 406.072 34.1164Z" fill="white" stroke="#032100" stroke-width="0.7" stroke-linecap="round" stroke-linejoin="round"></path><path d="M410.278 25.8599C410.278 25.8599 403.542 27.3071 402.344 28.6149C401.146 29.9226 402.948 33.9679 404.596 34.8397C406.244 35.7115 416.879 33.4186 416.708 34.1161C416.537 34.8135 414.907 36.7315 416.708 37.4464C418.509 38.1613 425.714 40.0619 425.714 40.0619L423.913 53.3921C423.913 53.3921 415.087 52.9562 412.989 53.3921C410.89 53.828 407.757 56.5742 407.757 56.5742C407.757 56.5742 411.62 68.0125 412.376 69.1633C413.133 70.3141 415.213 70.0352 417.609 69.1633C420.004 68.2915 429.73 61.4826 430.775 60.6108C431.819 59.7389 429.577 51.1951 429.577 51.1951C429.577 51.1951 429.874 44.0984 429.874 42.6512C429.874 41.204 431.819 41.204 433.17 42.2153C434.521 43.2266 434.971 47.1411 434.665 48.5883C434.29 49.7038 433.619 50.7047 432.72 51.4915C432.72 51.4915 438.403 55.685 439.6 55.685C439.972 55.7176 440.344 55.6192 440.647 55.4077C440.949 55.1963 441.163 54.8861 441.248 54.5342C441.401 54.0982 441.095 41.6399 441.095 41.6399C441.095 41.6399 441.401 29.7657 439.753 25.9994C438.105 22.2331 430.325 21.2131 425.389 21.9367C420.454 22.6603 410.278 25.8599 410.278 25.8599Z" fill="#032100" stroke="#032100" stroke-width="0.7" stroke-linecap="round" stroke-linejoin="round"></path><path d="M411.476 45.5635C411.62 46.3568 411.377 47.0543 410.927 47.1328C410.477 47.2112 410.026 46.6271 409.855 45.8425C409.684 45.0578 409.963 44.3517 410.414 44.2819C410.864 44.2122 411.323 44.7527 411.476 45.5635Z" stroke="#032100" stroke-width="0.7" stroke-linecap="round" stroke-linejoin="round"></path><path d="M408.18 42.6609C408.71 42.1048 409.44 41.7655 410.22 41.712C410.999 41.6586 411.771 41.895 412.377 42.3732" stroke="#032100" stroke-width="0.7" stroke-linecap="round" stroke-linejoin="round"></path><path d="M412.521 58.597C412.521 58.597 415.961 57.5769 417.024 55.2666" stroke="white" stroke-width="0.7" stroke-linecap="round" stroke-linejoin="round"></path><path d="M452.713 124.088C452.713 124.088 444.302 160.251 443.519 162.143C442.735 164.034 439.394 171.611 439.394 171.611L448.589 179.37C448.589 179.37 449.958 177.286 451.128 172.395C451.857 169.217 452.315 165.986 452.497 162.735C452.497 162.735 465.799 135.29 467.942 131.498C470.085 127.706 468.536 124.872 468.536 123.931C468.536 122.989 452.713 124.088 452.713 124.088Z" fill="white" stroke="#032100" stroke-width="0.7" stroke-linecap="round" stroke-linejoin="round"></path><path d="M446.643 82.8155C446.643 82.8155 444.5 89.4414 444.689 92.6584C444.878 95.8754 449.381 115.195 449.381 115.195C449.381 115.195 447.04 117.279 447.823 118.028C448.55 118.845 449.204 119.72 449.777 120.644C449.777 120.644 447.976 121.969 449.777 123.87C451.578 125.77 450.75 126.703 458.963 126.485C467.176 126.267 469.725 125.91 470.67 124.401C471.616 122.893 472.823 121.786 471.85 120.234L470.913 118.787C471.526 117.618 471.797 116.31 471.697 115.003C471.499 112.92 470.13 110.461 470.13 109.511C470.13 108.56 469.941 95.6923 467.428 85.6577C464.916 75.623 454.136 70.1305 452.173 69.9648" fill="#3BC90C"></path><path d="M446.643 82.8155C446.643 82.8155 444.5 89.4414 444.689 92.6584C444.878 95.8754 449.381 115.195 449.381 115.195C449.381 115.195 447.04 117.279 447.823 118.028C448.55 118.845 449.204 119.72 449.777 120.644C449.777 120.644 447.976 121.969 449.777 123.87C451.578 125.77 450.75 126.703 458.963 126.485C467.176 126.267 469.725 125.91 470.67 124.401C471.616 122.893 472.823 121.786 471.85 120.234L470.913 118.787C471.526 117.618 471.797 116.31 471.697 115.003C471.499 112.92 470.13 110.461 470.13 109.511C470.13 108.56 469.941 95.6923 467.428 85.6577C464.916 75.623 454.136 70.1305 452.173 69.9648" stroke="#032100" stroke-width="0.7" stroke-linecap="round" stroke-linejoin="round"></path><path d="M331.41 180.255C331.41 180.255 331.725 192.129 331.725 192.573C331.725 193.018 330.185 201.483 330.95 205.494C331.716 209.504 337.858 214.997 337.858 214.997L338.47 179.252L331.41 180.255Z" fill="white" stroke="#032100" stroke-width="0.7" stroke-linecap="round" stroke-linejoin="round"></path><path d="M349.916 98.3645C349.916 98.3645 331.905 119.602 331.364 121.956C330.824 124.31 326.114 181.842 326.114 182.391C326.114 182.94 333.426 185.66 336.425 185.66H340.73C340.73 185.66 335.669 146.097 337.92 131.398C340.172 116.699 345.611 112.523 349.736 106.9C353.86 101.276 353.842 96.9173 349.916 98.3645Z" fill="#3BC90C"></path><path d="M350.862 315.048C350.862 315.048 346.17 321.578 343.549 323.034C340.929 324.49 332.301 327.933 331.923 328.84C331.545 329.747 331.554 331.926 332.301 332.109C333.049 332.292 345.981 331.926 353.861 331.926C361.741 331.926 366.982 332.284 367.918 331.377C368.855 330.47 368.107 318.675 367.162 316.321L366.261 313.958L352.204 313.592L350.862 315.048Z" fill="#032100" stroke="#032100" stroke-width="0.7" stroke-linecap="round" stroke-linejoin="round"></path><path d="M368.251 330.287H331.68C331.68 331.159 331.842 332.031 332.301 332.109C333.049 332.284 345.981 331.926 353.86 331.926C361.74 331.926 366.982 332.284 367.918 331.377C368.122 331.047 368.237 330.672 368.251 330.287Z" fill="white" stroke="#032100" stroke-width="0.7" stroke-linecap="round" stroke-linejoin="round"></path><path d="M332.859 178.215L335.3 189.287C335.3 189.287 334.921 218.144 337.92 230.664C339.773 238.773 340.778 247.041 340.919 255.345C340.919 255.345 345.044 275.127 346.548 280.75C348.052 286.373 349.736 310.148 349.736 310.148C349.736 310.148 348.232 311.238 348.421 311.961C348.61 312.685 349.168 317.192 349.168 317.192C349.168 317.192 349.916 317.192 355.922 317.733C358.968 318.076 362.041 318.138 365.099 317.916L367.161 316.285C367.276 314.352 367.276 312.413 367.161 310.479C366.981 307.21 365.856 304.664 365.856 302.493C365.856 300.322 364.541 252.407 364.541 252.407L365.099 177.273L332.301 175.46L332.859 178.215Z" fill="white" stroke="#032100" stroke-width="0.7" stroke-linecap="round" stroke-linejoin="round"></path><path d="M369.223 314.682C368.314 316.842 367.186 318.91 365.855 320.854C364.162 323.034 357.228 326.844 354.418 328.291C353.589 328.754 352.897 329.415 352.405 330.209C351.913 331.004 351.639 331.907 351.608 332.833C351.608 332.833 357.975 333.016 378.976 332.284L387.982 331.926C388.084 330.23 388.021 328.528 387.793 326.844C387.424 324.123 387.045 317.254 387.045 317.254L369.223 314.682Z" fill="#032100" stroke="#032100" stroke-width="0.7" stroke-linecap="round" stroke-linejoin="round"></path><path d="M378.976 332.283L387.982 331.926C388.041 330.947 388.041 329.966 387.982 328.988L352.104 330.731C351.807 331.387 351.639 332.091 351.608 332.806C351.608 332.806 357.975 333.016 378.976 332.283Z" fill="white" stroke="#032100" stroke-width="0.7" stroke-linecap="round" stroke-linejoin="round"></path><path d="M344.837 191.1L351.96 197.813C351.96 197.813 354.779 223.968 357.589 239.373C360.399 254.778 367.711 294.542 367.711 297.785C367.711 301.029 369.206 309.407 369.206 309.407C369.206 309.407 368.648 309.581 368.459 310.854C368.27 312.127 368.252 317.018 368.252 317.018C371.042 318.286 374.015 319.142 377.068 319.555C380.565 319.735 384.071 319.676 387.56 319.38C387.911 317.517 388.164 315.637 388.316 313.748C388.316 312.301 387.749 305.946 388.127 303.409C388.505 300.872 391.126 287.977 390.378 273.828C389.631 259.678 385.128 237.717 385.128 237.717L386.623 205.773C388.406 200.013 389.041 193.978 388.496 187.988C387.596 178.189 385.317 174.379 385.317 174.379L341.451 174.562" fill="white"></path><path d="M344.837 191.1L351.96 197.813C351.96 197.813 354.779 223.968 357.589 239.373C360.399 254.778 367.711 294.542 367.711 297.785C367.711 301.029 369.206 309.407 369.206 309.407C369.206 309.407 368.648 309.581 368.459 310.854C368.27 312.127 368.252 317.018 368.252 317.018C371.042 318.286 374.015 319.142 377.068 319.555C380.565 319.735 384.071 319.676 387.56 319.38C387.911 317.517 388.164 315.637 388.316 313.748C388.316 312.301 387.749 305.946 388.127 303.409C388.505 300.872 391.126 287.977 390.378 273.828C389.631 259.678 385.128 237.717 385.128 237.717L386.623 205.773C388.406 200.013 389.041 193.978 388.496 187.988C387.596 178.189 385.317 174.379 385.317 174.379L341.451 174.562" stroke="#032100" stroke-width="0.7" stroke-linecap="round" stroke-linejoin="round"></path><path d="M349.915 98.3642C349.915 98.3642 334.93 116.332 333.426 124.345C331.922 132.357 329.824 177.526 329.824 179.33C329.824 181.135 332.822 181.867 336.389 182.417C341.476 183.151 346.62 183.443 351.761 183.288C357.939 183.105 364.315 181.109 365.27 180.019C366.224 178.929 364.369 146.811 367.521 129.209C370.673 111.607 373.897 102.183 372.024 98.6955C370.151 95.2082 356.291 94.7026 349.915 98.3642Z" fill="#032100" stroke="#032100" stroke-width="0.7" stroke-linecap="round" stroke-linejoin="round"></path><path d="M365.099 97.4586C365.099 97.4586 353.842 116.499 351.798 129.943C349.753 143.386 351.23 188.198 351.23 188.198C351.23 188.198 351.23 190.011 359.858 189.828C368.485 189.645 380.102 187.474 383.272 185.835C386.442 184.196 390.017 182.932 390.207 182.025C390.396 181.119 388.513 177.858 388.513 175.129C388.513 172.4 387.208 161.18 387.208 161.18C387.208 161.18 386.829 111.643 384.02 104.564C381.21 97.4848 370.16 95.4621 365.099 97.4586Z" fill="#3BC90C" stroke="#032100" stroke-width="0.7" stroke-linecap="round" stroke-linejoin="round"></path><path d="M337.731 63.5264C337.731 63.5264 336.236 69.3327 336.831 71.1461C337.336 72.6043 337.529 74.1468 337.398 75.6796C337.209 76.4119 332.895 81.1285 333.796 82.0352C334.801 82.8931 335.866 83.6825 336.984 84.3978C336.984 84.3978 337.884 93.9879 339.613 94.5545C341.342 95.1212 347.484 94.014 347.484 94.014C347.484 94.014 349.547 101.451 349.547 102.732C349.547 104.014 343.171 117.614 346.737 116.524C350.303 115.435 364.541 95.47 364.541 95.47C364.541 95.47 364.352 69.882 360.227 63.352C356.103 56.822 343.738 57.9031 337.731 63.5264Z" fill="white" stroke="#032100" stroke-width="0.7" stroke-linecap="round" stroke-linejoin="round"></path><path d="M342.045 75.5928C342.045 76.5431 341.667 77.3364 341.208 77.3364C340.748 77.3364 340.361 76.5605 340.361 75.5928C340.361 74.625 340.739 73.8491 341.208 73.8491C341.676 73.8491 342.045 74.6512 342.045 75.5928Z" fill="#032100"></path><path d="M339.235 71.8697C339.518 71.6249 339.852 71.4431 340.215 71.3369C340.578 71.2307 340.96 71.2028 341.336 71.2552C341.711 71.3075 342.07 71.4389 342.387 71.64C342.704 71.841 342.971 72.1069 343.171 72.419" stroke="#032100" stroke-width="0.7" stroke-linecap="round" stroke-linejoin="round"></path><path d="M339.614 85.8451C341.544 85.6923 343.403 85.0684 345.017 84.0317" stroke="#032100" stroke-width="0.7" stroke-linecap="round" stroke-linejoin="round"></path><path d="M344.486 50.2398C344.486 50.2398 335.301 53.7271 334.364 56.9528C333.427 60.1786 332.671 64.032 332.671 64.032L340.92 65.671L348.044 66.2116C348.044 66.2116 347.854 67.8419 349.917 71.6517C351.025 73.6581 352.026 75.7184 352.916 77.8242C352.916 77.8242 352.357 88.5302 351.799 91.6165C351.329 93.8927 350.7 96.1355 349.917 98.3295C349.917 98.3295 354.609 99.2013 363.227 100.152C371.845 101.102 382.535 99.0618 382.535 99.0618C382.535 99.0618 384.786 95.4263 384.597 88.1728C384.408 80.9192 380.851 70.5707 380.473 66.3772C380.094 62.1837 381.229 59.298 374.475 54.2153C367.721 49.1326 355.734 47.3715 344.486 50.2398Z" fill="#032100" stroke="#032100" stroke-width="0.7" stroke-linecap="round" stroke-linejoin="round"></path><path d="M327.879 158.006C327.406 158.01 326.933 157.978 326.465 157.91L326.889 155.295C327.789 155.426 329.824 155.417 330.446 154.563C331.292 153.394 330.626 146.917 329.77 145.844C329.446 145.478 327.906 145.478 326.799 145.731L326.177 143.176C326.844 143.028 330.248 142.366 331.824 144.144C333.4 145.923 334.345 153.734 332.652 156.088C331.49 157.71 329.329 158.006 327.879 158.006Z" fill="white" stroke="#032100" stroke-width="0.7" stroke-linecap="round" stroke-linejoin="round"></path><path d="M327.988 140.831H311.868V153.093C311.868 157.544 315.477 161.153 319.928 161.153C324.38 161.153 327.988 157.544 327.988 153.093V140.831Z" fill="white" stroke="#032100" stroke-width="0.7" stroke-linecap="round" stroke-linejoin="round"></path><path d="M370.161 108.897C370.161 108.897 366.982 115.793 366.792 119.236C366.603 122.68 370.728 146.141 370.728 146.141C370.728 146.141 357.22 149.402 353.482 149.402C351.414 149.418 349.347 149.299 347.295 149.044C347.295 149.044 342.234 145.775 340.73 144.868C339.226 143.961 338.11 144.502 335.489 142.505C332.868 140.509 330.797 140.335 330.608 141.424C330.419 142.514 330.428 143.238 332.301 144.144C333.506 144.745 334.636 145.476 335.669 146.324C335.669 146.324 331.166 147.196 329.861 147.414C328.555 147.632 328.176 149.402 328.96 150.317C329.743 151.232 331.022 152.488 331.022 152.488C331.022 152.488 330.833 156.847 333.274 157.719C335.714 158.591 342.459 158.442 342.459 158.442C342.459 158.442 349.583 158.992 350.708 158.992C351.834 158.992 366.081 162.435 376.203 162.435C386.326 162.435 389.324 162.985 389.883 160.805C390.441 158.625 389.505 126.507 387.631 116.708C385.758 106.909 381.445 101.46 378.446 101.103" fill="#3BC90C"></path><path d="M370.161 108.897C370.161 108.897 366.982 115.793 366.792 119.236C366.603 122.68 370.728 146.141 370.728 146.141C370.728 146.141 357.22 149.402 353.482 149.402C351.414 149.418 349.347 149.299 347.295 149.044C347.295 149.044 342.234 145.775 340.73 144.868C339.226 143.961 338.11 144.502 335.489 142.505C332.868 140.509 330.797 140.335 330.608 141.424C330.419 142.514 330.428 143.238 332.301 144.144C333.506 144.745 334.636 145.476 335.669 146.324C335.669 146.324 331.166 147.196 329.861 147.414C328.555 147.632 328.176 149.402 328.96 150.317C329.743 151.232 331.022 152.488 331.022 152.488C331.022 152.488 330.833 156.847 333.274 157.719C335.714 158.591 342.459 158.442 342.459 158.442C342.459 158.442 349.583 158.992 350.708 158.992C351.834 158.992 366.081 162.435 376.203 162.435C386.326 162.435 389.324 162.985 389.883 160.805C390.441 158.625 389.505 126.507 387.631 116.708C385.758 106.909 381.445 101.46 378.446 101.103" stroke="#032100" stroke-width="0.7" stroke-linecap="round" stroke-linejoin="round"></path><path d="M359.714 148.494C357.663 148.941 355.58 149.233 353.482 149.366C351.414 149.382 349.347 149.263 347.295 149.008C347.295 149.008 342.234 145.739 340.73 144.832C339.226 143.925 338.11 144.466 335.489 142.469C332.868 140.473 330.797 140.299 330.608 141.388C330.419 142.478 330.428 143.202 332.301 144.109C333.506 144.709 334.636 145.44 335.669 146.288C335.669 146.288 331.166 147.16 329.861 147.378C328.555 147.596 328.176 149.366 328.96 150.281C329.743 151.196 331.022 152.452 331.022 152.452C331.022 152.452 330.833 156.811 333.274 157.683C335.714 158.555 342.459 158.406 342.459 158.406C342.459 158.406 349.583 158.956 350.708 158.956C351.303 158.956 355.535 159.915 360.894 160.813C358.922 156.445 359.174 151.676 359.714 148.494Z" fill="white" stroke="#032100" stroke-width="0.7" stroke-linecap="round" stroke-linejoin="round"></path><path d="M145.444 317.084C144.733 320.924 143.522 324.662 141.842 328.208C139.14 333.762 138.969 335.854 145.075 336.717C151.18 337.58 154.224 336.194 155.485 333.073C156.746 329.952 157.286 322.472 157.637 320.737C157.989 319.002 153.171 313.605 145.444 317.084Z" fill="white" stroke="#032100" stroke-width="0.7" stroke-linecap="round" stroke-linejoin="round"></path><path d="M155.503 330.466C154.242 332.724 152.63 335.505 146.164 334.982C142.499 334.686 140.968 333.151 140.337 331.887C139.509 334.764 140.581 336.08 145.092 336.717C151.189 337.589 154.242 336.194 155.503 333.073C156.009 331.603 156.37 330.091 156.584 328.557C156.259 329.115 155.89 329.76 155.503 330.466Z" fill="white" stroke="#032100" stroke-width="0.7" stroke-linecap="round" stroke-linejoin="round"></path><path d="M196.243 315.523C199.075 317.958 202.284 319.95 205.753 321.425C211.498 323.857 215.659 325.252 215.659 326.464C215.451 327.689 215.024 328.869 214.398 329.951C210.421 331.02 206.322 331.606 202.195 331.695C196.09 331.695 191.065 331.172 186.58 330.998C182.095 330.823 176.881 331.346 176.529 328.225C176.178 325.104 176.881 319.184 176.881 319.184C176.881 319.184 192.641 314.477 196.243 315.523Z" fill="white" stroke="#032100" stroke-width="0.7" stroke-linecap="round" stroke-linejoin="round"></path><path d="M214.372 329.943C214.372 329.943 214.687 329.376 215.002 328.661C212.066 329.174 209.095 329.486 206.114 329.594C199.657 329.768 197.324 328.897 189.957 328.034C185.468 327.56 180.939 327.56 176.449 328.034C176.449 328.077 176.449 328.129 176.449 328.182C176.8 331.303 182.015 330.797 186.499 330.954C190.984 331.111 196.009 331.652 202.115 331.652C206.258 331.578 210.376 331.004 214.372 329.943Z" fill="white" stroke="#032100" stroke-width="0.7" stroke-linecap="round" stroke-linejoin="round"></path><path d="M197.333 179.257C197.333 179.257 198.233 205.542 196.594 228.785C194.955 252.028 192.713 286.177 193.64 291.007C194.568 295.837 195.342 311.39 195.342 311.39L197.008 313.36L197.909 316.577C197.909 316.577 197.008 317.449 191.263 319.08C185.517 320.71 177.223 321.05 177.223 321.05C177.223 321.05 176.854 315.679 176.854 314.25C176.854 312.82 177.223 309.603 177.223 309.603C177.223 309.603 174.089 271.879 174.638 264.19C175.188 256.5 174.089 225.742 174.089 225.742L173.189 214.661C173.189 214.661 165.804 243.432 165.435 247.023C165.066 250.615 159.887 287.075 159.887 289.22C159.887 291.364 157.672 311.748 157.672 311.748C158.437 312.947 158.94 314.285 159.149 315.679C159.338 317.65 157.861 322.654 157.861 322.654C156.243 321.631 154.415 320.962 152.503 320.692L144.929 320.152C144.929 320.152 143.452 309.777 143.452 307.633V296.552C143.452 296.552 142.714 270.981 144.01 261.147C145.307 251.313 144.56 220.921 143.821 208.044C143.083 195.167 141.237 183.729 142.533 180.87C143.408 178.785 144.086 176.629 144.56 174.427C154 176.327 163.566 177.583 173.189 178.184C188.498 179.056 196.279 176.397 196.279 176.397L197.333 179.257Z" fill="#032100" stroke="#032100" stroke-width="0.7" stroke-linecap="round" stroke-linejoin="round"></path><path d="M173.136 214.662L177.216 203.093" stroke="white" stroke-width="0.7" stroke-linecap="round" stroke-linejoin="round"></path><path d="M172.828 184.026C172.828 184.026 176.133 184.366 183.265 183.355C190.398 182.343 193.342 180.826 193.342 180.826C193.342 180.826 188.651 93.147 188.651 92.3013C188.748 90.9355 188.296 89.5862 187.39 88.5352C186.483 87.4841 185.193 86.8126 183.788 86.6607C178.916 85.7888 172.486 87.8376 171.09 93.0598C169.694 98.2821 172.828 184.026 172.828 184.026Z" fill="white" stroke="#032100" stroke-width="0.7" stroke-linecap="round" stroke-linejoin="round"></path><path d="M193.146 188.603C193.146 188.603 192.624 193.834 193.146 194.157C193.668 194.479 198.711 192.649 202.016 191.297C205.321 189.946 204.223 190.486 205.285 187.444C206.348 184.401 206.015 184.401 202.71 185.238C199.405 186.075 193.146 188.603 193.146 188.603Z" fill="white"></path><path d="M186.247 102.782L190.137 153.531L192.154 190.147C192.154 190.147 192.821 191.315 193.892 191.063C194.964 190.81 204.213 188.726 205.285 187.427C206.356 186.128 206.761 182.754 206.761 182.196C206.761 181.638 203.952 149.747 203.952 149.747L211.156 140.401C211.156 140.401 205.654 111.204 204.312 105.362C202.97 99.5213 202.979 96.4089 200.827 93.8108C198.674 91.2128 186.346 85.3716 186.346 85.3716L186.247 102.782Z" fill="#3BC90C" stroke="#032100" stroke-width="0.7" stroke-linecap="round" stroke-linejoin="round"></path><path d="M184.779 82.2402C184.779 82.2402 189.741 87.2968 189.606 89.8948C189.471 92.4929 186.247 102.746 186.247 102.746L184.239 87.6891C184.239 87.6891 183.167 83.9839 184.779 82.2402Z" fill="white" stroke="#032100" stroke-width="0.7" stroke-linecap="round" stroke-linejoin="round"></path><path d="M168.434 71.4652L168.02 82.084C168.02 82.084 171.622 90.8022 173.918 93.4177C176.215 96.0332 180.348 100.392 180.348 100.392L184.914 91.1771L185.04 86.1118L187.057 81.3081C183.882 80.6038 180.906 79.2316 178.34 77.289C174.053 74.0458 169.623 70.1487 169.226 70.018C168.83 69.8872 168.434 71.4652 168.434 71.4652Z" fill="white" stroke="#032100" stroke-width="0.7" stroke-linecap="round" stroke-linejoin="round"></path><path d="M171.135 75.2659C171.135 75.2659 172.297 79.3896 179.654 84.2631C181.316 85.4005 183.135 86.3045 185.058 86.9483V86.1462L187.075 81.3425C183.9 80.6382 180.924 79.266 178.358 77.3234C177.268 76.4951 176.178 75.632 175.133 74.8038L173.729 74.394L171.135 75.2659Z" fill="#032100" stroke="#032100" stroke-width="0.7" stroke-linecap="round" stroke-linejoin="round"></path><path d="M198.152 48.7628C198.152 48.7628 197.675 59.6431 197.351 63.3833C197.027 67.1234 196.865 70.3579 195.1 73.8016C193.334 77.2453 191.407 82.5198 188.354 82.9731C184.48 83.5457 180.519 82.8329 177.115 80.9505C173.414 78.7709 168.596 72.7118 168.434 71.4651C168.36 70.7747 168.199 70.0956 167.957 69.4424C167.957 69.4424 166.03 58.2482 166.03 53.2701C166.03 48.292 166.507 44.0985 174.702 41.3C182.897 38.5014 198.152 48.7628 198.152 48.7628Z" fill="white" stroke="#032100" stroke-width="0.7" stroke-linecap="round" stroke-linejoin="round"></path><path d="M171.325 48.7627C171.325 48.7627 176.305 50.0094 173.739 52.1802C171.172 54.351 168.759 56.8444 168.759 56.8444C168.759 56.8444 169.56 59.9568 169.245 61.2036C168.93 62.4503 167.318 63.3831 166.192 62.1364C165.066 60.8897 164.103 59.9569 164.103 59.9569C164.103 59.9569 161.05 50.6284 160.41 47.9867C159.771 45.3451 159.123 42.5378 163.112 39.8962C164.646 38.8053 166.256 37.8178 167.93 36.9407C172.773 34.1651 178.387 32.9159 183.996 33.3663C193.308 34.1422 197.504 39.2772 197.504 39.2772C197.504 39.2772 204.889 37.4115 204.412 42.5378C203.934 47.6642 198.63 51.0904 195.739 50.7853C192.849 50.4801 177.584 43.0086 174.531 44.2553C171.478 45.502 169.227 48.2919 171.325 48.7627Z" fill="#032100" stroke="#032100" stroke-width="0.7" stroke-linecap="round" stroke-linejoin="round"></path><path d="M189.804 60.2715C189.804 60.2715 192.047 67.2461 191.407 67.8912C190.768 68.5364 188.192 68.981 188.192 68.981" stroke="#032100" stroke-width="0.7" stroke-linecap="round" stroke-linejoin="round"></path><path d="M191.245 71.9353C191.245 71.9353 186.103 73.3302 182.24 71.0024" stroke="#032100" stroke-width="0.7" stroke-linecap="round" stroke-linejoin="round"></path><path d="M187.742 55.912C187.742 55.912 180.97 55.293 177.431 55.293C173.892 55.293 172.613 54.9791 172.451 55.912C172.289 56.8448 171.973 61.8229 174.702 63.5317C177.431 65.2405 182.411 64.4645 184.5 64.0025C186.59 63.5404 187.202 60.1141 187.391 59.0244C187.58 57.9346 187.742 55.912 187.742 55.912Z" stroke="#032100" stroke-width="0.7" stroke-linecap="round" stroke-linejoin="round"></path><path d="M189.732 55.9297C189.732 55.9297 195.135 55.5984 197.918 55.7379C200.701 55.8774 201.736 55.6333 201.862 56.54C201.989 57.4467 202.25 62.2504 200.061 63.7848C197.873 65.3192 193.947 64.3776 192.281 63.8458C190.614 63.314 190.119 59.9924 189.993 58.9375C189.867 57.8826 189.732 55.9297 189.732 55.9297Z" stroke="#032100" stroke-width="0.7" stroke-linecap="round" stroke-linejoin="round"></path><path d="M172.45 55.9116L164.102 59.9569" stroke="#032100" stroke-width="0.7" stroke-linecap="round" stroke-linejoin="round"></path><path d="M187.743 55.9116H189.904" stroke="#032100" stroke-width="0.7" stroke-linecap="round" stroke-linejoin="round"></path><path d="M168.758 63.8456C168.758 63.8456 165.065 59.3383 162.454 59.9573C159.842 60.5763 162.139 67.115 164.255 68.196C166.371 69.2771 168.587 67.8909 168.587 67.8909" fill="white"></path><path d="M168.758 63.8456C168.758 63.8456 165.065 59.3383 162.454 59.9573C159.842 60.5763 162.139 67.115 164.255 68.196C166.371 69.2771 168.587 67.8909 168.587 67.8909" stroke="#032100" stroke-width="0.7" stroke-linecap="round" stroke-linejoin="round"></path><path d="M181.69 60.0796C181.69 60.9514 181.303 61.7012 180.789 61.7012C180.276 61.7012 179.889 60.9776 179.889 60.0796C179.889 59.1816 180.276 58.458 180.789 58.458C181.303 58.458 181.69 59.1816 181.69 60.0796Z" fill="#032100"></path><path d="M193.695 61.7012C194.178 61.7012 194.569 60.9752 194.569 60.0796C194.569 59.184 194.178 58.458 193.695 58.458C193.213 58.458 192.822 59.184 192.822 60.0796C192.822 60.9752 193.213 61.7012 193.695 61.7012Z" fill="#032100"></path><path d="M176.998 54.3437C179.695 53.6889 182.527 53.7764 185.175 54.5965" stroke="#032100" stroke-width="0.7" stroke-linecap="round" stroke-linejoin="round"></path><path d="M191.74 54.6912C193.293 54.0026 195.035 53.8221 196.702 54.1769" stroke="#032100" stroke-width="0.7" stroke-linecap="round" stroke-linejoin="round"></path><path d="M177.132 192.273L177.321 195.473C177.321 195.473 169.675 196.981 159.067 194.601C148.458 192.221 138.903 185.883 137.859 184.505C136.814 183.128 138.759 177.435 138.759 177.435C138.759 177.435 137.363 177.103 139.804 177.94C142.244 178.777 151.799 186.859 164.83 189.047C177.862 191.236 177.33 190.425 177.132 192.273Z" fill="white"></path><path d="M167.209 78.8315C167.209 78.8315 173.783 87.6631 176.863 91.6822C179.943 95.7013 179.141 100.636 178.745 101.935C178.349 103.234 177.845 105.422 177.845 105.422V187.469C177.845 187.469 179.051 191.881 177.169 192.273C175.287 192.665 161.617 192.012 151.566 186.955C141.516 181.898 138.058 178.385 138.058 178.385L140.607 158.394L141.678 147.235L125.054 147.313C125.054 147.313 134.843 101.804 135.915 99.363C136.986 96.9219 163.4 83.9143 163.4 83.9143C163.4 83.9143 163.724 79.6772 167.209 78.8315Z" fill="#3BC90C" stroke="#032100" stroke-width="0.7" stroke-linecap="round" stroke-linejoin="round"></path><path d="M203.952 149.763L200.809 118.866" stroke="#032100" stroke-width="0.7" stroke-linecap="round" stroke-linejoin="round"></path><path d="M141.606 147.235L144.731 118.247" stroke="#032100" stroke-width="0.7" stroke-linecap="round" stroke-linejoin="round"></path><path d="M137.104 141.228C134.774 140.8 132.382 140.8 130.052 141.228C125.991 141.926 124.082 149.214 123.839 151.76C123.595 154.306 125.27 158.734 128.341 159.972C131.412 161.21 133.006 161.123 136.23 159.275C139.454 157.427 139.103 148.865 138.932 145.971C138.877 144.239 138.235 142.572 137.104 141.228Z" fill="white"></path><path d="M145.039 132.858C145.039 132.858 146.228 125.099 146.354 122.562C146.48 120.025 146.111 116.887 146.588 115.849C147.065 114.812 148.74 115.736 149.335 116.425C149.929 117.113 150.416 120.705 150.298 122.091C150.223 122.938 150.223 123.79 150.298 124.637C150.298 124.637 159.493 118.046 160.574 116.66C161.655 115.274 163.798 114.228 164.518 115.152C165.239 116.076 164.392 116.895 163.555 117.697C162.717 118.499 158.422 123.251 157.701 123.8C157.245 124.205 156.915 124.724 156.746 125.3C157.357 125.353 157.973 125.272 158.548 125.064C159.628 124.724 167.031 121.132 167.751 121.132C167.937 121.16 168.115 121.226 168.273 121.325C168.431 121.424 168.565 121.555 168.666 121.709C168.767 121.862 168.834 122.035 168.861 122.215C168.888 122.395 168.875 122.579 168.823 122.754C168.589 123.451 159.502 128.77 159.151 128.857C158.8 128.944 158.431 129.79 159.025 129.903C159.619 130.016 167.031 128.857 167.985 129.319C168.16 129.398 168.312 129.519 168.425 129.67C168.539 129.821 168.611 129.997 168.635 130.182C168.66 130.368 168.635 130.556 168.564 130.73C168.493 130.903 168.377 131.057 168.229 131.176C167.751 131.525 158.908 133.024 158.908 133.024L162.969 133.835C164.167 134.07 166.193 134.07 166.193 134.759C166.193 135.448 165.716 135.805 164.879 135.805H158.665C157.35 135.805 154.729 136.843 152.577 137.767C150.425 138.691 149.47 139.04 149.47 139.04C149.47 139.04 143.607 149.336 141.464 153.041C140.643 154.562 139.429 155.851 137.941 156.783C136.453 157.715 134.741 158.258 132.972 158.359C129.865 158.595 126.668 153.128 127.244 150.513C127.82 147.897 132.855 141.952 137.276 139.755C141.698 137.558 143.004 135.422 145.039 132.858Z" fill="white" stroke="#032100" stroke-width="0.7" stroke-linecap="round" stroke-linejoin="round"></path><path d="M216.272 142.571C216.272 142.571 212.859 138.273 210.464 138.107C208.068 137.942 203.8 145.378 203.8 148.525C203.8 151.673 203.971 157.619 205.34 158.447C206.708 159.275 209.266 157.784 210.806 155.831C212.346 153.878 216.272 142.571 216.272 142.571Z" fill="white"></path><path d="M255.447 122.17C255.447 122.17 255.645 118.631 254.951 118.822C254.258 119.014 253.772 119.494 253.97 121.115C253.968 122.852 253.769 124.583 253.375 126.277L255.447 122.17Z" fill="white" stroke="#032100" stroke-width="0.7" stroke-linecap="round" stroke-linejoin="round"></path><path d="M212.778 141.385C212.778 141.385 207.375 150.975 207.546 153.53C207.717 156.084 210.014 157.017 214.165 155.822C218.317 154.628 247.252 139.38 248.63 138.133C250.007 136.887 254.753 127.331 256.338 125.605C257.923 123.879 257.716 119.59 257.716 118.822C257.716 118.055 256.338 118.343 256.338 119.302C256.338 120.261 252.979 126.468 252.484 126.66C251.989 126.852 247.549 128.953 247.549 128.953C247.549 128.953 249.818 124.655 250.611 123.216C251.403 121.778 252.088 120.156 250.413 120.732C248.738 121.307 246.063 125.701 245.072 128.099C244.082 130.496 242.371 133.643 242.704 135.169L243.001 136.703C243.001 136.703 233.023 138.9 227.097 139.188C221.172 139.476 213.076 140.426 212.778 141.385Z" fill="white" stroke="#032100" stroke-width="0.7" stroke-linecap="round" stroke-linejoin="round"></path><path d="M252.781 131.255C252.781 131.255 258.013 125.414 258.706 124.368C259.4 123.322 260.282 121.692 260.084 120.445C259.886 119.198 259.004 120.733 258.283 121.788C257.563 122.842 256.212 123.793 255.419 125.51C255.151 126.039 254.773 126.508 254.308 126.888C253.843 127.267 253.301 127.549 252.718 127.716L252.781 131.255Z" fill="white" stroke="#032100" stroke-width="0.7" stroke-linecap="round" stroke-linejoin="round"></path><path d="M250.908 134.785C250.908 134.785 253.871 128.857 254.654 127.235C255.438 125.614 255.645 122.832 255.744 121.132C255.843 119.432 254.357 120.557 254.159 122.004C253.961 123.451 252.781 127.741 252.781 127.741C252.781 127.741 246.36 132.1 246.36 133.286C246.379 134.18 246.445 135.074 246.558 135.962" fill="white"></path><path d="M250.908 134.785C250.908 134.785 253.871 128.857 254.654 127.235C255.438 125.614 255.645 122.832 255.744 121.132C255.843 119.432 254.357 120.557 254.159 122.004C253.961 123.451 252.781 127.741 252.781 127.741C252.781 127.741 246.36 132.1 246.36 133.286C246.379 134.18 246.445 135.074 246.558 135.962" stroke="#032100" stroke-width="0.7" stroke-linecap="round" stroke-linejoin="round"></path><path d="M49.5886 224.784H39.9796V241.305H49.5886V224.784Z" fill="#032100" stroke="#032100" stroke-width="0.7" stroke-linecap="round" stroke-linejoin="round"></path><path d="M53.9109 158.891H34.1796C26.4058 158.891 20.1039 164.992 20.1039 172.518V216.179C20.1039 223.704 26.4058 229.805 34.1796 229.805H53.9109C61.6847 229.805 67.9866 223.704 67.9866 216.179V172.518C67.9866 164.992 61.6847 158.891 53.9109 158.891Z" fill="#2CA700"></path><path d="M29.695 327.86C29.6968 327.08 29.4593 326.317 29.0128 325.667C28.5662 325.018 27.9305 324.512 27.1864 324.212C26.4422 323.913 25.623 323.834 24.8326 323.986C24.0421 324.138 23.316 324.513 22.7462 325.065C22.1764 325.616 21.7885 326.319 21.6317 327.085C21.475 327.85 21.5563 328.643 21.8655 329.363C22.1747 330.084 22.6979 330.699 23.3686 331.131C24.0394 331.564 24.8276 331.794 25.6335 331.792C26.7107 331.792 27.7437 331.378 28.5054 330.64C29.2671 329.903 29.695 328.903 29.695 327.86Z" fill="#032100" stroke="#032100" stroke-width="0.7" stroke-linecap="round" stroke-linejoin="round"></path><path d="M109.134 327.86C109.136 327.08 108.899 326.317 108.452 325.667C108.005 325.018 107.37 324.512 106.626 324.212C105.882 323.913 105.062 323.834 104.272 323.986C103.481 324.138 102.755 324.513 102.186 325.065C101.616 325.616 101.228 326.319 101.071 327.085C100.914 327.85 100.996 328.643 101.305 329.363C101.614 330.084 102.137 330.699 102.808 331.131C103.479 331.564 104.267 331.794 105.073 331.792C106.15 331.792 107.183 331.378 107.945 330.64C108.706 329.903 109.134 328.903 109.134 327.86Z" fill="#032100" stroke="#032100" stroke-width="0.7" stroke-linecap="round" stroke-linejoin="round"></path><path d="M67.3196 327.86C67.3196 325.68 66.4731 323.919 65.4374 323.919C64.4018 323.919 63.5463 325.663 63.5463 327.86C63.5463 330.057 64.3928 331.792 65.4374 331.792C66.4821 331.792 67.3196 330.03 67.3196 327.86Z" fill="#032100" stroke="#032100" stroke-width="0.7" stroke-linecap="round" stroke-linejoin="round"></path><path d="M69.1308 306.491V250.067H61.1519V306.727L21.7704 321.809V325.593H27.4889V322.385L65.4475 314.808L103.397 322.385V325.593H109.125V321.809L69.1308 306.491Z" fill="#032100" stroke="#032100" stroke-width="0.7" stroke-linecap="round" stroke-linejoin="round"></path><path d="M63.4394 325.584H67.4289L68.2844 307.267H62.5839L63.4394 325.584Z" fill="#032100" stroke="#032100" stroke-width="0.7" stroke-linecap="round" stroke-linejoin="round"></path><path d="M75.2728 247.914H54.9832V259.579H75.2728V247.914Z" fill="#032100" stroke="#032100" stroke-width="0.7" stroke-linecap="round" stroke-linejoin="round"></path><path d="M95.3195 237.173H33.0368C30.0974 237.173 27.7145 239.48 27.7145 242.325V247.059C27.7145 249.905 30.0974 252.212 33.0368 252.212H95.3195C98.2589 252.212 100.642 249.905 100.642 247.059V242.325C100.642 239.48 98.2589 237.173 95.3195 237.173Z" fill="#2CA700"></path><path d="M153.829 278.837L160.033 287.747L167.391 287.302C167.391 287.302 181.413 284.853 183.25 284.408C185.087 283.963 185.78 285.515 184.862 287.302C183.943 289.09 175.433 297.093 171.299 299.508C167.166 301.923 155.432 305.959 154.288 306.186C153.144 306.413 151.757 304.181 149.227 297.285C147.33 292.467 144.944 287.844 142.103 283.484L153.829 278.837Z" fill="white" stroke="#032100" stroke-width="0.7" stroke-linecap="round" stroke-linejoin="round"></path><path d="M184.862 287.302C185.763 285.559 185.096 283.963 183.25 284.408C181.404 284.852 167.427 287.302 167.427 287.302L160.07 287.747C160.108 289.797 160.497 291.827 161.222 293.754C161.222 293.754 150.875 296.204 149.263 297.32C151.794 304.216 153.171 306.439 154.324 306.221C155.477 306.003 167.193 301.993 171.336 299.543C175.478 297.093 183.943 289.081 184.862 287.302Z" fill="white" stroke="#032100" stroke-width="0.7" stroke-linecap="round" stroke-linejoin="round"></path><path d="M184.862 287.302C185.215 286.693 185.331 285.981 185.186 285.297C180.98 288.723 172.182 295.759 168.661 297.459C165.301 299.08 156.584 302.053 151.838 303.631C152.856 305.628 153.639 306.351 154.288 306.247C155.431 306.02 167.157 302.018 171.299 299.569C175.442 297.119 183.943 289.081 184.862 287.302Z" fill="white" stroke="#032100" stroke-width="0.7" stroke-linecap="round" stroke-linejoin="round"></path><path d="M130.918 205.317C130.918 205.317 141.04 234.087 146.93 253.467C149.764 262.76 153.303 271.837 157.521 280.625C157.521 280.625 152.694 283.292 149.47 284.853C146.246 286.413 140.734 288.41 140.734 288.41C140.734 288.41 136.367 281.732 131.774 273.057C127.181 264.382 119.355 243.232 115.672 236.772C111.988 230.312 106.936 220.521 106.936 220.521C106.936 220.521 104.64 209.397 113.375 206.502C122.111 203.608 128.397 202.204 130.918 205.317Z" fill="#3BC90C" stroke="#032100" stroke-width="0.7" stroke-linecap="round" stroke-linejoin="round"></path><path d="M96.0302 200.504C96.0302 200.504 99.9926 203.058 100.101 203.477C100.209 203.895 99.9926 204.227 99.1101 204.549C98.2275 204.872 94.166 205.613 94.166 205.613L96.0302 200.504Z" fill="white" stroke="#032100" stroke-width="0.7" stroke-linecap="round" stroke-linejoin="round"></path><path d="M110.736 297.119C110.736 297.119 109.151 306.665 108.035 310.144C106.918 313.623 104 319.961 104.928 321.53C105.855 323.099 110.763 324.721 113.267 324.921C115.77 325.122 118.976 329.089 123.632 330.719C128.288 332.349 134.439 331.913 134.304 330.719C134.169 329.525 120.516 315.026 119.85 311.452C119.183 307.877 121.57 296.857 121.57 296.857L110.736 297.119Z" fill="white" stroke="#032100" stroke-width="0.7" stroke-linecap="round" stroke-linejoin="round"></path><path d="M118.184 313.814L117.815 314.817C114.212 314.42 110.651 313.726 107.17 312.742C105.9 316.151 104.243 320.301 104.973 321.53C105.873 323.108 110.808 324.721 113.312 324.921C115.816 325.122 119.022 329.089 123.677 330.719C128.333 332.349 134.484 331.913 134.349 330.719C134.214 329.525 120.562 315.026 119.895 311.452C119.201 312.148 118.624 312.945 118.184 313.814Z" fill="white" stroke="#032100" stroke-width="0.7" stroke-linecap="round" stroke-linejoin="round"></path><path d="M123.398 328.357C119.715 326.613 116.382 323.614 111.474 322.01C108.286 320.955 106.071 320.109 104.9 319.639C104.72 320.261 104.745 320.923 104.972 321.531C105.873 323.109 110.808 324.721 113.312 324.922C115.815 325.122 119.021 329.089 123.677 330.72C128.126 332.289 133.907 331.949 134.313 330.885C131.242 330.449 125.928 329.56 123.398 328.357Z" fill="white" stroke="#032100" stroke-width="0.7" stroke-linecap="round" stroke-linejoin="round"></path><path d="M108.296 225.42C108.296 225.42 126.461 227.425 127.847 236.326C129.234 245.228 126.001 300.649 126.001 300.649C123.312 300.766 120.617 300.618 117.959 300.205C114.276 299.542 108.053 298.208 108.053 298.208C108.053 298.208 107.153 279.29 105.982 271.714C104.811 264.138 103.911 242.115 103.911 242.115C103.911 242.115 73.5617 239.665 70.806 237.887C68.0503 236.108 108.296 225.42 108.296 225.42Z" fill="#3BC90C" stroke="#032100" stroke-width="0.7" stroke-linecap="round" stroke-linejoin="round"></path><path d="M128.073 220.966C128.073 220.966 87.3764 236.327 77.029 239.666C67.6899 242.528 57.6781 242.607 48.2921 239.893C41.1687 237.661 37.6655 228.804 37.6655 228.804C37.6655 228.804 35.8644 226.755 36.765 224.758C37.6655 222.762 52.4077 210.059 61.3683 207.836C70.3288 205.613 86.5839 206.581 86.5839 206.581C86.5839 206.581 121.634 198.734 126.461 199.38C131.288 200.025 135.133 216.685 135.817 218.908" fill="#3BC90C"></path><path d="M128.073 220.966C128.073 220.966 87.3764 236.327 77.029 239.666C67.6899 242.528 57.6781 242.607 48.2921 239.893C41.1687 237.661 37.6655 228.804 37.6655 228.804C37.6655 228.804 35.8644 226.755 36.765 224.758C37.6655 222.762 52.4077 210.059 61.3683 207.836C70.3288 205.613 86.5839 206.581 86.5839 206.581C86.5839 206.581 121.634 198.734 126.461 199.38C131.288 200.025 135.133 216.685 135.817 218.908" stroke="#032100" stroke-width="0.7" stroke-linecap="round" stroke-linejoin="round"></path><path d="M48.058 230.538C48.058 230.538 51.282 218.333 59.7653 213.18" stroke="#032100" stroke-width="0.7" stroke-linecap="round" stroke-linejoin="round"></path><path d="M46.2207 222.307C46.2207 222.307 49.6698 217.181 54.2717 216.074" stroke="#032100" stroke-width="0.7" stroke-linecap="round" stroke-linejoin="round"></path><path d="M71.5356 130.636C72.7516 130.908 73.8966 131.421 74.8991 132.141C75.9015 132.861 76.74 133.773 77.3622 134.821C79.6226 138.465 83.387 152.126 83.387 152.126C83.387 152.126 89.4027 169.066 88.277 173.05C87.1513 177.034 82.6305 182.884 82.6305 182.884C82.6305 182.884 83.0087 195.961 84.1344 198.577C85.1234 201.195 85.9415 203.871 86.584 206.589C86.584 206.589 83.387 208.777 72.8504 210.233C62.3139 211.689 53.6595 212.421 50.0843 215.15C46.5091 217.879 38.6112 228.228 37.6656 228.812C36.72 229.396 35.2251 230.451 34.4686 228.995C33.7121 227.539 32.3973 224.444 34.0904 217.888C35.7834 211.332 38.8003 185.465 39.926 173.259C41.0517 161.054 38.6112 148.674 40.1151 140.13C41.619 131.586 54.9743 126.477 57.9822 125.928C60.9901 125.379 71.5356 130.636 71.5356 130.636Z" fill="#032100" stroke="#032100" stroke-width="0.7" stroke-linecap="round" stroke-linejoin="round"></path><path d="M39.7811 217.854C39.7811 217.854 45.5357 211.402 48.2914 210.286C51.0471 209.17 70.3641 209.17 70.3641 209.17" stroke="white" stroke-width="0.7" stroke-linecap="round" stroke-linejoin="round"></path><path d="M43.9243 209.615C45.7256 208.623 47.6588 207.875 49.6699 207.391C52.2005 206.947 58.8646 207.391 58.8646 207.391" stroke="white" stroke-width="0.7" stroke-linecap="round" stroke-linejoin="round"></path><path d="M54.0383 187.357C60.2993 184.99 66.007 181.433 70.8248 176.896" stroke="white" stroke-width="0.7" stroke-linecap="round" stroke-linejoin="round"></path><path d="M74.7322 78.9105C74.7322 78.9105 77.5509 84.743 78.4965 86.5564C79.4421 88.3698 79.0549 91.4822 79.8114 94.0279C80.5678 96.5736 84.8905 98.2127 84.8905 99.6773C84.8905 101.142 83.1975 104.036 83.1975 104.036C83.1975 104.036 82.2519 115.37 80.7479 116.599C79.244 117.829 73.0391 118.238 73.0391 118.238L69.8422 130.078L73.0391 131.9C73.0391 131.9 73.5975 142.649 73.0391 146.477C72.4808 150.304 72.85 153.94 67.2035 152.484C61.557 151.028 52.9026 136.468 52.1552 134.646C51.4077 132.824 54.5957 124.986 50.8403 113.33C47.085 101.674 55.3432 91.116 60.8095 86.1989C66.2759 81.2819 68.8966 78.0038 74.7322 78.9105Z" fill="white" stroke="#032100" stroke-width="0.7" stroke-linecap="round" stroke-linejoin="round"></path><path d="M74.7316 78.9109C74.5425 75.6328 74.1642 74.36 67.2029 73.6276C60.2416 72.8953 45.3824 72.3548 39.5467 82.3459C33.7111 92.3369 33.7201 114.22 33.7201 114.22C33.7201 114.22 21.3014 124.961 20.3558 131.543C19.4102 138.125 23.9581 144.298 31.0815 146.486L31.5047 146.59C32.1368 143.544 33.4695 140.674 35.4042 138.195C39.4747 133.47 43.0049 133.993 48.1561 132.676C53.3073 131.36 56.5853 131.028 57.3508 125.335C58.1163 119.642 59.233 113.487 58.7377 107.69C58.5485 105.501 60.9981 102.223 60.9981 102.223C60.9981 102.223 66.8247 103.679 70.589 93.8452C74.3534 84.011 74.9207 82.1889 74.7316 78.9109Z" fill="#032100" stroke="#032100" stroke-width="0.7" stroke-linecap="round" stroke-linejoin="round"></path><path d="M63.4401 104.952C63.4401 104.952 61.5579 96.5739 56.6679 99.852C51.7779 103.13 59.1174 112.424 60.2701 112.607C61.4228 112.79 63.278 111.691 63.278 111.691" fill="white"></path><path d="M63.4401 104.952C63.4401 104.952 61.5579 96.5739 56.6679 99.852C51.7779 103.13 59.1174 112.424 60.2701 112.607C61.4228 112.79 63.278 111.691 63.278 111.691" stroke="#032100" stroke-width="0.7" stroke-linecap="round" stroke-linejoin="round"></path><path d="M73.0389 118.247L67.2032 117.523L71.3458 122.806L73.0389 118.247Z" fill="#032100" stroke="#032100" stroke-width="0.7" stroke-linecap="round" stroke-linejoin="round"></path><path d="M79.2256 96.1112C79.4688 97.3492 79.2256 98.439 78.6583 98.5436C78.0909 98.6482 77.4425 97.7241 77.1904 96.4948C76.9382 95.2655 77.1904 94.1758 77.7667 94.0711C78.3431 93.9665 78.9825 94.8819 79.2256 96.1112Z" fill="#032100"></path><path d="M91.1046 195.386C91.5868 195.389 92.0684 195.357 92.5455 195.29L92.1133 192.675C91.2127 192.806 89.1234 192.797 88.511 191.934C87.6555 190.739 88.3309 184.148 89.2045 183.032C89.5287 182.666 91.0956 182.666 92.2213 182.919L92.8517 180.304C92.1763 180.147 88.7182 179.432 87.1062 181.28C85.4942 183.128 84.5396 191.045 86.2686 193.433C87.4304 195.081 89.6367 195.386 91.1046 195.386Z" fill="white" stroke="#032100" stroke-width="0.7" stroke-linecap="round" stroke-linejoin="round"></path><path d="M90.9958 177.914V190.39C90.9958 194.916 94.6649 198.585 99.1909 198.585C103.717 198.585 107.386 194.916 107.386 190.39V177.914H90.9958Z" fill="white" stroke="#032100" stroke-width="0.7" stroke-linecap="round" stroke-linejoin="round"></path><path d="M43.5459 134.254C43.5459 134.254 34.8645 131.639 30.893 147.881C29.5782 153.286 24.2199 208.037 25.3366 208.403C29.3891 209.789 72.0846 196.93 72.0846 196.93C72.0846 196.93 85.2958 196.058 86.4936 195.788C87.6913 195.517 89.4654 193.512 89.3844 192.387C89.3033 191.263 89.3844 188.987 89.3844 188.987C89.3844 188.987 91.3746 186.773 90.6812 185.308C90.2626 184.429 89.5164 183.734 88.5919 183.364H85.8902L84.2782 182.719C84.2782 182.719 86.2865 180.696 85.9532 178.831C85.62 176.965 83.999 175.936 83.3146 177.296C82.6302 178.656 82.4951 179.624 81.2163 180.845C79.7387 182.119 78.399 183.536 77.2178 185.073C76.3173 186.459 73.8587 190.025 73.8587 190.025L43.0956 191.646L47.6524 157.314" fill="#032100"></path><path d="M43.5459 134.254C43.5459 134.254 34.8645 131.639 30.893 147.881C29.5782 153.286 24.2199 208.037 25.3366 208.403C29.3891 209.789 72.0846 196.93 72.0846 196.93C72.0846 196.93 85.2958 196.058 86.4936 195.788C87.6913 195.517 89.4654 193.512 89.3844 192.387C89.3033 191.263 89.3844 188.987 89.3844 188.987C89.3844 188.987 91.3746 186.773 90.6812 185.308C90.2626 184.429 89.5164 183.734 88.5919 183.364H85.8902L84.2782 182.719C84.2782 182.719 86.2865 180.696 85.9532 178.831C85.62 176.965 83.999 175.936 83.3146 177.296C82.6302 178.656 82.4951 179.624 81.2163 180.845C79.7387 182.119 78.399 183.536 77.2178 185.073C76.3173 186.459 73.8587 190.025 73.8587 190.025L43.0956 191.646L47.6524 157.314" stroke="#032100" stroke-width="0.7" stroke-linecap="round" stroke-linejoin="round"></path><path d="M90.591 185.307C90.1724 184.428 89.4262 183.733 88.5017 183.363H85.8L84.188 182.718C84.188 182.718 86.1962 180.695 85.863 178.83C85.5298 176.964 83.9088 175.935 83.2244 177.295C82.54 178.655 82.4049 179.623 81.1261 180.844C79.6485 182.118 78.3088 183.535 77.1276 185.072C76.2271 186.458 73.7685 190.024 73.7685 190.024L43.0054 191.645L45.0407 176.694L27.768 176.31C26.192 192.003 24.7601 208.201 25.3635 208.411C29.416 209.797 72.1115 196.937 72.1115 196.937C72.1115 196.937 85.3227 196.066 86.5205 195.795C87.7182 195.525 89.4923 193.52 89.4112 192.395C89.3302 191.271 89.4112 188.995 89.4112 188.995C89.4112 188.995 91.2844 186.772 90.591 185.307Z" fill="white" stroke="#032100" stroke-width="0.7" stroke-linecap="round" stroke-linejoin="round"></path><path d="M89.2137 200.268C89.2137 200.268 85.7646 200.939 84.846 202.012C83.9275 203.084 81.631 209.134 82.7837 209.361C83.9364 209.588 86.2329 204.688 86.2329 204.688C86.2329 204.688 92.6809 201.602 89.2137 200.268Z" fill="white" stroke="#032100" stroke-width="0.7" stroke-linecap="round" stroke-linejoin="round"></path><path d="M90.753 200.286C89.9595 200.236 89.1659 200.383 88.4476 200.713C87.457 201.245 85.3677 205.822 85.0435 207.104C84.7193 208.385 85.0435 209.649 85.9441 209.335C86.8446 209.022 89.9065 204.436 90.7801 203.904C91.6536 203.372 92.293 200.303 90.753 200.286Z" fill="white" stroke="#032100" stroke-width="0.7" stroke-linecap="round" stroke-linejoin="round"></path><path d="M93.1753 200.286C93.0717 200.059 92.902 199.865 92.687 199.729C92.4719 199.594 92.2207 199.521 91.964 199.521C91.7073 199.521 91.4561 199.594 91.2411 199.729C91.026 199.865 90.8564 200.059 90.7528 200.286C89.438 202.099 87.2406 207.635 87.7899 208.054C88.3393 208.472 89.6541 207.104 90.5366 206.145C91.4192 205.186 93.8327 202.736 93.1753 200.286Z" fill="white" stroke="#032100" stroke-width="0.7" stroke-linecap="round" stroke-linejoin="round"></path><path d="M96.0303 200.504C96.0303 200.504 94.0581 199.327 93.1756 200.286C92.293 201.245 91.6356 206.389 91.8517 206.886C92.0679 207.383 93.833 206.145 94.1662 205.613C94.4994 205.081 96.0303 200.504 96.0303 200.504Z" fill="white" stroke="#032100" stroke-width="0.7" stroke-linecap="round" stroke-linejoin="round"></path></svg>