<svg xmlns="http://www.w3.org/2000/svg" width="590" height="415" viewBox="0 0 590 415" fill="none"><path d="M106.07 24.514H524.92C527.473 24.5165 529.92 25.5315 531.725 27.3363C533.53 29.1412 534.545 31.5883 534.547 34.1408V308.885H96.3882V34.1408C96.3894 32.8722 96.641 31.6164 97.1287 30.4454C97.6163 29.2744 98.3304 28.2112 99.23 27.3167C100.13 26.4223 101.197 25.7143 102.371 25.2334C103.544 24.7524 104.802 24.508 106.07 24.514Z" fill="#3BC90C" stroke="#032100" stroke-width="0.7" stroke-linecap="round" stroke-linejoin="round"></path><path d="M467.049 295.196H165.949V310.027H467.049V295.196Z" fill="#032100" stroke="#032100" stroke-width="0.7" stroke-linecap="round" stroke-linejoin="round"></path><path d="M467.049 302.335H165.949V310.027H467.049V302.335Z" fill="white" stroke="#032100" stroke-width="0.7" stroke-linecap="round" stroke-linejoin="round"></path><path d="M61.0037 318.825C61.0037 318.825 65.9506 324.868 80.7822 329.815H552.206C552.206 329.815 563.197 327.051 568.144 319.368L61.0037 318.825Z" fill="#032100" stroke="#032100" stroke-width="0.7" stroke-linecap="round" stroke-linejoin="round"></path><path d="M567.471 308H61.7411C60.7795 308 60 308.78 60 309.742V317.811C60 318.773 60.7795 319.553 61.7411 319.553H567.471C568.433 319.553 569.213 318.773 569.213 317.811V309.742C569.213 308.78 568.433 308 567.471 308Z" fill="#3BC90C" stroke="#032100" stroke-width="0.7" stroke-linecap="round" stroke-linejoin="round"></path><path d="M315.399 36.9505C317.521 36.9505 319.241 35.2306 319.241 33.1091C319.241 30.9875 317.521 29.2676 315.399 29.2676C313.277 29.2676 311.558 30.9875 311.558 33.1091C311.558 35.2306 313.277 36.9505 315.399 36.9505Z" fill="#032100"></path><path d="M516.778 46.7246H114.205V274.229H516.778V46.7246Z" fill="white" stroke="#032100" stroke-width="0.7" stroke-linecap="round" stroke-linejoin="round"></path><path d="M516.778 46.7246H114.205V60.4968H516.778V46.7246Z" fill="#2CA700" stroke="#032100" stroke-width="0.7" stroke-linecap="round" stroke-linejoin="round"></path><path d="M484.542 164.99H318.271V258.936H484.542V164.99Z" stroke="#032100" stroke-width="0.7" stroke-linecap="round" stroke-linejoin="round"></path><path d="M484.542 247.642H318.271V258.936H484.542V247.642Z" stroke="#032100" stroke-width="0.7" stroke-linecap="round" stroke-linejoin="round"></path><path d="M484.542 251.778H318.271V254.8H484.542V251.778Z" stroke="#032100" stroke-width="0.7" stroke-linecap="round" stroke-linejoin="round"></path><path d="M402.296 224.695C412.003 224.695 419.872 216.825 419.872 207.118C419.872 197.41 412.003 189.541 402.296 189.541C392.588 189.541 384.719 197.41 384.719 207.118C384.719 216.825 392.588 224.695 402.296 224.695Z" stroke="#032100" stroke-width="0.7" stroke-linecap="round" stroke-linejoin="round"></path><path d="M415.801 207.191L393.186 194.138V220.254L415.801 207.191Z" stroke="#032100" stroke-width="0.7" stroke-linecap="round" stroke-linejoin="round"></path><path d="M484.394 77.0142H318.547V155.502H484.394V77.0142Z" stroke="#032100" stroke-width="0.7" stroke-linecap="round" stroke-linejoin="round"></path><path d="M318.547 155.502L378.408 108.824L410.807 126.944L449.249 92.896L484.394 115.411" stroke="#032100" stroke-width="0.7" stroke-linecap="round" stroke-linejoin="round"></path><path d="M340.519 111.016C347.189 111.016 352.596 105.609 352.596 98.9392C352.596 92.2692 347.189 86.8621 340.519 86.8621C333.849 86.8621 328.441 92.2692 328.441 98.9392C328.441 105.609 333.849 111.016 340.519 111.016Z" stroke="#032100" stroke-width="0.7" stroke-linecap="round" stroke-linejoin="round"></path><path d="M159.842 168.676H147.765V256.541H159.842V168.676Z" stroke="#032100" stroke-width="0.7" stroke-linecap="round" stroke-linejoin="round"></path><path d="M177.418 208.223H165.341V256.55H177.418V208.223Z" stroke="#032100" stroke-width="0.7" stroke-linecap="round" stroke-linejoin="round"></path><path d="M194.986 221.949H182.909V256.55H194.986V221.949Z" stroke="#032100" stroke-width="0.7" stroke-linecap="round" stroke-linejoin="round"></path><path d="M212.563 194.488H200.485V256.541H212.563V194.488Z" stroke="#032100" stroke-width="0.7" stroke-linecap="round" stroke-linejoin="round"></path><path d="M230.131 200.531H218.054V256.541H230.131V200.531Z" stroke="#032100" stroke-width="0.7" stroke-linecap="round" stroke-linejoin="round"></path><path d="M247.707 244.464H235.63V256.541H247.707V244.464Z" stroke="#032100" stroke-width="0.7" stroke-linecap="round" stroke-linejoin="round"></path><path d="M255.401 175.271H290.002" stroke="#032100" stroke-width="0.7" stroke-linecap="round" stroke-linejoin="round"></path><path d="M255.401 186.805H290.002" stroke="#032100" stroke-width="0.7" stroke-linecap="round" stroke-linejoin="round"></path><path d="M255.401 198.33H290.002" stroke="#032100" stroke-width="0.7" stroke-linecap="round" stroke-linejoin="round"></path><path d="M255.401 209.863H290.002" stroke="#032100" stroke-width="0.7" stroke-linecap="round" stroke-linejoin="round"></path><path d="M255.401 221.397H290.002" stroke="#032100" stroke-width="0.7" stroke-linecap="round" stroke-linejoin="round"></path><path d="M255.401 232.93H290.002" stroke="#032100" stroke-width="0.7" stroke-linecap="round" stroke-linejoin="round"></path><path d="M255.401 244.464H290.002" stroke="#032100" stroke-width="0.7" stroke-linecap="round" stroke-linejoin="round"></path><path d="M255.401 255.998H290.002" stroke="#032100" stroke-width="0.7" stroke-linecap="round" stroke-linejoin="round"></path><path d="M153.972 128.547L146.437 82.2927H151.798L156.773 115.53L162.991 82.4678H167.597L173.88 115.705L178.734 82.2927H183.985L176.533 128.547H171.853L165.404 94.287L158.891 128.547H153.972Z" fill="#032100"></path><path d="M196.635 84.697H292.441" stroke="#032100" stroke-width="0.7" stroke-linecap="round" stroke-linejoin="round"></path><path d="M196.635 94.8582H292.441" stroke="#032100" stroke-width="0.7" stroke-linecap="round" stroke-linejoin="round"></path><path d="M196.635 105.019H292.441" stroke="#032100" stroke-width="0.7" stroke-linecap="round" stroke-linejoin="round"></path><path d="M196.635 115.18H292.441" stroke="#032100" stroke-width="0.7" stroke-linecap="round" stroke-linejoin="round"></path><path d="M196.635 125.341H292.441" stroke="#032100" stroke-width="0.7" stroke-linecap="round" stroke-linejoin="round"></path><path d="M497.41 144.503H441.732C438.618 144.503 436.066 147.635 436.066 151.467V188.629C436.066 192.452 438.618 195.584 441.732 195.584H455.071L446.347 214.81L469.608 195.584H497.41C500.524 195.584 503.067 192.452 503.067 188.629V151.476C503.067 147.644 500.524 144.503 497.41 144.503Z" fill="#032100" stroke="#032100" stroke-width="0.7" stroke-linecap="round" stroke-linejoin="round"></path><path d="M459.918 181.83L448.209 173.54V169.155L459.918 160.799V165.23L451.525 171.329L459.918 177.427V181.83Z" fill="#3BC90C"></path><path d="M463.482 183.304L472.409 150.141H476.214L467.25 183.304H463.482Z" fill="#3BC90C"></path><path d="M479.779 181.83V177.445L488.218 171.31L479.779 165.248V160.817L491.534 169.108V173.493L479.779 181.83Z" fill="#3BC90C"></path><path d="M493.781 20H438.158C435.044 20 432.492 23.1321 432.492 26.9552V64.1079C432.492 67.9402 435.044 71.0723 438.158 71.0723H451.488L442.764 90.2889L466.034 71.0723H493.827C496.941 71.0723 499.492 67.9402 499.492 64.1079V26.9552C499.446 23.1321 496.895 20 493.781 20Z" fill="#032100" stroke="#032100" stroke-width="0.7" stroke-linecap="round" stroke-linejoin="round"></path><path d="M456.296 57.3093L444.578 49.0183V44.6426L456.296 36.2871V40.709L447.904 46.8535L456.296 52.9612V57.3093Z" fill="#3BC90C"></path><path d="M459.862 58.8294L468.789 25.6655H472.594L463.63 58.8294H459.862Z" fill="#3BC90C"></path><path d="M476.159 57.3094V52.9336L484.597 46.7891L476.159 40.7275V36.3057L487.914 44.5966V48.9816L476.159 57.3094Z" fill="#3BC90C"></path><path d="M275.002 115.945H219.324C216.21 115.945 213.658 119.077 213.658 122.9V160.071C213.658 163.903 216.21 167.036 219.324 167.036H232.663L223.939 186.252L247.2 167.036H275.002C278.116 167.036 280.658 163.903 280.658 160.071V122.918C280.631 119.095 278.116 115.945 275.002 115.945Z" fill="#032100" stroke="#032100" stroke-width="0.7" stroke-linecap="round" stroke-linejoin="round"></path><path d="M237.507 153.273L225.799 144.982V140.606L237.507 132.25V136.672L229.115 142.771L237.507 148.878V153.273Z" fill="#3BC90C"></path><path d="M241.074 154.747L250.001 121.583H253.815L244.842 154.747H241.074Z" fill="#3BC90C"></path><path d="M257.369 153.273V148.897L265.807 142.752L257.369 136.691V132.269L269.124 140.56V144.945L257.369 153.273Z" fill="#3BC90C"></path><path d="M129.101 304.868H128.972C128.438 304.822 123.721 304.306 122.68 301.183C121.879 298.76 121.86 291.971 123.74 289.825C125.462 287.862 128.116 288.811 129.267 289.585C129.572 289.788 129.785 290.104 129.857 290.463C129.93 290.822 129.857 291.196 129.654 291.501C129.451 291.807 129.135 292.019 128.776 292.092C128.417 292.164 128.043 292.091 127.738 291.888C127.738 291.888 126.347 291.031 125.813 291.639C124.891 292.671 124.587 298.18 125.297 300.308C125.637 301.321 127.839 301.985 129.221 302.151C129.588 302.168 129.932 302.33 130.179 302.601C130.426 302.872 130.555 303.23 130.538 303.597C130.521 303.963 130.359 304.308 130.088 304.555C129.817 304.802 129.459 304.931 129.092 304.914L129.101 304.868Z" fill="#032100"></path><path d="M144.9 287.337H128.318V307.706H144.9V287.337Z" fill="#032100" stroke="#032100" stroke-width="0.7" stroke-linecap="round" stroke-linejoin="round"></path><path d="M132.417 284.528C131.878 282.317 132.232 279.984 133.403 278.033C135.365 274.882 139.299 274.293 139.105 268.821" stroke="#032100" stroke-width="0.7" stroke-linecap="round" stroke-linejoin="round"></path><path d="M142.652 276.062C141.894 277.368 141.037 278.615 140.091 279.793C139.118 281.171 138.632 282.833 138.709 284.519" stroke="#032100" stroke-width="0.7" stroke-linecap="round" stroke-linejoin="round"></path><path d="M144.421 272.552C145.185 270.616 145.454 268.52 145.204 266.453" stroke="#032100" stroke-width="0.7" stroke-linecap="round" stroke-linejoin="round"></path><path d="M70.0331 162.816C70.0331 162.816 69.2224 159.288 67.1497 159.537C65.0769 159.786 65.7402 160.458 63.7688 159.942C61.7974 159.426 61.4013 157.75 60.434 159.205C59.4667 160.661 61.2907 161.582 59.5128 161.407C57.7348 161.232 57.0715 160.172 56.3898 160.827C55.9934 161.192 55.6576 161.618 55.3949 162.089L55.1093 162.89C55.2233 162.642 55.391 162.421 55.6005 162.246C55.81 162.07 56.056 161.943 56.3206 161.875C56.5852 161.806 56.8617 161.797 57.1302 161.848C57.3987 161.899 57.6525 162.01 57.873 162.171C59.7154 163.286 61.088 163.507 61.3552 162.522C61.6223 161.536 63.9162 161.6 63.9807 162.199C64.1152 162.671 64.3654 163.101 64.7084 163.452C64.7084 163.452 59.6049 163.876 58.1033 164.051C56.6017 164.226 55.4962 163.028 53.3314 164.051C51.1665 165.073 49.3701 166.05 48.5687 167.293C47.7672 168.537 49.6649 170.057 49.3978 170.978C49.1306 171.9 45.2707 173.198 45.4365 174.507C45.6024 175.815 47.3343 175.999 45.5655 177.169C43.7968 178.339 42.2399 179.665 42.7466 180.752C43.2533 181.84 44.589 183.009 44.3034 184.189C44.0179 185.368 42.0372 187.514 43.1151 188.528C44.1929 189.541 44.847 188.703 44.6535 190.25C44.4601 191.798 43.502 194.967 44.6535 195.4C45.805 195.833 47.2606 196.422 47.2513 197.952C47.2421 199.481 47.0026 200.651 48.062 201.48C49.1214 202.309 51.5811 202.198 51.8482 204.455C52.1154 206.712 52.401 207.44 53.4143 207.892C54.4276 208.343 56.0029 207.201 56.7859 209.015C57.569 210.83 59.8628 210.747 60.9407 210.231C62.0185 209.716 62.8752 208.859 63.8793 210.83C64.8835 212.802 66.0534 213.05 67.5089 212.498C68.9645 211.945 71.1109 212.249 71.9953 213.29C72.8796 214.331 74.9524 214.082 75.9934 213.189C77.0343 212.295 77.7713 210.499 78.7017 211.908C79.6322 213.318 81.8892 214.58 82.6906 213.336C83.4921 212.092 84.0172 210.13 85.2884 211.116C85.5752 211.321 85.8999 211.468 86.2436 211.547C86.5872 211.626 86.9432 211.636 87.2909 211.577C87.6387 211.518 87.9712 211.391 88.2695 211.202C88.5677 211.014 88.8257 210.769 89.0286 210.48C89.389 209.858 89.9124 209.347 90.5424 209.001C91.1724 208.655 91.8849 208.488 92.6029 208.518C94.1598 208.721 96.0575 208.675 96.0206 206.777C95.9838 204.879 95.8272 203.553 97.3748 203.746C98.9225 203.94 101.272 204.428 101.235 202.521C101.198 200.614 101.06 199.49 102.156 199.352C103.252 199.214 105.003 197.675 104.68 196.588C104.358 195.501 103.501 191.577 104.072 191.512C104.643 191.448 105.389 189.826 104.597 188.012C103.805 186.197 103.676 184.695 104.173 184.437C104.671 184.179 105.214 182.024 103.906 180.651C102.598 179.279 102.064 178.201 103.123 177.307C103.392 177.066 103.605 176.769 103.749 176.438C103.893 176.107 103.964 175.749 103.957 175.388C103.95 175.027 103.865 174.672 103.708 174.346C103.552 174.021 103.327 173.733 103.05 173.502C101.76 172.323 101.078 171.448 100.968 170.509C100.857 169.569 98.3237 167.579 97.5038 167.109C96.9116 166.671 96.426 166.104 96.0831 165.452C95.7402 164.799 95.5488 164.078 95.5232 163.341C95.2744 161.269 94.8783 161.131 91.3132 160.034C89.1796 159.453 87.1799 158.461 85.4266 157.114C83.9711 156.147 80.3968 156.57 78.9781 157.51C77.5594 158.45 72.1334 158.173 70.0331 162.816Z" fill="#032100" stroke="#032100" stroke-width="0.7" stroke-linecap="round" stroke-linejoin="round"></path><path d="M32.0514 259.194C38.1407 254.478 51.0193 233.096 51.0193 233.096C51.0193 233.096 52.567 244.013 54.3726 249.227C56.1781 254.441 58.6378 257.858 58.0574 263.846L58.0022 262.925L91.0278 263.892C90.0145 262.05 89.3696 261.737 89.1854 260.935C88.6419 258.126 91.5253 251.889 91.5621 249.042C91.599 246.196 93.7546 240.751 93.7546 240.751C93.7546 240.751 103.28 261.857 105.463 263.635C107.647 265.412 113.754 266.398 113.413 259.784C113.073 253.17 101.944 227.587 99.9913 223.138C98.0383 218.688 95.5878 215.602 90.8712 216.054C86.1546 216.505 85.0583 217.325 81.8433 217.5C78.6282 217.675 80.0469 202.235 80.0469 202.235C78.4315 203.535 76.5012 204.386 74.4515 204.699C72.4017 205.013 70.3055 204.78 68.3751 204.022C68.3751 204.022 69.2042 212.129 67.8316 214.672C66.4589 217.214 65.7404 218.016 62.4516 216.873C59.1629 215.731 54.0133 211.834 50.8719 213.336C47.7306 214.838 25.6674 251.548 23.9447 254.68C22.8024 256.753 19.7255 262.05 20.6468 263.478L32.0514 259.194Z" fill="white" stroke="#032100" stroke-width="0.7" stroke-linecap="round" stroke-linejoin="round"></path><path d="M58.0196 263.846C58.0196 263.533 58.0749 263.238 58.0841 262.925H57.9644C57.9644 262.925 58.0196 263.865 58.0196 263.846Z" fill="#3BC90C" stroke="#032100" stroke-width="0.7" stroke-linecap="round" stroke-linejoin="round"></path><path d="M50.8719 213.364C47.7306 214.865 25.6674 251.576 23.9447 254.708C22.8024 256.781 19.7255 262.078 20.6468 263.506L32.0514 259.194C38.1407 254.478 51.0193 233.096 51.0193 233.096C51.0193 233.096 52.567 244.013 54.3726 249.227C56.086 254.164 58.3799 257.518 58.0574 262.944L90.9633 263.911C89.95 262.068 89.3052 261.755 89.1209 260.954C88.5774 258.144 91.4608 251.907 91.4977 249.061C91.5345 246.214 93.6901 240.77 93.6901 240.77C93.6901 240.77 103.216 261.875 105.399 263.653C107.582 265.431 113.69 266.417 113.349 259.802C113.008 253.188 101.88 227.606 99.9268 223.156C97.9738 218.707 95.5234 215.621 90.8067 216.072C89.1198 216.228 87.4454 216.499 85.7953 216.883L72.1244 233.529L62.3872 216.892C59.1629 215.75 54.0133 211.862 50.8719 213.364Z" fill="#032100" stroke="#032100" stroke-width="0.7" stroke-linecap="round" stroke-linejoin="round"></path><path d="M58.389 261.304C58.389 261.304 40.9688 276.366 40.5727 290.543C40.4345 295.462 41.3741 306.453 49.7849 307.613C58.1956 308.774 95.4496 307.613 95.4496 307.613C95.4496 307.613 98.3515 306.738 100.056 296.9C101.76 287.061 89.0564 261.893 89.0564 261.893L58.389 261.304Z" fill="#032100" stroke="#032100" stroke-width="0.7" stroke-linecap="round" stroke-linejoin="round"></path><path d="M71.2115 267.301C71.2115 267.301 68.0333 271.244 67.5267 271.437C67.02 271.631 66.4673 273.169 65.4079 275.472C64.3485 277.775 64.6432 277.978 65.8961 277.397C67.149 276.817 68.3926 274.228 68.3926 274.228L70.797 272.69C70.797 272.69 73.2014 266.628 71.2115 267.301Z" fill="white" stroke="#032100" stroke-width="0.7" stroke-linecap="round" stroke-linejoin="round"></path><path d="M103.805 256.735C103.805 256.735 100.829 260.76 93.9108 263.837C86.9925 266.914 80.2768 265.993 76.4906 266.168C72.7044 266.343 72.1332 265.486 70.5211 268.517C68.909 271.548 70.3461 279.866 71.1291 280.401C71.9121 280.935 72.0503 277.094 72.0503 277.094C72.0503 277.094 72.7412 280.778 73.8467 280.852C74.9522 280.926 75.3022 277.711 75.3022 277.711C75.3022 277.711 76.2787 279.977 77.1447 279.673C78.0106 279.369 77.854 276.909 77.854 276.909C77.854 276.909 78.941 278.337 79.4753 277.554C80.0096 276.771 78.7291 272.027 78.7291 272.027C78.7291 272.027 83.63 272.828 85.4264 272.22C86.5254 271.828 87.486 271.124 88.19 270.194C92.9843 270.217 97.7753 269.934 102.533 269.346C107.959 268.425 115.477 262.815 113.735 259.323C111.994 255.832 106.218 255.049 106.218 255.049" fill="white"></path><path d="M103.805 256.735C103.805 256.735 100.829 260.76 93.9108 263.837C86.9925 266.914 80.2768 265.993 76.4906 266.168C72.7044 266.343 72.1332 265.486 70.5211 268.517C68.909 271.548 70.3461 279.866 71.1291 280.401C71.9121 280.935 72.0503 277.094 72.0503 277.094C72.0503 277.094 72.7412 280.778 73.8467 280.852C74.9522 280.926 75.3022 277.711 75.3022 277.711C75.3022 277.711 76.2787 279.977 77.1447 279.673C78.0106 279.369 77.854 276.909 77.854 276.909C77.854 276.909 78.941 278.337 79.4753 277.554C80.0096 276.771 78.7291 272.027 78.7291 272.027C78.7291 272.027 83.63 272.828 85.4264 272.22C86.5254 271.828 87.486 271.124 88.19 270.194C92.9843 270.217 97.7753 269.934 102.533 269.346C107.959 268.425 115.477 262.815 113.735 259.323C111.994 255.832 106.218 255.049 106.218 255.049" stroke="#032100" stroke-width="0.7" stroke-linecap="round" stroke-linejoin="round"></path><path d="M77.8355 276.955C77.8355 276.955 76.0575 271.833 76.7576 269.788" stroke="#032100" stroke-width="0.7" stroke-linecap="round" stroke-linejoin="round"></path><path d="M75.2553 277.711C75.2553 277.711 74.0485 272.755 74.3341 269.715" stroke="#032100" stroke-width="0.7" stroke-linecap="round" stroke-linejoin="round"></path><path d="M72.0037 277.093C72.0037 277.093 71.0825 271.677 71.7089 270.47" stroke="#032100" stroke-width="0.7" stroke-linecap="round" stroke-linejoin="round"></path><path d="M103.805 256.735C102.358 258.467 100.652 259.965 98.7472 261.175C100.59 262.566 102.506 264.998 103.151 269.254C108.503 268.056 115.384 262.713 113.708 259.36C112.031 256.007 106.218 255.049 106.218 255.049" fill="#032100"></path><path d="M103.805 256.735C102.358 258.467 100.652 259.965 98.7472 261.175C100.59 262.566 102.506 264.998 103.151 269.254C108.503 268.056 115.384 262.713 113.708 259.36C112.031 256.007 106.218 255.049 106.218 255.049" stroke="#032100" stroke-width="0.7" stroke-linecap="round" stroke-linejoin="round"></path><path d="M49.4345 245.45C50.8037 245.113 52.139 244.65 53.4234 244.068C55.4777 243.147 56.8964 241.065 57.5228 241.857C58.1492 242.649 57.6978 244.086 56.5094 245.1C55.0305 246.142 53.4719 247.066 51.8481 247.863C51.8481 247.863 48.1079 247.126 49.4345 245.45Z" fill="white" stroke="#032100" stroke-width="0.7" stroke-linecap="round" stroke-linejoin="round"></path><path d="M40.8117 253.556C40.8117 253.556 45.5099 241.092 47.6472 241.055C49.7844 241.019 59.9178 242.815 59.4388 243.819C58.9597 244.823 57.7437 245.136 56.5277 245.09C54.5873 244.765 52.6679 244.325 50.7793 243.773L49.4528 245.44C49.4528 245.44 54.1326 246.785 54.8511 247.126C55.5697 247.467 58.3425 250.203 57.6148 251.29C56.887 252.377 56.6198 251.88 56.6198 251.88C56.8457 252.505 56.8457 253.189 56.6198 253.814C56.2053 254.68 55.7723 254.478 55.7723 254.478C55.7522 254.702 55.6802 254.918 55.5619 255.109C55.4437 255.3 55.2825 255.461 55.0911 255.579C54.8997 255.697 54.6835 255.769 54.4595 255.789C54.2356 255.809 54.0101 255.776 53.8009 255.694C52.7507 255.288 52.7323 253.289 51.4426 253.455C49.9779 253.63 49.7383 253.372 49.7383 253.372C48.3418 254.711 46.8618 255.96 45.3073 257.112C44.0689 257.889 42.6418 258.313 41.1802 258.338C41.1802 258.338 32.5576 265.606 25.2524 266.518C17.118 267.531 19.8817 258.78 23.9534 254.699C28.0252 250.618 40.8117 253.556 40.8117 253.556Z" fill="white" stroke="#032100" stroke-width="0.7" stroke-linecap="round" stroke-linejoin="round"></path><path d="M56.6385 251.889C56.6385 251.889 55.0909 249.337 54.0776 248.858C52.6712 248.409 51.2288 248.083 49.7663 247.882" stroke="#032100" stroke-width="0.7" stroke-linecap="round" stroke-linejoin="round"></path><path d="M55.7631 254.487C55.7631 254.487 53.3771 250.995 52.631 250.949C51.8848 250.903 49.4435 250.507 49.4435 250.507" stroke="#032100" stroke-width="0.7" stroke-linecap="round" stroke-linejoin="round"></path><path d="M27.2236 259.332C27.6668 256.761 28.9038 254.393 30.7611 252.561C27.9974 252.672 25.4088 253.225 23.9441 254.708C19.8723 258.789 17.1086 267.54 25.243 266.527C26.9209 266.282 28.5594 265.817 30.1162 265.145C28.4949 263.809 26.938 261.838 27.2236 259.332Z" fill="#032100" stroke="#032100" stroke-width="0.7" stroke-linecap="round" stroke-linejoin="round"></path><path d="M89.2677 201.968C89.9033 204.732 89.4243 207.191 88.2083 207.495C86.9923 207.799 85.4446 205.754 84.8458 202.991C84.2471 200.227 84.6892 197.767 85.9145 197.463C87.1397 197.159 88.6321 199.204 89.2677 201.968Z" stroke="white" stroke-width="0.7" stroke-linecap="round" stroke-linejoin="round"></path><path d="M64.0629 203.728C64.0629 206.399 63.0496 208.555 61.852 208.546C60.6544 208.536 59.724 206.353 59.7516 203.682C59.7793 201.01 60.765 198.854 61.9994 198.854C63.2338 198.854 64.0906 201.056 64.0629 203.728Z" stroke="white" stroke-width="0.7" stroke-linecap="round" stroke-linejoin="round"></path><path d="M72.5655 179.316C72.5655 179.316 69.8018 179.97 69.8018 182.079C69.8018 184.189 70.0874 184.917 68.466 185.571C66.8447 186.225 65.9787 186.759 66.2275 188.261C66.4762 189.762 67.1487 190.214 65.0852 190.564C63.0216 190.914 63.1782 189.541 62.7453 191.531C62.3123 193.521 62.2294 194.12 61.474 194.248C60.7186 194.377 61.649 200.946 63.4638 204.861C65.2786 208.776 69.5254 214.598 72.0772 214.939C74.629 215.28 77.9085 212.175 80.1931 209.531C82.2475 207.146 85.2875 199.84 85.2875 199.84L85.9415 199.149C85.9415 199.149 87.0931 199.149 87.3971 197.556C87.3971 197.556 87.176 195.096 85.9323 194.543C84.7444 193.857 83.8202 192.794 83.3069 191.522C83.2147 190.96 83.8319 190.094 82.9936 189.679C82.1553 189.265 80.7459 188.896 80.3405 187.625C79.9352 186.354 81.3262 184.382 79.6773 183.701C78.0283 183.019 77.1531 183.553 76.9136 182.245C76.6741 180.937 77.4111 179.481 76.1582 178.91C74.9053 178.339 72.5655 179.316 72.5655 179.316Z" fill="white" stroke="#032100" stroke-width="0.7" stroke-linecap="round" stroke-linejoin="round"></path><path d="M68.9088 196.634C69.1023 197.795 68.9088 198.808 68.393 198.891C67.8771 198.974 67.3612 198.09 67.1677 196.929C66.9743 195.768 67.1677 194.746 67.6836 194.672C68.1995 194.598 68.7062 195.464 68.9088 196.634Z" fill="#032100"></path><path d="M77.4665 196.754C77.4665 197.933 77.052 198.891 76.5453 198.882C76.0386 198.873 75.6702 197.961 75.6886 196.736C75.707 195.51 76.1031 194.598 76.6098 194.598C77.1165 194.598 77.485 195.566 77.4665 196.754Z" fill="#032100"></path><path d="M69.3691 205.616C69.3691 205.616 71.2115 208.048 76.4072 205.616" stroke="#032100" stroke-width="0.7" stroke-linecap="round" stroke-linejoin="round"></path><path d="M64.0362 193.493C64.0362 193.493 66.6433 190.729 69.7478 192.572" stroke="#032100" stroke-width="0.7" stroke-linecap="round" stroke-linejoin="round"></path><path d="M73.8002 192.406C73.8002 192.406 77.2364 190.038 80.9673 194.009" stroke="#032100" stroke-width="0.7" stroke-linecap="round" stroke-linejoin="round"></path><path d="M70.3651 199.822C70.1949 200.24 70.1073 200.687 70.1071 201.139C70.2203 201.66 70.524 202.12 70.9586 202.428C71.3931 202.737 71.9273 202.872 72.4563 202.807C72.7728 202.779 73.0778 202.674 73.3451 202.502C73.6123 202.331 73.8339 202.096 73.9906 201.82C74.1474 201.544 74.2347 201.233 74.2451 200.916C74.2554 200.598 74.1884 200.283 74.05 199.997" stroke="#032100" stroke-width="0.7" stroke-linecap="round" stroke-linejoin="round"></path><path d="M76.8775 283.238C75.4273 283.453 74.0517 284.019 72.8702 284.887C67.4718 288.839 68.8629 297.784 68.6786 303.661C68.4514 311.099 68.2119 318.527 67.9601 325.946C67.6008 336.871 67.435 347.825 66.7349 358.732C66.2006 367.096 63.8422 380.122 65.6386 389.021C67.435 397.92 72.0871 395.958 74.6021 387.75C77.117 379.542 73.6808 363.559 73.3676 359.948C73.1281 357.129 86.0528 314.495 89.5258 295.186C90.8063 288.047 83.4089 282.234 76.8775 283.238Z" fill="white" stroke="#032100" stroke-width="0.7" stroke-linecap="round" stroke-linejoin="round"></path><path d="M70.2908 378.777C67.914 378.234 66.348 375.304 65.3715 372.55C64.874 378.326 64.6437 384.259 65.6018 389.021C67.4442 397.911 72.0503 395.958 74.5652 387.75C75.4864 384.655 75.6062 380.454 75.3483 376.226C74.1323 377.93 72.4464 379.257 70.2908 378.777Z" fill="#032100" stroke="#032100" stroke-width="0.7" stroke-linecap="round" stroke-linejoin="round"></path><path d="M55.0262 282.575C56.4889 282.518 57.9433 282.819 59.2638 283.45C65.2886 286.343 65.5742 295.361 66.8455 301.137C68.4484 308.397 70.0544 315.653 71.6634 322.906C74.031 333.573 76.2143 344.315 78.9226 354.9C80.9954 363.016 85.712 375.388 85.5831 384.462C85.4541 393.536 80.5071 392.476 76.5367 384.867C72.5662 377.258 73.0084 360.915 72.6307 357.313C72.3359 354.55 51.7651 314.983 44.7915 296.651C42.2121 289.871 48.4211 282.796 55.0262 282.575Z" fill="white" stroke="#032100" stroke-width="0.7" stroke-linecap="round" stroke-linejoin="round"></path><path d="M79.0886 375.268C81.3272 374.291 82.3221 371.122 82.7735 368.239C84.3304 373.821 85.6477 379.616 85.5372 384.461C85.4174 393.535 80.4612 392.476 76.4908 384.867C74.9984 382.002 74.1233 377.893 73.5982 373.692C75.1919 375.129 77.0896 376.134 79.0886 375.268Z" fill="#032100" stroke="#032100" stroke-width="0.7" stroke-linecap="round" stroke-linejoin="round"></path><path d="M94.9239 247.384H38.2137V282.612H94.9239V247.384Z" fill="#56E22F" stroke="#032100" stroke-width="0.7" stroke-linecap="round" stroke-linejoin="round"></path><path d="M94.9239 281.81H38.2137V283.846H94.9239V281.81Z" fill="#56E22F" stroke="#032100" stroke-width="0.7" stroke-linecap="round" stroke-linejoin="round"></path></svg>