<svg xmlns="http://www.w3.org/2000/svg" width="471" height="365" viewBox="0 0 471 365" fill="none"><path d="M204.406 22.5788C204.406 22.5788 184.479 16.2274 169.238 31.9191C153.996 47.6107 162.029 78.9474 162.029 89.9533C162.029 100.959 148.018 170.902 148.018 170.902C148.018 170.902 141.23 196.324 159.881 212.436C178.532 228.547 213 227.146 227.712 196.137C242.424 165.127 226.825 120.916 226.825 98.0638C226.825 75.2113 230.219 59.9399 225.128 43.4232C223.582 38.5505 220.896 34.1171 217.292 30.4917C213.688 26.8662 209.27 24.1534 204.406 22.5788Z" fill="#032100" stroke="#032100" stroke-linecap="round" stroke-linejoin="round"></path><path d="M198.49 34.4565C198.49 34.4565 179.279 58.3365 166.311 65.0771" stroke="white" stroke-linecap="round" stroke-linejoin="round"></path><path d="M181.879 32.3862C181.879 32.3862 172.024 56.2506 163.197 63.0068" stroke="white" stroke-linecap="round" stroke-linejoin="round"></path><path d="M237.162 114.472C239.003 115.762 240.549 117.428 241.697 119.36C242.846 121.292 243.571 123.446 243.825 125.68C244.962 133.619 236.493 151.973 234.796 161.048C233.192 172.066 232.158 183.16 231.697 194.284C231.697 197.117 241.35 239.086 243.047 249.298C244.744 259.511 242.19 283.546 240.774 285.305C239.357 287.064 235.387 278.783 235.107 273.396C234.827 268.01 224.334 226.602 220.364 214.132C216.394 201.663 217.515 185.209 217.515 185.209C217.515 185.209 222.917 147.489 222.917 133.028C222.917 118.566 223.353 107.747 223.353 107.747L237.162 114.472Z" fill="#3BC90C" stroke="#032100" stroke-linecap="round" stroke-linejoin="round"></path><path d="M240.743 285.243C242.159 283.546 244.713 259.433 243.016 249.236C241.319 239.04 231.698 197.055 231.698 194.284C232.165 183.18 233.205 172.108 234.811 161.111C235.434 158.2 236.235 155.33 237.209 152.518C233.872 154.124 230.216 154.954 226.513 154.946C224.536 154.946 222.606 156.767 220.753 159.865C219.196 173.035 217.499 185.209 217.499 185.209C217.499 185.209 216.378 201.647 220.348 214.132C224.318 226.617 234.811 268.01 235.091 273.396C235.372 278.783 239.326 286.94 240.743 285.243Z" fill="white" stroke="#032100" stroke-linecap="round" stroke-linejoin="round"></path><path d="M183.81 344.787C184.432 337.813 185.74 323.616 186.581 318.136C187.717 310.773 189.975 295.735 189.975 295.735L195.719 344.787H235.076C236.493 334.093 240.058 305.418 240.743 285.243C241.599 260.009 222.59 207.828 222.061 203.858C221.531 199.888 222.621 188.291 222.621 184.866C222.621 181.441 232.523 159.71 233.363 148.641C234.204 137.573 236.773 134.18 236.773 134.18L238.19 115.499C237.333 115.219 224.614 105.209 211.848 101.489C204.084 99.2854 195.887 99.0925 188.028 100.928C188.028 100.928 169.596 109.148 160.239 113.117C150.883 117.087 143.192 124.746 142.958 134.662C142.725 144.578 161.095 186.843 162.808 189.972C164.52 193.101 159.118 204.138 156.845 209.82C154.572 215.502 145.216 235.911 138.988 258.592C133.648 277.958 137.214 329.999 138.381 344.787H183.81Z" fill="#3BC90C" stroke="#032100" stroke-linecap="round" stroke-linejoin="round"></path><path d="M192.652 182.142C192.652 182.142 207.193 183.886 221.749 169.922" stroke="#032100" stroke-linecap="round" stroke-linejoin="round"></path><path d="M202.74 141.481C206.991 140.344 212.393 122.8 212.953 113.693C213.265 108.603 213.576 104.804 213.436 102.002C212.907 101.831 212.362 101.644 211.879 101.489C204.115 99.2854 195.919 99.0925 188.06 100.928L180.556 104.26C179.929 108.292 180.364 112.418 181.817 116.231C184.884 124.746 198.49 142.617 202.74 141.481Z" fill="white"></path><path d="M183.747 92.2263C183.747 92.2263 185.179 108.93 186.036 113.024C186.892 117.118 195.501 133.261 200.374 132.374C205.247 131.487 208.345 110.393 208.345 108.338C208.345 106.283 208.921 89.6577 208.921 89.6577C208.921 89.6577 198.662 98.0795 183.747 92.2263Z" fill="white" stroke="#032100" stroke-linecap="round" stroke-linejoin="round"></path><path d="M155.662 115.95C155.662 115.95 144.048 116.526 137.525 129.571C131.002 142.617 138.646 151.365 141.199 156.503C143.752 161.64 150.851 182.593 153.109 188.836C155.366 195.078 159.928 202.441 167.868 212.653C175.807 222.865 192.528 244.69 192.528 244.69L197.074 252.63C197.074 252.63 204.733 261.425 205.574 261.705C206.415 261.985 211.537 268.508 213.514 264.538C215.491 260.569 213.514 246.403 213.514 246.403C213.514 246.403 216.627 252.63 217.779 251.213C218.931 249.796 217.484 246.683 216.363 243.274C215.242 239.865 204.749 233.358 202.46 233.062C200.172 232.766 197.354 229.948 193.96 223.145C190.566 216.343 187.997 204.465 182.611 197.335C177.224 190.205 170.156 179.76 170.156 179.76C170.156 179.76 162.216 151.397 162.216 150.26C162.796 144.964 162.019 139.607 159.959 134.693" fill="#3BC90C"></path><path d="M155.662 115.95C155.662 115.95 144.048 116.526 137.525 129.571C131.002 142.617 138.646 151.365 141.199 156.503C143.752 161.64 150.851 182.593 153.109 188.836C155.366 195.078 159.928 202.441 167.868 212.653C175.807 222.865 192.528 244.69 192.528 244.69L197.074 252.63C197.074 252.63 204.733 261.425 205.574 261.705C206.415 261.985 211.537 268.508 213.514 264.538C215.491 260.569 213.514 246.403 213.514 246.403C213.514 246.403 216.627 252.63 217.779 251.213C218.931 249.796 217.484 246.683 216.363 243.274C215.242 239.865 204.749 233.358 202.46 233.062C200.172 232.766 197.354 229.948 193.96 223.145C190.566 216.343 187.997 204.465 182.611 197.335C177.224 190.205 170.156 179.76 170.156 179.76C170.156 179.76 162.216 151.397 162.216 150.26C162.796 144.964 162.019 139.607 159.959 134.693" stroke="#032100" stroke-linecap="round" stroke-linejoin="round"></path><path d="M202.46 233.062C200.187 232.782 197.354 229.949 193.96 223.146C190.566 216.343 187.997 204.465 182.61 197.336C177.224 190.206 170.156 179.76 170.156 179.76C170.156 179.76 164.785 160.55 162.885 153.125C152.455 151.662 145.573 153.763 141.199 156.441C143.752 161.547 150.851 182.531 153.108 188.774C155.366 195.016 159.927 202.379 167.867 212.591C175.807 222.803 192.527 244.629 192.527 244.629L197.073 252.568C197.073 252.568 204.733 261.363 205.574 261.643C206.414 261.924 211.536 268.446 213.513 264.477C215.491 260.507 213.513 246.341 213.513 246.341C213.513 246.341 216.627 252.568 217.779 251.151C218.931 249.735 217.483 246.621 216.362 243.212C215.241 239.803 204.748 233.358 202.46 233.062Z" fill="white" stroke="#032100" stroke-linecap="round" stroke-linejoin="round"></path><path d="M183.81 344.787C184.432 337.813 185.74 323.616 186.581 318.136C187.717 310.773 189.975 295.735 189.975 295.735L195.719 344.787H235.076C236.493 334.093 240.058 305.418 240.743 285.243C241.101 274.735 238.003 259.542 234.235 245.111C200.966 252.396 163.244 247.119 143.659 243.321C142.009 248.193 140.39 253.315 138.988 258.592C133.648 277.958 137.214 329.999 138.381 344.787H183.81Z" fill="#032100" stroke="#032100" stroke-linecap="round" stroke-linejoin="round"></path><path d="M173.892 67.35C173.892 67.35 171.355 66.2136 171.355 71.304C171.355 76.3945 177.006 79.7725 177.006 79.7725L173.892 67.35Z" fill="white" stroke="#032100" stroke-linecap="round" stroke-linejoin="round"></path><path d="M203.021 39.3911C203.021 39.3911 193.96 52.1562 186.005 57.2622C181.9 59.9606 177.643 62.4192 173.255 64.6254C173.255 64.6254 177.224 81.0799 178.921 86.4194C180.618 91.759 185.709 101.193 195.922 101.753C206.135 102.313 210.681 91.5254 212.673 86.4194C213.808 83.7812 214.416 80.9468 214.464 78.0754C215.897 77.1698 217.119 75.9676 218.048 74.5497C218.978 73.1319 219.592 71.5314 219.85 69.856C220.411 64.4698 218.994 64.75 218.994 64.75C218.994 64.75 217.437 66.5091 214.059 63.8626C211.319 61.8234 202.118 47.0501 203.021 39.3911Z" fill="white" stroke="#032100" stroke-linecap="round" stroke-linejoin="round"></path><path d="M181.396 71.6308C181.396 71.6308 185.397 68.7042 191.251 71.6308" stroke="#032100" stroke-linecap="round" stroke-linejoin="round"></path><path d="M199.502 72.1602C199.502 72.1602 204.297 67.8948 209.357 71.3663" stroke="#032100" stroke-linecap="round" stroke-linejoin="round"></path><path d="M180.603 65.2327C180.603 65.2327 182.735 61.2475 189.944 63.1156" stroke="#032100" stroke-linecap="round" stroke-linejoin="round"></path><path d="M199.502 63.3803C201.133 62.1907 203.144 61.6413 205.153 61.8365C207.162 62.0316 209.029 62.9577 210.4 64.4388" stroke="#032100" stroke-linecap="round" stroke-linejoin="round"></path><path d="M198.708 80.9399C198.708 80.9399 194.443 83.8666 192.59 80.9399" stroke="#032100" stroke-linecap="round" stroke-linejoin="round"></path><path d="M190.986 87.0732C190.986 87.0732 196.311 89.1904 198.973 86.8086" stroke="#032100" stroke-linecap="round" stroke-linejoin="round"></path><path d="M101.002 240.098C101.002 240.098 113.456 267.746 116.43 273.319C119.403 278.892 122.86 294.755 123.28 304.173C123.7 313.591 123.28 315.537 121.147 315.319C119.014 315.101 118.142 303.316 118.142 301.386V298.397C118.142 298.397 117.068 309.528 115.356 311.676C113.643 313.824 111.277 316.175 111.074 314.898C110.872 313.622 111.495 311.458 112.351 308.251C112.868 305.786 113.015 303.257 112.787 300.748C112.787 300.748 111.495 306.741 108.506 308.889C105.517 311.038 102.278 311.894 103.353 310.182C104.427 308.469 107.213 306.539 107.852 304.391C108.293 302.424 108.512 300.413 108.506 298.397C108.506 298.397 104.427 305.029 102.714 306.103C101.002 307.177 101.002 304.826 102.076 303.752C103.15 302.678 105.501 295.393 105.501 295.393C105.501 295.393 104.847 294.957 101.858 288.325C98.8689 281.694 97.1875 270.096 96.2846 265.597C95.3816 261.098 93.7158 255.105 93.7158 255.105L77.2134 227.458C77.2134 227.458 75.9212 220.811 82.133 219.674C88.3447 218.538 101.002 240.098 101.002 240.098Z" fill="white"></path><path d="M101.002 240.098C101.002 240.098 113.456 267.746 116.43 273.319C119.403 278.892 122.86 294.755 123.28 304.173C123.7 313.591 123.28 315.537 121.147 315.319C119.014 315.101 118.142 303.316 118.142 301.386V298.397C118.142 298.397 117.068 309.528 115.356 311.676C113.643 313.824 111.277 316.175 111.074 314.898C110.872 313.622 111.495 311.458 112.351 308.251C112.868 305.786 113.015 303.257 112.787 300.748C112.787 300.748 111.495 306.741 108.506 308.889C105.517 311.038 102.278 311.894 103.353 310.182C104.427 308.469 107.213 306.539 107.852 304.391C108.293 302.424 108.512 300.413 108.506 298.397C108.506 298.397 104.427 305.029 102.714 306.103C101.002 307.177 101.002 304.826 102.076 303.752C103.15 302.678 105.501 295.393 105.501 295.393C105.501 295.393 104.847 294.957 101.858 288.325C98.8689 281.694 97.1875 270.096 96.2846 265.597C95.3816 261.098 93.7158 255.105 93.7158 255.105L77.2134 227.458C77.2134 227.458 75.9212 220.811 82.133 219.674C88.3447 218.538 101.002 240.098 101.002 240.098Z" stroke="#032100" stroke-linecap="round" stroke-linejoin="round"></path><path d="M116.492 281.46C116.492 281.46 118.641 291.968 118.423 296.669C118.205 301.371 119.279 303.752 117.769 303.752C116.259 303.752 115.854 302.678 114.344 297.961C113.35 294.464 112.703 290.876 112.413 287.251C112.413 287.251 107.058 287.251 105.127 279.312" fill="white"></path><path d="M116.492 281.46C116.492 281.46 118.641 291.968 118.423 296.669C118.205 301.371 119.279 303.752 117.769 303.752C116.259 303.752 115.854 302.678 114.344 297.961C113.35 294.464 112.703 290.876 112.413 287.251C112.413 287.251 107.058 287.251 105.127 279.312" stroke="#032100" stroke-linecap="round" stroke-linejoin="round"></path><path d="M20.8251 344.787H99.7252C100.114 330.029 102.699 233.638 103.477 229.326C104.333 224.656 108.568 180.601 108.988 163.243C109.409 145.886 101.78 120.869 101.78 119.173C101.78 117.476 100.519 106.89 88.6561 97.9858C76.7931 89.0814 67.4677 89.097 64.9301 90.3579C64.9301 90.3579 55.5891 96.7248 40.7681 112.401C25.9471 128.077 20.8563 140.78 20.8563 164.924C20.8675 179.537 22.1437 194.12 24.6705 208.512C24.6705 208.512 20 283.92 20 285.616C20 287.313 20.685 334.715 20.8251 344.787Z" fill="white" stroke="#032100" stroke-linecap="round" stroke-linejoin="round"></path><path d="M56.6322 174.327C58.307 174.324 59.9804 174.23 61.6452 174.047C79.7978 172.07 95.584 153.514 105.999 137.48C105.517 135.16 105.034 132.934 104.551 130.895C94.7278 146.914 78.8481 167.478 61.147 169.408C36.5024 172.086 25.3399 152.673 22.2263 146.4C21.7904 148.797 21.4634 151.319 21.2455 153.981C26.7567 162.325 37.888 174.327 56.6322 174.327Z" fill="#3BC90C"></path><path d="M50.7162 136.873L55.231 138.072C59.8847 121.128 69.0287 105.757 81.6971 93.5807C80.1888 92.7858 78.6284 92.0941 77.0266 91.5103C64.4223 104.057 55.3475 119.703 50.7162 136.873Z" fill="#3BC90C"></path><path d="M55.1532 159.212C56.2118 158.667 78.2721 147.178 101.562 117.18C101.201 115.3 100.626 113.467 99.8497 111.716C76.4039 142.851 53.285 154.9 53.0359 155.024L55.1532 159.212Z" fill="#3BC90C"></path><path d="M32.1277 142.321L36.7981 141.62C36.7981 141.496 35.4437 130.459 46.3104 106.766C44.5667 108.494 42.7452 110.362 40.8148 112.401C39.5693 113.709 38.4172 115.001 37.3119 116.293C30.9445 133.572 32.0654 141.854 32.1277 142.321Z" fill="#3BC90C"></path><path d="M70.6437 211.517C43.8039 215.004 30.1661 209.369 24.0634 205.041C24.4214 207.314 24.6705 208.575 24.6705 208.575C24.6705 208.575 24.6705 209.4 24.5304 210.894C30.5086 214.179 40.0987 217.292 54.7796 217.292C60.2887 217.269 65.7906 216.889 71.2508 216.156C83.6227 214.565 95.5151 210.362 106.139 203.827C106.326 201.865 106.497 199.857 106.669 197.818C95.8991 205.142 83.5593 209.835 70.6437 211.517Z" fill="#3BC90C"></path><path d="M69.2581 240.254C81.5959 237.117 93.3421 231.996 104.038 225.092C104.224 223.41 104.442 221.356 104.691 219.005C93.5812 226.674 81.2077 232.328 68.1372 235.708C50.0624 240.145 32.5169 235.195 23.2538 231.63C23.1604 233.187 23.0514 234.868 22.958 236.549C32.559 240.158 42.7173 242.06 52.9737 242.169C58.4586 242.18 63.9254 241.537 69.2581 240.254Z" fill="#3BC90C"></path><path d="M20.8718 270.765C20.7629 272.447 20.6695 274.034 20.5916 275.436C32.6276 278.324 44.9552 279.823 57.3328 279.903C72.5521 280.069 87.6635 277.332 101.858 271.84C101.858 270.127 101.967 268.415 102.014 266.749C70.7526 279.903 37.312 274.766 20.8718 270.765Z" fill="#3BC90C"></path><path d="M72.6675 255.354C55.9132 259.415 38.3733 258.877 21.8993 253.797C21.8059 255.432 21.6969 257.051 21.6035 258.654C30.6833 261.43 40.132 262.81 49.6264 262.748C57.754 262.739 65.8545 261.81 73.7728 259.977C83.806 257.653 93.4969 254.043 102.605 249.236C102.605 247.306 102.745 245.469 102.808 243.756C93.3569 249.021 83.21 252.926 72.6675 255.354Z" fill="#3BC90C"></path><path d="M59.5902 189.614C40.4412 190.579 28.0644 183.512 21.1988 177.69C21.3078 179.838 21.4479 181.924 21.6036 183.917C31.6859 190.973 43.7525 194.636 56.0562 194.378C57.2861 194.378 58.5471 194.378 59.8237 194.284C78.6146 193.335 95.2415 185.115 108.677 170.545C108.833 167.82 108.942 165.33 108.988 163.259V162.948C98.0127 176.569 82.0863 188.462 59.5902 189.614Z" fill="#3BC90C"></path><path d="M91.3961 100.259C90.5399 99.4962 89.6525 98.7023 88.6561 97.9862C76.7931 89.0973 67.4677 89.0973 64.9301 90.3583C59.9855 93.9767 55.3033 97.9407 50.9186 102.22C50.4732 104.13 50.4718 106.117 50.9144 108.028C51.357 109.939 52.2319 111.722 53.4718 113.242C61.5206 123.407 87.722 162.387 94.5721 153.919C101.422 145.45 99.6473 122.146 92.0189 101.8C91.832 101.271 91.583 100.757 91.3961 100.259Z" fill="#3BC90C" stroke="#032100" stroke-linecap="round" stroke-linejoin="round"></path><path d="M66.6737 145.014C66.6737 145.014 89.5591 193.739 94.214 201.367C96.2655 204.991 98.6806 208.397 101.422 211.532C101.422 211.532 121.661 218.335 139.02 224.702C156.378 231.069 186.55 239.429 192.886 241.188C199.222 242.947 209.824 242.885 211.568 242.885C213.311 242.885 233.597 247.555 234.92 248.395C236.243 249.236 234.5 250.933 231.526 251.789C228.553 252.645 218.823 253.47 214.152 255.167C209.482 256.864 205.683 256.444 198.911 254.747C193.573 253.106 188.451 250.832 183.654 247.975C183.654 247.975 128.059 244.099 114.935 242.542C101.811 240.985 86.9125 239.149 81.0433 232.377C69.2646 219.081 58.3942 205.008 48.5056 190.252C40.5346 178.203 25.9471 161.282 31.4739 145.948" fill="white"></path><path d="M66.6737 145.014C66.6737 145.014 89.5591 193.739 94.214 201.367C96.2655 204.991 98.6806 208.397 101.422 211.532C101.422 211.532 121.661 218.335 139.02 224.702C156.378 231.069 186.55 239.429 192.886 241.188C199.222 242.947 209.824 242.885 211.568 242.885C213.311 242.885 233.597 247.555 234.92 248.395C236.243 249.236 234.5 250.933 231.526 251.789C228.553 252.645 218.823 253.47 214.152 255.167C209.482 256.864 205.683 256.444 198.911 254.747C193.573 253.106 188.451 250.832 183.654 247.975C183.654 247.975 128.059 244.099 114.935 242.542C101.811 240.985 86.9125 239.149 81.0433 232.377C69.2646 219.081 58.3942 205.008 48.5056 190.252C40.5346 178.203 25.9471 161.282 31.4739 145.948" stroke="#032100" stroke-linecap="round" stroke-linejoin="round"></path><path d="M211.459 242.885C209.762 242.885 199.175 242.885 192.777 241.188C186.378 239.491 156.207 231.054 138.848 224.703C121.49 218.351 101.251 211.533 101.251 211.533C98.5094 208.398 96.0942 204.992 94.0428 201.367C92.1279 198.254 87.1149 188.089 81.8684 177.27C64.9768 181.691 56.4765 189.723 52.2886 195.95C61.1355 208.604 70.6943 220.745 80.9187 232.315C86.8502 239.087 101.671 240.783 114.811 242.48C127.95 244.177 183.451 247.991 183.451 247.991C188.249 250.848 193.371 253.122 198.708 254.763C205.481 256.46 209.295 256.88 213.95 255.183C218.605 253.486 228.366 252.646 231.324 251.805C234.282 250.964 235.994 249.252 234.718 248.411C233.441 247.571 213.218 242.885 211.459 242.885Z" fill="white"></path><path d="M211.459 242.885C209.762 242.885 199.175 242.885 192.777 241.188C186.378 239.491 156.207 231.054 138.848 224.703C121.49 218.351 101.251 211.533 101.251 211.533C98.5094 208.398 96.0942 204.992 94.0428 201.367C92.1279 198.254 87.1149 188.089 81.8684 177.27C64.9768 181.691 56.4765 189.723 52.2886 195.95C61.1355 208.604 70.6943 220.745 80.9187 232.315C86.8502 239.087 101.671 240.783 114.811 242.48C127.95 244.177 183.451 247.991 183.451 247.991C188.249 250.848 193.371 253.122 198.708 254.763C205.481 256.46 209.295 256.88 213.95 255.183C218.605 253.486 228.366 252.646 231.324 251.805C234.282 250.964 235.994 249.252 234.718 248.411C233.441 247.571 213.218 242.885 211.459 242.885Z" stroke="#032100" stroke-linecap="round" stroke-linejoin="round"></path><path d="M99.7252 344.787C99.912 337.439 100.659 309.683 101.453 283.204C90.2297 287.585 78.4603 290.413 66.4713 291.61C41.5621 294.521 27.2081 288.496 20.109 283.826C20.109 284.869 20.0156 285.523 20.0156 285.663C20.0156 287.22 20.685 334.7 20.8251 344.818L99.7252 344.787Z" fill="#032100"></path><path d="M79.8756 341.254C76.0147 326.605 85.3557 307.924 71.8735 298.226" stroke="#56E22F" stroke-linecap="round" stroke-linejoin="round"></path><path d="M79.8756 307.551L97.2187 290.894" stroke="#56E22F" stroke-linecap="round" stroke-linejoin="round"></path><path d="M36.3934 307.66L35.942 341.254" stroke="#56E22F" stroke-linecap="round" stroke-linejoin="round"></path><path d="M36.5491 295.564L36.4713 301.697" stroke="#56E22F" stroke-linecap="round" stroke-linejoin="round"></path><path d="M106.061 22.0495C112.952 23.876 119.042 27.9389 123.373 33.6003C126.311 37.3594 128.303 41.7693 129.18 46.4587C131.251 59.0681 124.152 62.9599 126.44 68.6886C128.729 74.4173 131.017 77.3906 129.18 80.146C127.343 82.9014 121.63 83.3528 120.711 83.5863C119.793 83.8199 117.956 94.3432 114.297 98.9355C110.639 103.528 97.7947 98.2506 97.7947 98.2506C97.7947 98.2506 92.5327 107.186 90.9291 110.159C89.3256 113.133 92.486 131.004 90.2286 139.021C87.9712 147.038 82.6779 138.336 72.5897 125.742C62.5014 113.148 57.9243 102.827 58.3914 99.387C58.8584 95.9466 66.8605 87.9296 68.2461 84.9563C69.6317 81.9829 70.3011 80.5975 69.6161 77.8577C68.9311 75.1178 60.9135 63.8472 60.9135 49.4476C60.9135 35.048 72.3562 21.2711 87.4885 20.1191C93.7441 19.7085 100.024 20.3612 106.061 22.0495Z" fill="white"></path><path d="M106.061 22.0495C112.952 23.876 119.042 27.9389 123.373 33.6003C126.311 37.3594 128.303 41.7693 129.18 46.4587C131.251 59.0681 124.152 62.9599 126.44 68.6886C128.729 74.4173 131.017 77.3906 129.18 80.146C127.343 82.9014 121.63 83.3528 120.711 83.5863C119.793 83.8199 117.956 94.3432 114.297 98.9355C110.639 103.528 97.7947 98.2506 97.7947 98.2506C97.7947 98.2506 92.5327 107.186 90.9291 110.159C89.3256 113.133 92.486 131.004 90.2286 139.021C87.9712 147.038 82.6779 138.336 72.5897 125.742C62.5014 113.148 57.9243 102.827 58.3914 99.387C58.8584 95.9466 66.8605 87.9296 68.2461 84.9563C69.6317 81.9829 70.3011 80.5975 69.6161 77.8577C68.9311 75.1178 60.9135 63.8472 60.9135 49.4476C60.9135 35.048 72.3562 21.2711 87.4885 20.1191C93.7441 19.7085 100.024 20.3612 106.061 22.0495Z" stroke="#032100" stroke-linecap="round" stroke-linejoin="round"></path><path d="M108.801 32.495C114.313 29.7863 118.22 29.8642 120.773 30.627C116.718 26.5125 111.64 23.5519 106.061 22.0495C100.024 20.3612 93.7441 19.7085 87.4885 20.1191C72.3561 21.2711 60.9135 35.0169 60.9135 49.4476C60.9135 63.8784 68.9311 75.1023 69.6161 77.8577C69.8617 78.7652 69.92 79.7133 69.7874 80.6442C80.6852 82.808 84.2503 77.3595 84.2503 77.3595C82.9894 77.5179 81.7095 77.4173 80.4889 77.064C79.2682 76.7106 78.1325 76.112 77.1512 75.3046C73.9285 72.5493 73.9285 62.0103 77.8362 57.2001C81.7438 52.3898 85.6203 59.037 85.6203 62.9288C85.6203 66.8205 87.4574 70.0274 89.2944 69.5759C91.1315 69.1245 90.6644 64.7657 91.3494 62.0103C92.0345 59.2549 100.052 55.1452 101.889 52.8568C103.726 50.5684 100.971 48.498 97.9971 45.0732C95.0235 41.6485 97.5612 37.9902 108.801 32.495Z" fill="#032100"></path><path d="M83.7988 78.0757C83.7988 78.0757 83.7988 84.5049 87.7065 88.6146" stroke="#032100" stroke-linecap="round" stroke-linejoin="round"></path><path d="M119.481 66.4779C117.542 65.6569 115.426 65.3409 113.332 65.5595" stroke="#032100" stroke-linecap="round" stroke-linejoin="round"></path><path d="M122.86 60.9519C122.86 60.9519 119.481 55.1142 113.021 59.7221" stroke="#032100" stroke-linecap="round" stroke-linejoin="round"></path><path d="M114.935 86.7619C113.531 86.8825 112.128 86.5232 110.954 85.7428C109.78 84.9623 108.906 83.8069 108.475 82.4653" stroke="#032100" stroke-linecap="round" stroke-linejoin="round"></path><path d="M70.4879 153.234L67.5611 147.007C48.739 147.334 37.7167 154.355 31.4894 161.017C32.1614 163.233 33.0046 165.393 34.0114 167.478C38.9154 161.111 49.424 152.782 70.4879 153.234Z" fill="#3BC90C"></path><path d="M77.011 166.917L74.0842 160.784C56.601 161.718 44.847 168.162 37.6389 174.078C38.7286 175.884 39.8963 177.658 41.0639 179.386C47.7115 173.782 59.2788 167.244 77.011 166.917Z" fill="#3BC90C"></path><path d="M279.663 208.512C281.625 214.381 282.933 235.257 282.933 246.356C282.933 255.603 277.017 322.853 275.055 344.787H363.514C364.573 323.382 367.733 259.059 367.733 250.917C367.733 241.126 364.464 201.009 368.714 186.983C372.964 172.957 377.837 136.11 370.271 124.714C362.705 113.319 334.464 106.781 325.917 103.839C317.37 100.897 304.713 99.2778 298.517 102.282C298.517 102.282 281.563 111.747 271.116 121.523C260.67 131.299 256.124 146.322 258.07 158.386C260.016 170.451 277.702 202.644 279.663 208.512Z" fill="white" stroke="#032100" stroke-linecap="round" stroke-linejoin="round"></path><path d="M356.524 114.441C352.711 112.68 348.808 111.121 344.832 109.771C330.431 146.501 307.777 179.428 278.62 206.007C279.103 207.081 279.461 207.952 279.663 208.544C280.644 212.361 281.279 216.258 281.562 220.188C314.871 191.644 340.62 155.321 356.524 114.441Z" fill="#3BC90C"></path><path d="M373.774 156.923C374.538 149.149 374.392 141.312 373.338 133.572C355.17 164.255 323.753 211.05 282.902 247.679C282.793 250.902 282.388 257.191 281.781 265.161C321.542 232.252 352.99 189.707 373.774 156.923Z" fill="#3BC90C"></path><path d="M363.514 344.787C364.261 329.547 366.083 292.575 367.064 269.582C324.017 277.817 293.753 269.987 281.734 265.769C279.897 290.007 276.456 329.049 275.055 344.787H363.514Z" fill="#032100" stroke="#032100" stroke-linecap="round" stroke-linejoin="round"></path><path d="M309.663 141.107C321.477 141.107 331.054 131.844 331.054 120.418C331.054 108.992 321.477 99.7295 309.663 99.7295C297.85 99.7295 288.273 108.992 288.273 120.418C288.273 131.844 297.85 141.107 309.663 141.107Z" fill="#3BC90C"></path><path d="M290.11 94.3586C290.11 94.3586 293.69 107.077 293.69 114.596C293.69 122.115 301.848 139.394 315.221 131.564C328.595 123.734 321.744 105.8 319.456 100.243C317.832 95.9974 316.526 91.637 315.548 87.1978C315.548 87.1978 311.298 94.9813 303.094 95.3549C298.741 95.6145 294.372 95.2794 290.11 94.3586Z" fill="white" stroke="#032100" stroke-linecap="round" stroke-linejoin="round"></path><path d="M268.049 48.1867C268.049 48.1867 265.792 53.8065 268.61 58.3054C271.428 62.8043 275.289 68.9688 275.289 68.9688L274.728 44.2638C274.728 44.2638 269.17 39.7649 268.049 48.1867Z" fill="#032100" stroke="#032100" stroke-linecap="round" stroke-linejoin="round"></path><path d="M275.289 63.3491C275.289 63.3491 270.789 65.0459 273.031 72.3314C275.273 79.6168 278.651 77.3907 278.651 77.3907L275.289 63.3491Z" fill="white" stroke="#032100" stroke-linecap="round" stroke-linejoin="round"></path><path d="M271.179 50.662C271.179 50.662 275.102 70.8993 277.406 80.9868C279.71 91.0743 292.087 100.228 298.61 102.189C305.133 104.151 313.618 96.9742 315.579 92.74C317.541 88.5057 318.506 79.0409 318.506 79.0409C318.506 79.0409 325.683 76.0987 326.29 68.5954C326.898 61.092 324.983 58.8192 321.075 57.8385L318.133 56.5308C318.133 56.5308 319.767 44.4663 315.533 36.963C311.298 29.4596 296.29 39.2513 288.459 41.5241C280.629 43.7969 270.198 43.1587 271.179 50.662Z" fill="white" stroke="#032100" stroke-linecap="round" stroke-linejoin="round"></path><path d="M290.11 65.3418C290.11 65.3418 288.553 77.0794 290.748 78.0601C292.943 79.0409 297.271 76.7525 298.252 76.4256" stroke="#032100" stroke-linecap="round" stroke-linejoin="round"></path><path d="M296.306 85.3142C296.306 85.3142 305.429 86.6218 309.025 76.1763" stroke="#032100" stroke-linecap="round" stroke-linejoin="round"></path><path d="M279.01 62.7262C279.736 61.601 280.762 60.7006 281.972 60.1259C283.182 59.5512 284.528 59.325 285.86 59.4727" stroke="#032100" stroke-linecap="round" stroke-linejoin="round"></path><path d="M294.671 57.8383C294.671 57.8383 301.194 54.5691 305.102 58.1652" stroke="#032100" stroke-linecap="round" stroke-linejoin="round"></path><path d="M285.086 71.1959C285.975 71.0413 286.445 69.474 286.136 67.6952C285.827 65.9164 284.855 64.5997 283.966 64.7543C283.076 64.9089 282.606 66.4762 282.915 68.255C283.224 70.0338 284.196 71.3505 285.086 71.1959Z" fill="#032100"></path><path d="M299.442 68.2677C300.332 68.1131 300.802 66.5458 300.493 64.767C300.184 62.9882 299.212 61.6715 298.323 61.826C297.433 61.9806 296.963 63.548 297.272 65.3268C297.581 67.1056 298.553 68.4223 299.442 68.2677Z" fill="#032100"></path><path d="M308.371 41.8507C299.715 45.9133 290.635 49.004 281.298 51.0664C266.944 53.993 260.421 50.7395 261.059 43.5631C261.698 36.3866 280.302 20.7261 297.256 20.7261C314.209 20.7261 320.094 28.5096 321.075 36.7135C321.61 43.7709 321.61 50.8586 321.075 57.9159L318.133 62.1502C318.133 62.1502 318.88 58.85 314.209 56.2036C309.539 53.5572 306.083 48.7002 308.371 41.8507Z" fill="#032100" stroke="#032100" stroke-linecap="round" stroke-linejoin="round"></path><path d="M399.15 65.1705C402.341 67.6145 398.589 77.8266 409.114 86.0149C433.338 104.851 447.349 117.601 449.934 145.59C452.767 176.102 436.374 187.964 441.464 198.129C446.555 208.295 453.328 220.157 442.585 229.264C431.843 238.37 414.345 246.216 399.664 224.749C384.983 203.282 377.059 155.833 370.847 129.79C364.635 103.746 354.469 91.3856 356.15 80.0838C357.801 69.1868 366.69 61.4033 377.323 59.5196C381.154 58.8503 385.084 59.0083 388.848 59.9829C392.613 60.9576 396.125 62.7264 399.15 65.1705Z" fill="#032100" stroke="#032100" stroke-linecap="round" stroke-linejoin="round"></path><path d="M369.975 173.626L324.702 206.738C324.702 206.738 252.201 232.641 247.935 233.965C243.67 235.288 223.337 238.884 219.072 241.172C214.806 243.461 206.617 258.561 205.294 262.172C205.018 262.677 204.914 263.257 204.996 263.826C205.078 264.395 205.342 264.923 205.748 265.329C206.155 265.736 206.682 266 207.251 266.082C207.82 266.164 208.401 266.059 208.906 265.784C209.886 264.788 219.399 255.603 222.357 255.276C225.315 254.949 227.93 254.622 227.93 254.622C227.93 254.622 220.379 261.192 220.052 263.153C219.726 265.114 221.376 264.461 223.337 263.48C225.299 262.499 232.85 259.868 235.792 254.622C238.734 249.376 241.365 246.418 246.285 244.457C251.205 242.495 315.408 228.578 326.898 226.617C338.387 224.655 379.721 199.826 381.698 199.499C383.675 199.172 376.218 173.626 369.975 173.626Z" fill="white" stroke="#032100" stroke-linecap="round" stroke-linejoin="round"></path><path d="M361.132 215.969C361.537 217.184 360.323 234.261 359.498 263.947C358.875 286.722 353.473 327.197 350.982 344.787H437.526C438.148 326.948 438.927 286.146 433.914 269.225C427.406 247.275 420.089 242.76 417.661 233.047C415.232 223.333 411.558 169.611 405.455 149.28C399.352 128.949 381.06 116.745 378.211 112.277C375.362 107.809 366.41 81.7808 366.41 81.7808L350.966 94.7949C350.966 94.7949 362.347 113.086 363.981 118.784C365.616 124.481 352.99 137.885 346.498 151.724C340.006 165.563 338.714 176.522 344.459 185.053C350.203 193.584 360.727 214.74 361.132 215.969Z" fill="#3BC90C"></path><mask id="mask0_849_2985" style="mask-type:luminance" maskUnits="userSpaceOnUse" x="339" y="80" width="100" height="266"><path d="M360.657 216.126L360.658 216.127C360.656 216.123 360.662 216.142 360.67 216.198C360.678 216.251 360.685 216.323 360.691 216.415C360.703 216.6 360.71 216.849 360.712 217.165C360.716 217.797 360.699 218.672 360.664 219.788C360.595 221.979 360.46 225.078 360.286 229.04L360.277 229.259C359.92 237.392 359.41 249.086 358.998 263.933L358.998 263.934C358.376 286.675 352.978 327.12 350.487 344.717L350.406 345.287H350.982H437.526H438.009L438.025 344.805C438.337 335.88 438.688 321.209 438.333 306.649C437.979 292.11 436.921 277.616 434.393 269.083L433.914 269.225L434.393 269.083C431.126 258.061 427.651 251.409 424.69 246.297C424.196 245.443 423.718 244.636 423.259 243.86C420.961 239.977 419.14 236.901 418.146 232.925C417.548 230.536 416.867 225.395 416.084 218.661C415.701 215.37 415.297 211.726 414.868 207.855C414.419 203.8 413.942 199.496 413.432 195.087C411.449 177.915 409.001 159.353 405.934 149.136C402.852 138.868 396.697 130.668 390.98 124.49C388.222 121.51 385.56 118.994 383.392 116.945C383.312 116.87 383.233 116.795 383.155 116.721C382.048 115.675 381.083 114.759 380.306 113.966C379.524 113.168 378.958 112.52 378.632 112.008C377.949 110.937 376.873 108.519 375.628 105.44C374.391 102.378 373.007 98.7117 371.711 95.181C370.415 91.651 369.208 88.2601 368.325 85.7514C367.883 84.4972 367.522 83.4637 367.272 82.7438C367.147 82.3838 367.05 82.1023 366.984 81.9108L366.908 81.6926L366.889 81.6369L366.884 81.6228L366.883 81.6193L366.883 81.6184C366.883 81.6182 366.883 81.6181 366.41 81.7808L366.883 81.6181L366.645 80.9284L366.088 81.3984L350.644 94.4125L350.313 94.6915L350.542 95.059L350.966 94.7949C350.542 95.059 350.542 95.0591 350.542 95.0592L350.542 95.0598L350.544 95.0622L350.55 95.072L350.574 95.1112L350.669 95.2648C350.753 95.3998 350.875 95.5986 351.032 95.8539C351.346 96.3643 351.797 97.1001 352.342 98.001C353.433 99.8028 354.905 102.264 356.428 104.903C357.95 107.542 359.522 110.355 360.814 112.861C362.111 115.379 363.107 117.55 363.501 118.922C363.855 120.156 363.45 121.911 362.398 124.178C361.36 126.416 359.75 129.032 357.868 131.928C357.208 132.944 356.515 133.993 355.804 135.071C352.474 140.114 348.736 145.777 346.045 151.512C339.535 165.391 338.145 176.572 344.044 185.332C346.899 189.572 350.954 196.97 354.355 203.481C356.053 206.732 357.584 209.755 358.716 212.041C359.282 213.185 359.747 214.143 360.083 214.852C360.428 215.579 360.619 216.009 360.657 216.126Z" fill="white" stroke="white"></path></mask><g mask="url(#mask0_849_2985)"><path d="M374.365 299.518L388.548 302.632L402.731 299.518L416.913 302.632L431.096 299.518L437.666 300.951L437.526 297.744L431.096 296.327L416.913 299.441L402.731 296.327L388.548 299.441L374.365 296.327L360.198 299.441L356.789 298.693C356.68 299.736 356.571 300.764 356.446 301.807L360.198 302.632L374.365 299.518Z" fill="white"></path><path d="M390.027 192.977L375.844 196.09L361.662 192.977L350.577 195.406L352.134 198.254L361.677 196.168L375.86 199.282L390.042 196.168L404.225 199.282L413.192 197.305C413.068 196.277 412.959 195.234 412.834 194.191L404.225 196.09L390.027 192.977Z" fill="white"></path><path d="M374.365 323.227L388.548 326.341L402.731 323.227L416.913 326.341L431.096 323.227L437.962 324.784C437.962 323.741 437.962 322.682 437.962 321.67L431.081 320.114L416.898 323.227L402.715 320.114L388.532 323.227L374.35 320.114L360.183 323.227L354.049 321.873C353.924 322.931 353.784 323.959 353.659 324.986L360.183 326.418L374.365 323.227Z" fill="white"></path><path d="M437.837 333.392L431.096 331.914L416.913 335.027L402.731 331.914L388.548 335.027L374.365 331.914L360.198 335.027L352.554 333.346C352.414 334.404 352.274 335.447 352.149 336.459L360.198 338.218L374.365 335.105L388.548 338.218L402.731 335.105L416.913 338.218L431.096 335.105L437.775 336.584C437.79 335.541 437.822 334.482 437.837 333.392Z" fill="white"></path><path d="M342.341 162.574L347.479 163.695L361.662 160.582L375.844 163.695L390.027 160.582L404.21 163.695L408.46 162.761C408.273 161.718 408.086 160.691 407.899 159.648L404.21 160.457L390.027 157.344L375.844 160.457L361.662 157.344L347.479 160.457L343.275 159.539C342.933 160.587 342.622 161.599 342.341 162.574Z" fill="white"></path><path d="M390.027 169.252L375.844 172.366L361.662 169.252L347.479 172.366L340.878 170.918C340.816 171.981 340.816 173.047 340.878 174.109L347.479 175.557L361.662 172.444L375.844 175.557L390.027 172.444L404.21 175.557L410.281 174.218C410.126 173.175 409.986 172.148 409.83 171.105L404.21 172.335L390.027 169.252Z" fill="white"></path><path d="M390.027 181.115L375.844 184.228L361.662 181.115L347.479 184.228L343.431 183.341C343.742 183.917 344.085 184.493 344.459 185.053C344.832 185.614 345.284 186.314 345.72 187.03L347.479 187.419L361.662 184.306L375.844 187.419L390.027 184.306L404.21 187.419L411.807 185.754C411.682 184.711 411.542 183.683 411.418 182.64L404.21 184.197L390.027 181.115Z" fill="white"></path><path d="M374.365 311.381L388.548 314.494L402.731 311.381L416.913 314.494L431.096 311.381L437.946 312.937V309.746L431.143 308.189L416.96 311.303L402.777 308.189L388.595 311.303L374.412 308.189L360.245 311.303L355.574 310.26L355.201 313.373L360.292 314.494L374.365 311.381Z" fill="white"></path></g><path d="M361.132 215.969C361.537 217.184 360.323 234.261 359.498 263.947C358.875 286.722 353.473 327.197 350.982 344.787C350.982 344.787 378.166 344.787 395.584 344.787C411.963 344.787 437.526 344.787 437.526 344.787C438.148 326.948 438.927 286.146 433.914 269.225C427.406 247.275 420.089 242.76 417.661 233.047C415.232 223.333 411.558 169.611 405.455 149.28C399.352 128.949 381.06 116.745 378.211 112.277C375.362 107.809 366.41 81.7808 366.41 81.7808L350.966 94.7949C350.966 94.7949 362.347 113.086 363.981 118.784C365.616 124.481 352.99 137.885 346.498 151.724C340.006 165.563 338.714 176.522 344.459 185.053C350.203 193.584 360.727 214.74 361.132 215.969Z" stroke="#032100" stroke-linecap="round" stroke-linejoin="round"></path><path d="M350.951 189.708C350.951 189.708 356.181 200.184 373.649 196.106" stroke="#032100" stroke-linecap="round" stroke-linejoin="round"></path><path d="M398.667 257.207C398.667 257.207 372.482 289.213 360.836 314.805" stroke="#032100" stroke-linecap="round" stroke-linejoin="round"></path><path d="M370.738 283.406C370.738 283.406 359.669 303.768 356.727 316.564" stroke="#032100" stroke-linecap="round" stroke-linejoin="round"></path><path d="M355.948 148.564C364.401 143.894 375.19 123.656 379.892 119.92L383.099 117.352C381.307 115.824 379.67 114.124 378.21 112.277C375.361 107.809 366.41 81.7808 366.41 81.7808L350.966 94.7949C350.966 94.7949 362.346 113.086 363.981 118.784C365.413 123.812 355.745 134.88 348.989 146.914C349.783 149.14 351.651 150.946 355.948 148.564Z" fill="white" stroke="#032100" stroke-linecap="round" stroke-linejoin="round"></path><path d="M337.328 50.4749C335.525 54.7487 334.624 59.3489 334.682 63.9871C334.962 68.0969 335.849 71.3504 334.199 75.4134C333.234 77.7485 329.965 80.7218 330.416 83.4149C330.821 85.8434 336.924 86.6684 336.924 86.6684C336.924 86.6684 343.026 105.769 346.264 106.174C349.503 106.579 356.835 104.617 366.176 96.8338C375.517 89.0502 364.152 61.0294 356.01 53.7284C347.868 46.4274 341.392 45.5868 337.328 50.4749Z" fill="white" stroke="#032100" stroke-linecap="round" stroke-linejoin="round"></path><path d="M340.099 75.9583C340.684 75.9583 341.158 74.6201 341.158 72.9694C341.158 71.3187 340.684 69.9805 340.099 69.9805C339.515 69.9805 339.041 71.3187 339.041 72.9694C339.041 74.6201 339.515 75.9583 340.099 75.9583Z" fill="#032100"></path><path d="M337.282 66.1044C337.282 66.1044 338.34 61.8701 342.575 65.0458" stroke="#032100" stroke-linecap="round" stroke-linejoin="round"></path><path d="M339.399 90.7628C339.399 90.7628 342.217 91.4789 345.393 87.6494" stroke="#032100" stroke-linecap="round" stroke-linejoin="round"></path><path d="M346.28 28.9145C346.28 28.9145 331.226 29.3348 328.781 39.0798C326.337 48.8249 337.328 57.3868 345.05 61.4498C352.772 65.5128 359.684 72.0199 359.684 78.9317C359.684 85.8435 360.105 93.9851 365.787 101.302C371.47 108.618 384.469 114.721 394.666 114.316C404.864 113.911 393.857 89.9843 399.539 72.8605C405.222 55.7367 397.982 38.7062 386.524 31.3897C375.066 24.0731 346.28 28.9145 346.28 28.9145Z" fill="#032100" stroke="#032100" stroke-linecap="round" stroke-linejoin="round"></path><path d="M438.195 176.553C438.059 178.686 437.726 180.802 437.199 182.874" stroke="white" stroke-linecap="round" stroke-linejoin="round"></path><path d="M342.824 54.1802C345.626 58.8503 350.935 63.8318 360.914 66.6339C382.71 72.8607 391.008 87.9141 391.008 100.882C391.008 113.849 392.051 123.189 412.803 133.573C418.922 136.632 424.284 141.012 428.503 146.396C432.722 151.781 435.692 158.035 437.199 164.707" stroke="white" stroke-linecap="round" stroke-linejoin="round"></path><path d="M339.632 43.7969C339.636 44.7009 339.725 45.6025 339.897 46.49" stroke="white" stroke-linecap="round" stroke-linejoin="round"></path><path d="M368.698 43.7969C368.698 43.7969 394.651 56.7799 394.121 74.4174C393.592 92.055 395.164 108.665 411.246 118.519C427.329 128.373 443.94 134.616 449.653 154.323" stroke="white" stroke-linecap="round" stroke-linejoin="round"></path><path d="M383.177 138.243C383.177 138.243 376.28 140.858 372.684 154.308C369.088 167.758 383.831 191.373 386.135 201.881C388.439 212.389 390.727 228.439 390.727 228.439C390.727 228.439 339.212 270.47 331.677 276.992C324.142 283.515 320.188 287.812 320.188 287.812C320.188 287.812 301.506 304.219 299.855 307.504C298.205 310.789 293.628 327.835 295.263 328.488C296.897 329.142 299.855 321.935 299.855 320.627C299.855 319.319 303.125 312.096 303.125 312.096C303.125 312.096 300.509 328.784 300.509 329.718C300.509 330.652 303.125 329.718 303.452 328.395C303.779 327.072 307.39 313.311 307.39 313.311C307.39 313.311 305.429 328.722 306.737 330.434C308.044 332.147 310.348 320.596 310.348 320.596L312.964 311.411C312.964 311.411 312.31 327.477 313.633 328.13C314.957 328.784 317.899 312.392 317.899 312.392C317.899 312.392 323.799 300.577 326.088 296.638C327.393 294.495 328.389 292.179 329.046 289.757C329.046 289.757 359.56 273.023 378.584 263.838C397.609 254.654 413.691 237.592 415.652 234.65C417.614 231.708 413.348 190.361 410.079 172.646C406.81 154.931 399.913 133.572 383.177 138.243Z" fill="white" stroke="#032100" stroke-linecap="round" stroke-linejoin="round"></path><path d="M276.596 117.103C276.596 117.103 264.858 125.089 255.47 132.67C246.083 140.251 247.484 155.211 247.484 158.496C247.484 161.78 247.017 176.802 247.017 176.802L239.964 191.825C239.964 191.825 229.175 201.694 226.825 204.045C224.474 206.396 210.867 233.14 210.867 233.14L207.582 237.81L225.47 240.114C232.149 232.668 239.537 225.89 247.531 219.877C259.222 211.408 269.061 188.058 269.544 185.178C271.528 177.311 272.928 169.308 273.732 161.235" fill="white"></path><path d="M276.596 117.103C276.596 117.103 264.858 125.089 255.47 132.67C246.083 140.251 247.484 155.211 247.484 158.496C247.484 161.78 247.017 176.802 247.017 176.802L239.964 191.825C239.964 191.825 229.175 201.694 226.825 204.045C224.474 206.396 210.867 233.14 210.867 233.14L207.582 237.81L225.47 240.114C232.149 232.668 239.537 225.89 247.531 219.877C259.222 211.408 269.061 188.058 269.544 185.178C271.528 177.311 272.928 169.308 273.732 161.235" stroke="#032100" stroke-linecap="round" stroke-linejoin="round"></path><path d="M270.618 180.165C262.725 167.213 251.936 168.894 247.141 170.513C247.032 173.938 246.954 176.74 246.954 176.74L239.902 191.762C239.902 191.762 229.113 201.632 226.762 203.982C224.411 206.333 210.805 233.077 210.805 233.077L207.52 237.748L225.47 240.114C232.148 232.667 239.537 225.889 247.53 219.876C259.222 211.408 269.061 188.057 269.544 185.177C269.715 184.228 270.151 182.484 270.618 180.165Z" fill="white" stroke="#032100" stroke-linecap="round" stroke-linejoin="round"></path><path d="M217.562 226.975C217.562 226.975 205.901 236.502 203.55 239.522C201.199 242.542 199.362 260.304 200.296 261.596C201.23 262.888 207.753 266.36 210.556 263.324C213.358 260.289 223.618 245.656 223.618 245.656C223.618 245.656 215.833 256.179 221.391 255.587C226.949 254.996 230.141 246.434 233.41 242.542C236.679 238.65 236.212 238.215 233.41 232.595L230.623 226.975" fill="white"></path><path d="M217.562 226.975C217.562 226.975 205.901 236.502 203.55 239.522C201.199 242.542 199.362 260.304 200.296 261.596C201.23 262.888 207.753 266.36 210.556 263.324C213.358 260.289 223.618 245.656 223.618 245.656C223.618 245.656 215.833 256.179 221.391 255.587C226.949 254.996 230.141 246.434 233.41 242.542C236.679 238.65 236.212 238.215 233.41 232.595L230.623 226.975" stroke="#032100" stroke-linecap="round" stroke-linejoin="round"></path><path d="M200.312 261.581C200.312 261.581 206.243 241.344 208.61 239.787" stroke="#032100" stroke-linecap="round" stroke-linejoin="round"></path><path d="M203.099 263.06C203.099 263.06 209.98 244.037 213.529 240.098" stroke="#032100" stroke-linecap="round" stroke-linejoin="round"></path><path d="M206.789 264.414C206.789 264.414 214.246 245.734 219.134 241.204" stroke="#032100" stroke-linecap="round" stroke-linejoin="round"></path><path d="M223.618 245.656C223.618 245.656 227.587 242.138 228.195 240.021Z" fill="white"></path><path d="M223.618 245.656C223.618 245.656 227.587 242.138 228.195 240.021" stroke="#032100" stroke-linecap="round" stroke-linejoin="round"></path></svg>