<svg xmlns="http://www.w3.org/2000/svg" width="309" height="91" viewBox="0 0 309 91" fill="none"><path d="M50.9064 24.2716H46.8091V57.3376H60.4645V49.0702H65.9252V57.3376H79.5806V49.0702H74.1199V43.561H79.5806V20.1416H50.9028V24.2753L50.9064 24.2716ZM59.1012 28.4053H67.2959V42.1819H59.1012V28.4053Z" fill="white"></path><path d="M95.97 28.4053H115.09V20.1416H89.1423V24.2716H85.0449V53.2039H89.1423V57.3376H117.82V49.0702H95.97V28.4053Z" fill="white"></path><path d="M127.379 31.1599H123.281V57.3376H156.056V49.0702H134.206V43.561H150.592V35.2936H134.206V28.4053H156.056V20.1416H127.379V31.1599Z" fill="white"></path><path d="M242.086 24.2716H237.989V57.3376H251.644V49.0702H257.105V57.3376H270.76V49.0702H265.3V43.561H270.76V20.1416H242.082V24.2753L242.086 24.2716ZM250.281 28.4053H258.476V42.1819H250.281V28.4053Z" fill="white"></path><path d="M304.902 24.2717V20.1379H280.322V24.2717H276.225V57.3376H289.88V49.0702H295.341V57.3376H308.996V24.2717H304.899H304.902ZM296.708 42.1819H288.513V28.4054H296.708V42.1819Z" fill="white"></path><path d="M123.281 16.0078H117.82V28.4052H123.281V16.0078Z" fill="white"></path><path d="M165.614 24.2716H161.517V43.561H183.367V49.0702H161.517V57.3376H190.195V53.2039H194.292V35.2936H172.442V28.4053H194.292V20.1416H165.614V24.2716Z" fill="white"></path><path d="M199.753 28.4053H210.678V57.3376H221.603V28.4053H232.528V20.1416H199.753V28.4053Z" fill="white"></path><path d="M16.6576 37.7035C16.8046 37.8073 16.8965 37.9779 16.9001 38.1595L17.2419 50.3938C17.2419 50.6274 17.1206 50.8239 16.9075 50.9166C16.6907 51.013 16.4592 50.9685 16.2901 50.8053L7.37514 42.0782C7.27225 41.9781 7.21345 41.8446 7.2061 41.6963L6.19922 23.9121L9.2309 29.0691V31.8162C9.2309 32.2463 9.44036 32.6467 9.78946 32.8913L16.6613 37.7072L16.6576 37.7035Z" fill="white"></path><path d="M16.4594 23.2076C15.9597 22.722 15.1733 22.7182 14.6662 23.2002L9.6354 28.0012C9.59498 28.0383 9.56558 28.0828 9.52884 28.1236L6.11865 22.3216C6.126 22.2029 6.16275 22.088 6.23624 21.9953L7.45259 20.4901C7.61428 20.5012 7.81272 20.5087 8.0479 20.5087C9.29732 20.5087 11.436 20.264 12.7075 18.7514C13.7769 17.4797 13.9937 15.6038 13.3616 13.1755L15.2688 10.8139C15.7282 10.7101 17.9367 10.5989 20.0056 10.5396L24.3087 30.8522L16.4594 23.2076Z" fill="white"></path><path d="M24.915 30.1924L20.7368 10.4581C20.7368 10.4581 20.7625 10.4432 20.7772 10.4358C20.8434 10.4099 20.9022 10.3765 20.9647 10.3394C20.994 10.3209 21.0198 10.3098 21.0492 10.2912C21.1337 10.2319 21.2109 10.1652 21.2807 10.0836L24.9113 5.85352L28.553 10.0947C28.6229 10.1763 28.7 10.243 28.7846 10.3024C28.8103 10.3209 28.8397 10.3357 28.8691 10.3543C28.9279 10.3913 28.9903 10.4247 29.0528 10.4506C29.0675 10.4581 29.0822 10.4655 29.0969 10.4729L24.9187 30.1961L24.915 30.1924Z" fill="white"></path><path d="M42.6308 41.7112C42.6235 41.8558 42.5647 41.9892 42.4618 42.0893L33.5468 50.8165C33.4182 50.9425 33.2565 50.9944 33.0948 50.9759C33.0397 50.9685 32.9846 50.9536 32.9295 50.9314C32.7127 50.835 32.5877 50.6385 32.5914 50.4012L32.9368 38.1595C32.9405 37.9779 33.0324 37.8073 33.1793 37.7072L40.0512 32.8913C40.4003 32.6467 40.6097 32.2463 40.6097 31.8162V29.0691L43.6414 23.9121L42.6345 41.7149L42.6308 41.7112Z" fill="white"></path><path d="M43.5974 22.0064C43.6709 22.0954 43.7076 22.2103 43.715 22.3252L40.3011 28.131C40.2681 28.0902 40.2387 28.0494 40.1982 28.0123L35.1675 23.2113C34.9176 22.9703 34.5942 22.8517 34.2745 22.8517C33.9548 22.8517 33.6241 22.974 33.3742 23.2187L25.5249 30.867L29.8317 10.5432H34.0724C34.2414 10.5432 34.4031 10.6211 34.5097 10.7508L36.5272 13.2496C35.9208 15.6408 36.145 17.4908 37.1996 18.7476C38.4711 20.2602 40.6098 20.5049 41.8592 20.5049C42.0577 20.5049 42.2341 20.4975 42.3811 20.4901L43.6048 22.0027L43.5974 22.0064Z" fill="white"></path><path d="M37.7581 18.2731C39.2059 19.997 42.1751 19.7783 42.6308 19.7338C47.1838 16.2785 49.6239 12.6527 49.8811 8.96391C50.1604 4.95996 47.7534 1.84948 46.4783 0.5C47.3198 6.48739 38.471 12.4748 37.284 13.2459C36.6777 15.4852 36.8394 17.1757 37.7581 18.2694V18.2731Z" fill="white"></path><path d="M12.1449 18.2731C10.697 19.997 7.72781 19.7783 7.27214 19.7338C2.7191 16.2748 0.27906 12.6527 0.0218269 8.96021C-0.257455 4.95996 2.15319 1.84948 3.42466 0.5C2.58314 6.48739 11.432 12.4748 12.6189 13.2459C13.2253 15.4852 13.0636 17.1757 12.1449 18.2694V18.2731Z" fill="white"></path><path d="M16.904 50.8498C17.1171 50.7571 17.242 50.5607 17.242 50.3271L16.9003 38.0928C16.8966 37.9074 16.8047 37.7406 16.6578 37.6368L9.78594 32.8209C9.43684 32.5762 9.22738 32.1758 9.22738 31.7458V28.9986L8.56592 27.8716V43.1793L16.2866 50.7386C16.4556 50.9054 16.6872 50.9462 16.904 50.8498Z" fill="white"></path><path d="M22.8018 20.1416L24.5546 28.4053H25.2786L27.0314 20.1416H22.8018Z" fill="white"></path><path d="M16.4593 23.1409L21.8649 28.409H23.8015L22.0523 20.1416H12.6633V24.2753H8.56592V26.4182L9.52871 28.0568C9.56178 28.016 9.59485 27.9716 9.63527 27.9345L14.666 23.1334C15.1731 22.6515 15.9595 22.6552 16.4593 23.1409Z" fill="white"></path><path d="M34.2784 22.7813C34.5981 22.7813 34.9215 22.8999 35.1714 23.1409L40.2021 27.9419C40.2389 27.979 40.2719 28.0198 40.305 28.0606L41.3413 26.2959V24.2717H37.2439V20.1379H27.7851L26.0322 28.4054H27.9799L33.3744 23.1483C33.6243 22.9036 33.9513 22.7813 34.2747 22.7813H34.2784Z" fill="white"></path><path d="M34.0578 51.2798C33.8079 51.5244 33.4882 51.6542 33.1611 51.6542C32.9847 51.6542 32.8083 51.6171 32.6356 51.543C32.1432 51.328 31.8456 50.8571 31.8566 50.3158L32.202 38.0741C32.2094 37.6589 32.4188 37.2696 32.7606 37.0286L39.6324 32.2128C39.783 32.1053 39.8749 31.931 39.8749 31.7456V28.8984C39.8749 28.7427 39.8124 28.5907 39.6985 28.4869L34.6678 23.6858C34.4473 23.4782 34.1092 23.4782 33.8887 23.6895L29.0417 28.4127H29.0527L29.027 49.0516H20.858V28.4609L15.9485 23.6784C15.7317 23.4671 15.39 23.4634 15.1695 23.6747L10.1387 28.4758C10.0285 28.5833 9.96233 28.7316 9.96233 28.8873V31.7345C9.96233 31.9199 10.0542 32.0941 10.2049 32.2017L17.0767 37.0175C17.4148 37.2548 17.6242 37.6478 17.6352 38.063L17.977 50.301C17.977 50.3715 17.977 50.4382 17.966 50.5049C17.9108 50.9646 17.6316 51.3539 17.1979 51.543C17.0252 51.6171 16.8452 51.6542 16.6724 51.6542C16.3454 51.6542 16.0294 51.5282 15.7758 51.2798L8.56592 44.2209V53.2039H12.6633V57.3376H37.2438V53.2039H41.3411V44.1505L34.0614 51.2761L34.0578 51.2798Z" fill="white"></path><path d="M32.9368 38.0852L32.5914 50.3269C32.5877 50.5642 32.7127 50.7607 32.9295 50.8571C32.9846 50.8793 33.0397 50.8979 33.0948 50.9016C33.2602 50.9238 33.4182 50.8682 33.5468 50.7422L41.341 43.1124V27.7454L40.6097 28.991V31.7382C40.6097 32.1682 40.4003 32.5686 40.0512 32.8133L33.1793 37.6292C33.0324 37.733 32.9405 37.9035 32.9368 38.0815V38.0852Z" fill="white"></path><path d="M131.408 90.5H126.322C125.995 90.5 125.72 90.3888 125.492 90.1626C125.264 89.9365 125.15 89.6547 125.15 89.3174C125.15 88.98 125.264 88.7093 125.492 88.4869C125.72 88.2607 125.995 88.1495 126.322 88.1495H131.408C131.717 88.1495 132.004 88.0309 132.276 87.7973L133.073 87.1078C133.345 86.9001 133.477 86.6295 133.477 86.2884V82.6812C132.378 83.8008 131.305 84.3569 130.262 84.3569H128.457C127.528 84.3569 126.686 84.0344 125.944 83.3856L125.062 82.5959C124.772 82.3512 124.525 81.9953 124.316 81.5245C124.107 81.0536 124 80.5939 124 80.1416V76.2229C124 75.6668 124.107 75.1404 124.316 74.6436C124.525 74.1468 124.775 73.7761 125.062 73.5314L126.025 72.7009C126.716 72.1003 127.524 71.8 128.457 71.8H130.148C131.07 71.8 131.908 72.13 132.661 72.7862L133.474 73.4758L133.444 73.0124C133.444 72.6935 133.562 72.4155 133.793 72.1819C134.025 71.9483 134.3 71.8297 134.616 71.8297C134.932 71.8297 135.223 71.9446 135.462 72.1745C135.7 72.4043 135.818 72.6861 135.818 73.0124V86.2921C135.818 87.2968 135.418 88.1569 134.616 88.8725L133.665 89.7029C133.422 89.9179 133.08 90.107 132.639 90.2664C132.198 90.4259 131.783 90.5074 131.401 90.5074L131.408 90.5ZM130.067 74.1616H128.487C128.141 74.1616 127.811 74.2988 127.495 74.5694L126.767 75.1775C126.488 75.411 126.348 75.7336 126.348 76.1377V80.086C126.348 80.4048 126.503 80.7051 126.808 80.9869L127.576 81.6765C127.818 81.8841 128.075 81.9879 128.344 81.9879H130.258C130.537 81.9879 130.846 81.847 131.18 81.5652L133.04 79.9711C133.33 79.719 133.474 79.4076 133.474 79.0405V77.2499C133.474 76.8161 133.312 76.4639 132.985 76.1933L131.07 74.5435C130.798 74.2914 130.464 74.1616 130.063 74.1616H130.067Z" fill="white"></path><path d="M144.814 76.8827H149.418C149.668 76.8827 150.032 76.9383 150.51 77.0533L150.484 75.3775C150.484 75.0476 150.37 74.7695 150.142 74.5397C149.915 74.3098 149.635 74.1949 149.308 74.1949H144.84C144.524 74.1949 144.248 74.0763 144.013 73.8427C143.781 73.6091 143.664 73.3311 143.664 73.0122C143.664 72.6934 143.778 72.4042 144.006 72.1744C144.233 71.9445 144.513 71.8296 144.84 71.8296H149.305C150.275 71.8296 151.102 72.1744 151.789 72.8602C152.476 73.5461 152.832 74.3877 152.858 75.385L153.152 84.253C153.152 84.5829 153.034 84.861 152.803 85.0908C152.571 85.3207 152.296 85.4356 151.98 85.4356C151.645 85.4356 151.359 85.3207 151.127 85.0908C150.896 84.861 150.778 84.5792 150.778 84.253L148.79 85.4356H144.818C143.829 85.4356 142.988 85.0871 142.3 84.3939C141.613 83.7006 141.264 82.8516 141.264 81.858V80.4752C141.264 79.489 141.613 78.6437 142.308 77.943C143.002 77.2423 143.84 76.8939 144.818 76.8939L144.814 76.8827ZM150.683 81.491L150.613 80.49C150.602 80.1526 150.488 79.8709 150.264 79.6447C150.039 79.4186 149.764 79.3074 149.437 79.3074H144.807C144.48 79.3074 144.204 79.4223 143.972 79.6521C143.741 79.882 143.631 80.1637 143.631 80.49V81.8135C143.631 82.1324 143.748 82.4104 143.98 82.644C144.211 82.8775 144.487 82.9962 144.807 82.9962H148.121L150.683 81.4873V81.491Z" fill="white"></path><path d="M158.308 84.2418V73.0048C158.308 72.6748 158.422 72.3968 158.649 72.1669C158.877 71.9371 159.153 71.8221 159.48 71.8221C160.086 71.8221 160.468 72.1224 160.626 72.723C161.277 72.1039 162.004 71.7925 162.802 71.7925C163.743 71.7925 164.514 72.1966 165.117 73.0048C165.859 72.1966 166.679 71.7925 167.572 71.7925C168.296 71.7925 168.928 72.052 169.461 72.5747C169.997 73.0975 170.28 73.7611 170.32 74.5693L170.655 84.2381C170.655 84.5569 170.537 84.835 170.306 85.0686C170.074 85.3021 169.799 85.4208 169.483 85.4208C169.167 85.4208 168.876 85.3021 168.645 85.0686C168.413 84.835 168.292 84.5569 168.281 84.2381L168.002 74.9474C167.983 74.4395 167.829 74.1874 167.542 74.1874C167.384 74.1874 167.223 74.2579 167.054 74.3988L165.657 75.5814V84.2381C165.657 84.5569 165.543 84.8313 165.315 85.0574C165.088 85.2836 164.808 85.3948 164.485 85.3948C164.162 85.3948 163.893 85.2799 163.662 85.05C163.43 84.8202 163.313 84.5384 163.313 84.2122V74.7954C163.313 74.3913 163.14 74.1874 162.798 74.1874C162.633 74.1874 162.478 74.2468 162.339 74.3691L160.656 75.8076V84.2381C160.656 84.5569 160.546 84.835 160.321 85.0686C160.097 85.3021 159.829 85.4208 159.509 85.4208C159.19 85.4208 158.903 85.3021 158.664 85.0686C158.425 84.835 158.308 84.5569 158.308 84.2381V84.2418Z" fill="white"></path><path d="M185.361 85.3949H178.206C177.879 85.3949 177.604 85.28 177.376 85.0501C177.148 84.8202 177.034 84.5385 177.034 84.2122C177.034 83.886 177.148 83.6154 177.376 83.3818C177.604 83.1482 177.879 83.0296 178.206 83.0296H180.61V74.1912H178.236C177.909 74.1912 177.633 74.0726 177.405 73.839C177.177 73.6055 177.064 73.3274 177.064 73.0086C177.064 72.6897 177.177 72.3969 177.405 72.1559C177.633 71.9149 177.909 71.7963 178.236 71.7963H181.811C182.138 71.7963 182.414 71.9149 182.642 72.1559C182.87 72.3969 182.984 72.6786 182.984 73.0086V83.0333H185.332C185.659 83.0333 185.938 83.1482 186.177 83.3781C186.416 83.6079 186.533 83.8897 186.533 84.2159C186.533 84.5422 186.416 84.824 186.184 85.0538C185.953 85.2837 185.677 85.3986 185.361 85.3986V85.3949ZM180.584 65.6458H181.815C182.142 65.6458 182.418 65.7607 182.646 65.9905C182.873 66.2204 182.987 66.5022 182.987 66.8284V67.8442C182.987 68.1742 182.873 68.4559 182.646 68.6969C182.418 68.9379 182.138 69.0565 181.815 69.0565H180.558C180.224 69.0565 179.941 68.9342 179.713 68.6895C179.485 68.4448 179.375 68.1742 179.386 67.8702L179.415 66.8284C179.415 66.4984 179.529 66.2204 179.757 65.9905C179.985 65.7607 180.261 65.6458 180.588 65.6458H180.584Z" fill="white"></path><path d="M198.524 74.1911V84.2418C198.524 84.5717 198.407 84.8498 198.175 85.0796C197.944 85.3095 197.668 85.4244 197.352 85.4244C197.018 85.4244 196.731 85.3095 196.499 85.0796C196.268 84.8498 196.15 84.568 196.15 84.2418V74.1911H194.949C194.622 74.1911 194.346 74.0725 194.118 73.8389C193.89 73.6054 193.776 73.3273 193.776 73.0085C193.776 72.6896 193.883 72.4227 194.092 72.1854C194.302 71.9482 194.588 71.8258 194.952 71.8258H196.183V70.9101C196.183 69.6978 196.595 68.6931 197.422 67.8923C198.245 67.0952 199.274 66.6948 200.501 66.6948H203.254C203.581 66.6948 203.856 66.8135 204.084 67.047C204.312 67.2806 204.426 67.5698 204.426 67.9071C204.426 68.226 204.308 68.504 204.077 68.7376C203.845 68.9711 203.57 69.0898 203.254 69.0898H200.501C199.943 69.0898 199.48 69.2603 199.112 69.5977C198.745 69.9351 198.561 70.3725 198.561 70.9101V71.8258H200.909C201.225 71.8147 201.501 71.9296 201.732 72.1632C201.964 72.3968 202.081 72.6785 202.081 73.0085C202.081 73.3384 201.964 73.6054 201.732 73.8389C201.501 74.0725 201.225 74.1911 200.909 74.1911H198.535H198.524Z" fill="white"></path><path d="M219.93 85.3949H212.775C212.448 85.3949 212.172 85.28 211.944 85.0501C211.716 84.8202 211.603 84.5385 211.603 84.2122C211.603 83.886 211.716 83.6154 211.944 83.3818C212.172 83.1482 212.448 83.0296 212.775 83.0296H215.178V74.1912H212.804C212.477 74.1912 212.202 74.0726 211.974 73.839C211.746 73.6055 211.632 73.3274 211.632 73.0086C211.632 72.6897 211.746 72.3969 211.974 72.1559C212.202 71.9149 212.477 71.7963 212.804 71.7963H216.38C216.707 71.7963 216.982 71.9149 217.21 72.1559C217.438 72.3969 217.552 72.6786 217.552 73.0086V83.0333H219.9C220.227 83.0333 220.506 83.1482 220.745 83.3781C220.984 83.6079 221.102 83.8897 221.102 84.2159C221.102 84.5422 220.984 84.824 220.753 85.0538C220.521 85.2837 220.246 85.3986 219.93 85.3986V85.3949ZM215.152 65.6458H216.383C216.71 65.6458 216.986 65.7607 217.214 65.9905C217.442 66.2204 217.556 66.5022 217.556 66.8284V67.8442C217.556 68.1742 217.442 68.4559 217.214 68.6969C216.986 68.9379 216.707 69.0565 216.383 69.0565H215.127C214.792 69.0565 214.509 68.9342 214.281 68.6895C214.054 68.4448 213.943 68.1742 213.954 67.8702L213.984 66.8284C213.984 66.4984 214.098 66.2204 214.326 65.9905C214.553 65.7607 214.829 65.6458 215.156 65.6458H215.152Z" fill="white"></path><path d="M238.414 85.4246H233.398C232.512 85.4246 231.759 85.1577 231.134 84.6201L228.856 82.6182C228.128 82.0064 227.764 81.1797 227.764 80.1379V77.0497C227.728 76.045 228.136 75.1701 228.996 74.4286L231.05 72.6379C231.711 72.093 232.42 71.8186 233.174 71.8186H238.443C238.77 71.8186 239.046 71.9335 239.274 72.1634C239.502 72.3932 239.616 72.675 239.616 73.0013C239.616 73.3275 239.502 73.6204 239.274 73.8465C239.046 74.0727 238.767 74.1839 238.443 74.1839H233.398C233.082 74.1839 232.777 74.31 232.49 74.5658L230.605 76.1859C230.296 76.4491 230.146 76.8013 230.146 77.2425V80.1305C230.146 80.4419 230.267 80.7052 230.51 80.9202L232.578 82.696C232.839 82.9296 233.185 83.0482 233.611 83.0482H238.418C238.734 83.0482 239.009 83.1631 239.241 83.393C239.472 83.6229 239.59 83.9046 239.59 84.2309C239.59 84.5571 239.476 84.8389 239.248 85.0687C239.02 85.2986 238.741 85.4135 238.418 85.4135L238.414 85.4246Z" fill="white"></path><path d="M248.523 76.8827H253.127C253.381 76.8827 253.745 76.9383 254.219 77.0533L254.193 75.3775C254.193 75.0476 254.079 74.7695 253.851 74.5397C253.624 74.3098 253.344 74.1949 253.017 74.1949H248.549C248.233 74.1949 247.957 74.0763 247.722 73.8427C247.487 73.6091 247.373 73.3311 247.373 73.0122C247.373 72.6934 247.487 72.4042 247.715 72.1744C247.942 71.9445 248.222 71.8296 248.549 71.8296H253.014C253.984 71.8296 254.81 72.1744 255.498 72.8602C256.185 73.5461 256.541 74.3877 256.567 75.385L256.861 84.253C256.861 84.5829 256.743 84.861 256.512 85.0908C256.28 85.3207 256.005 85.4356 255.689 85.4356C255.354 85.4356 255.068 85.3207 254.836 85.0908C254.605 84.861 254.487 84.5792 254.487 84.253L252.499 85.4356H248.527C247.538 85.4356 246.697 85.0871 246.009 84.3939C245.322 83.7006 244.973 82.8516 244.973 81.858V80.4752C244.973 79.489 245.322 78.6437 246.017 77.943C246.711 77.2423 247.549 76.8939 248.527 76.8939L248.523 76.8827ZM254.392 81.491L254.322 80.49C254.311 80.1526 254.197 79.8709 253.973 79.6447C253.748 79.4186 253.473 79.3074 253.149 79.3074H248.519C248.192 79.3074 247.917 79.4223 247.689 79.6521C247.461 79.882 247.347 80.1637 247.347 80.49V81.8135C247.347 82.1324 247.465 82.4104 247.696 82.644C247.928 82.8775 248.203 82.9962 248.523 82.9962H251.838L254.395 81.4873L254.392 81.491Z" fill="white"></path><path d="M269.462 85.4246H267.966C267.081 85.4246 266.327 85.1577 265.703 84.6201L263.424 82.6182C262.697 82.0064 262.333 81.1797 262.333 80.1379V77.0497C262.296 76.045 262.704 75.1701 263.564 74.4286L265.618 72.6379C266.28 72.093 266.989 71.8186 267.742 71.8186H273.012C273.339 71.8186 273.614 71.9335 273.842 72.1634C274.07 72.3932 274.184 72.675 274.184 73.0013C274.184 73.3275 274.07 73.6204 273.842 73.8465C273.614 74.0727 273.335 74.1839 273.012 74.1839H267.966C267.65 74.1839 267.345 74.31 267.059 74.5658L265.173 76.1859C264.865 76.4491 264.714 76.8013 264.714 77.2425V80.1305C264.714 80.4419 264.835 80.7052 265.078 80.9202L267.147 82.696C267.408 82.9296 267.753 83.0482 268.179 83.0482H272.986C273.302 83.0482 273.578 83.1631 273.809 83.393C274.041 83.6229 274.158 83.9046 274.158 84.2309C274.158 84.5571 274.044 84.8389 273.816 85.0687C273.589 85.2986 273.309 85.4135 272.986 85.4135H271.814V89.2766C271.814 89.614 271.7 89.9031 271.472 90.1367C271.244 90.3703 270.965 90.4889 270.641 90.4889H265.89C265.574 90.4889 265.298 90.3703 265.067 90.1367C264.835 89.9031 264.718 89.6251 264.718 89.3062C264.718 88.9874 264.832 88.6945 265.06 88.4536C265.287 88.2126 265.567 88.0939 265.89 88.0939H269.466V85.4172L269.462 85.4246Z" fill="white"></path><path d="M283.092 76.8827H287.696C287.95 76.8827 288.314 76.9383 288.788 77.0533L288.762 75.3775C288.762 75.0476 288.648 74.7695 288.42 74.5397C288.192 74.3098 287.913 74.1949 287.586 74.1949H283.118C282.802 74.1949 282.526 74.0762 282.291 73.8427C282.056 73.6091 281.942 73.3311 281.942 73.0122C281.942 72.6934 282.056 72.4042 282.283 72.1744C282.511 71.9445 282.79 71.8296 283.118 71.8296H287.582C288.553 71.8296 289.379 72.1744 290.067 72.8602C290.754 73.5461 291.11 74.3877 291.136 75.3849L291.43 84.253C291.43 84.5829 291.312 84.861 291.081 85.0908C290.849 85.3207 290.574 85.4356 290.258 85.4356C289.923 85.4356 289.637 85.3207 289.405 85.0908C289.174 84.861 289.056 84.5792 289.056 84.253L287.068 85.4356H283.095C282.107 85.4356 281.265 85.0871 280.578 84.3938C279.891 83.7006 279.542 82.8516 279.542 81.858V80.4751C279.542 79.489 279.891 78.6437 280.586 77.943C281.28 77.2423 282.118 76.8938 283.095 76.8938L283.092 76.8827ZM290.941 68.9193L288.817 70.2169C288.556 70.3466 288.347 70.4134 288.189 70.4134H287.446C287.373 70.4134 287.244 70.3837 287.068 70.3281L283.492 69.1158H283.158L281.383 70.2169C281.17 70.3466 280.949 70.4134 280.725 70.4134C280.409 70.4134 280.134 70.2873 279.902 70.0315C279.671 69.7757 279.553 69.4865 279.553 69.1566C279.553 68.7413 279.744 68.4188 280.126 68.1852L282.236 66.8877C282.412 66.7764 282.621 66.7171 282.864 66.7171H283.617C283.746 66.7171 283.867 66.7357 283.981 66.7727L287.641 68.0147H287.851L289.681 66.8877C289.894 66.7579 290.111 66.6912 290.324 66.6912C290.651 66.6912 290.93 66.8172 291.162 67.073C291.393 67.3288 291.511 67.618 291.511 67.948C291.511 68.3632 291.32 68.6857 290.937 68.9193H290.941ZM288.964 81.4947L288.894 80.4937C288.883 80.1563 288.769 79.8746 288.545 79.6484C288.321 79.4223 288.045 79.311 287.722 79.311H283.092C282.765 79.311 282.489 79.426 282.261 79.6558C282.033 79.8857 281.92 80.1674 281.92 80.4937V81.8172C281.92 82.136 282.037 82.4141 282.269 82.6477C282.5 82.8812 282.776 82.9999 283.095 82.9999H286.41L288.968 81.491L288.964 81.4947Z" fill="white"></path><path d="M308.701 76.0931V81.098C308.701 82.1583 308.205 83.1408 307.213 84.0454C306.221 84.95 305.199 85.3986 304.144 85.3986H301.392C300.319 85.3986 299.297 84.9389 298.316 84.0231C297.335 83.1074 296.85 82.1324 296.85 81.098V76.0931C296.85 75.0587 297.328 74.0837 298.283 73.168C299.239 72.2523 300.275 71.7926 301.392 71.7926H304.144C305.195 71.774 306.221 72.2152 307.213 73.1161C308.205 74.017 308.701 75.0105 308.701 76.0894V76.0931ZM299.228 76.1932V80.9868C299.228 81.4206 299.382 81.7617 299.687 82.0175L300.569 82.7775C300.764 82.948 301.039 83.0296 301.392 83.0296H304.115C304.516 83.0296 304.879 82.885 305.207 82.5921L305.919 81.9581C306.21 81.732 306.353 81.4169 306.353 81.0128V76.2191C306.353 75.7483 306.21 75.3998 305.919 75.1774L305.096 74.5138C304.817 74.2802 304.49 74.1616 304.119 74.1616H301.686C301.157 74.1616 300.745 74.2876 300.455 74.5434L299.658 75.233C299.367 75.4777 299.224 75.7965 299.224 76.1932H299.228Z" fill="white"></path></svg>