<?xml version="1.0" standalone="no"?>
<!DOCTYPE svg PUBLIC "-//W3C//DTD SVG 1.1//EN" "http://www.w3.org/Graphics/SVG/1.1/DTD/svg11.dtd">
<svg xmlns="http://www.w3.org/2000/svg" width="2082" height="908" viewBox="0 0 2082 908" fill="none">
<rect width="2082" height="908" fill="#3FCC10"/>
<mask id="mask0_79_559" style="mask-type:luminance" maskUnits="userSpaceOnUse" x="443" y="313" width="185" height="208">
<path d="M443.865 313.19H627.1V520.418H443.865V313.19Z" fill="white"/>
</mask>
<g mask="url(#mask0_79_559)">
<mask id="mask1_79_559" style="mask-type:luminance" maskUnits="userSpaceOnUse" x="444" y="314" width="183" height="206">
<path d="M512.516 359.66H558.033V435.684H512.516V359.66ZM466.989 336.848H444.252V519.33H520.109V473.697H550.461V519.33H626.308V473.697H595.956V443.295H626.287V314.058H467.01L466.989 336.848Z" fill="white"/>
</mask>
<g mask="url(#mask1_79_559)">
<path d="M172.652 195.432H636.214V529.555H172.652V195.432Z" fill="#003D0D"/>
</g>
</g>
<mask id="mask2_79_559" style="mask-type:luminance" maskUnits="userSpaceOnUse" x="218" y="334" width="63" height="151">
<path d="M218.232 334.602H280.729V484.476H218.232V334.602Z" fill="white"/>
</mask>
<g mask="url(#mask2_79_559)">
<mask id="mask3_79_559" style="mask-type:luminance" maskUnits="userSpaceOnUse" x="218" y="334" width="63" height="151">
<path d="M276.818 410.971C277.632 411.545 278.143 412.486 278.164 413.49L280.062 481.005C280.062 482.291 279.384 483.378 278.185 483.89C276.975 484.402 275.692 484.172 274.753 483.273L225.231 435.11C224.668 434.566 224.334 433.824 224.293 432.988L218.702 334.862L235.547 363.298V378.447C235.547 380.82 236.704 383.026 238.644 384.374L276.818 410.971Z" fill="white"/>
</mask>
<g mask="url(#mask3_79_559)">
<path d="M172.653 195.432H636.215V529.555H172.653V195.432Z" fill="#003D0D"/>
</g>
</g>
<mask id="mask4_79_559" style="mask-type:luminance" maskUnits="userSpaceOnUse" x="218" y="260" width="102" height="115">
<path d="M218.232 260.688H319.8V374.244H218.232V260.688Z" fill="white"/>
</mask>
<g mask="url(#mask4_79_559)">
<mask id="mask5_79_559" style="mask-type:luminance" maskUnits="userSpaceOnUse" x="218" y="261" width="102" height="113">
<path d="M275.692 330.995C272.918 328.319 268.547 328.298 265.731 330.953L237.81 357.434C237.581 357.633 237.424 357.884 237.216 358.103L218.254 326.092C218.296 325.433 218.504 324.796 218.911 324.283L225.67 315.983C226.567 316.045 227.662 316.087 228.976 316.087C235.912 316.087 247.792 314.728 254.853 306.385C260.777 299.37 261.997 289.01 258.482 275.618L269.079 262.581C271.635 262.006 283.9 261.39 295.394 261.065L319.289 373.189L275.692 330.995Z" fill="white"/>
</mask>
<g mask="url(#mask5_79_559)">
<path d="M172.654 195.433H636.216V529.556H172.654V195.433Z" fill="#003D0D"/>
</g>
</g>
<mask id="mask6_79_559" style="mask-type:luminance" maskUnits="userSpaceOnUse" x="298" y="234" width="50" height="137">
<path d="M298.962 234.584H347.138V370.324H298.962V234.584Z" fill="white"/>
</mask>
<g mask="url(#mask6_79_559)">
<mask id="mask7_79_559" style="mask-type:luminance" maskUnits="userSpaceOnUse" x="299" y="235" width="47" height="135">
<path d="M322.68 369.52L299.474 260.616C299.557 260.595 299.62 260.532 299.703 260.49C300.068 260.355 300.391 260.166 300.736 259.957C300.882 259.863 301.049 259.8 301.205 259.696C301.674 259.372 302.112 258.985 302.498 258.546L322.66 235.201L342.894 258.588C343.28 259.016 343.707 259.414 344.177 259.738C344.323 259.842 344.479 259.926 344.646 260.02C344.969 260.229 345.303 260.396 345.668 260.553C345.752 260.595 345.825 260.637 345.908 260.679L322.68 369.52Z" fill="white"/>
</mask>
<g mask="url(#mask7_79_559)">
<path d="M172.654 195.432H636.216V529.555H172.654V195.432Z" fill="#003D0D"/>
</g>
</g>
<mask id="mask8_79_559" style="mask-type:luminance" maskUnits="userSpaceOnUse" x="364" y="334" width="64" height="151">
<path d="M364.064 334.602H427.844V484.476H364.064V334.602Z" fill="white"/>
</mask>
<g mask="url(#mask8_79_559)">
<mask id="mask9_79_559" style="mask-type:luminance" maskUnits="userSpaceOnUse" x="365" y="334" width="62" height="151">
<path d="M421.086 433.093C421.044 433.887 420.721 434.629 420.147 435.173L370.605 483.337C369.896 484.037 369.02 484.319 368.102 484.215C367.789 484.173 367.486 484.1 367.194 483.974C365.995 483.441 365.296 482.354 365.317 481.047L367.215 413.491C367.236 412.487 367.747 411.546 368.571 410.992L406.734 384.417C408.674 383.068 409.843 380.852 409.843 378.479V363.341L426.677 334.884L421.086 433.093Z" fill="white"/>
</mask>
<g mask="url(#mask9_79_559)">
<path d="M172.653 195.433H636.215V529.556H172.653V195.433Z" fill="#003D0D"/>
</g>
</g>
<mask id="mask10_79_559" style="mask-type:luminance" maskUnits="userSpaceOnUse" x="325" y="260" width="103" height="115">
<path d="M325.004 260.688H427.844V374.244H325.004V260.688Z" fill="white"/>
</mask>
<g mask="url(#mask10_79_559)">
<mask id="mask11_79_559" style="mask-type:luminance" maskUnits="userSpaceOnUse" x="326" y="261" width="102" height="113">
<path d="M426.456 324.346C426.863 324.837 427.061 325.475 427.103 326.102L408.141 358.145C407.964 357.925 407.797 357.695 407.567 357.497L379.625 330.995C378.238 329.667 376.444 329.008 374.671 329.008C372.877 329.008 371.052 329.688 369.665 331.036L326.067 373.241L349.994 261.086H373.524C374.463 261.086 375.36 261.494 375.954 262.236L387.156 276.025C383.797 289.219 385.039 299.433 390.9 306.385C397.961 314.728 409.841 316.087 416.777 316.087C417.883 316.087 418.863 316.045 419.677 316.003L426.456 324.346Z" fill="white"/>
</mask>
<g mask="url(#mask11_79_559)">
<path d="M172.651 195.432H636.213V529.555H172.651V195.432Z" fill="#003D0D"/>
</g>
</g>
<mask id="mask12_79_559" style="mask-type:luminance" maskUnits="userSpaceOnUse" x="388" y="204" width="74" height="109">
<path d="M388.805 204.569H461.731V312.898H388.805V204.569Z" fill="white"/>
</mask>
<g mask="url(#mask12_79_559)">
<mask id="mask13_79_559" style="mask-type:luminance" maskUnits="userSpaceOnUse" x="389" y="205" width="73" height="107">
<path d="M394.02 303.739C402.062 313.253 418.552 312.05 421.086 311.81C446.379 292.741 459.927 272.731 461.356 252.366C462.91 230.297 449.518 213.11 442.457 205.677C447.109 238.723 397.984 271.77 391.392 276.025C388.023 288.382 388.92 297.707 394.02 303.739Z" fill="white"/>
</mask>
<g mask="url(#mask13_79_559)">
<path d="M172.653 195.433H636.215V529.556H172.653V195.433Z" fill="#003D0D"/>
</g>
</g>
<mask id="mask14_79_559" style="mask-type:luminance" maskUnits="userSpaceOnUse" x="183" y="204" width="74" height="109">
<path d="M183.072 204.569H256.958V312.898H183.072V204.569Z" fill="white"/>
</mask>
<g mask="url(#mask14_79_559)">
<mask id="mask15_79_559" style="mask-type:luminance" maskUnits="userSpaceOnUse" x="184" y="205" width="73" height="107">
<path d="M251.755 303.739C243.713 313.252 227.213 312.05 224.689 311.81C199.396 292.72 185.837 272.731 184.408 252.345C182.864 230.276 196.246 213.11 203.318 205.666C198.655 238.702 247.791 271.748 254.383 276.003C257.752 288.36 256.855 297.686 251.755 303.728" fill="white"/>
</mask>
<g mask="url(#mask15_79_559)">
<path d="M172.654 195.432H636.216V529.555H172.654V195.432Z" fill="#003D0D"/>
</g>
</g>
<mask id="mask16_79_559" style="mask-type:luminance" maskUnits="userSpaceOnUse" x="231" y="356" width="50" height="128">
<path d="M231.249 356.013H280.729V483.881H231.249V356.013Z" fill="white"/>
</mask>
<g mask="url(#mask16_79_559)">
<mask id="mask17_79_559" style="mask-type:luminance" maskUnits="userSpaceOnUse" x="231" y="356" width="50" height="128">
<path d="M278.184 483.526C279.363 483.014 280.061 481.926 280.061 480.641L278.142 413.126C278.121 412.122 277.61 411.181 276.797 410.606L238.644 384.01C236.704 382.662 235.546 380.445 235.546 378.072V362.934L231.864 356.714V441.196L274.752 482.888C275.691 483.808 276.974 484.038 278.184 483.505" fill="white"/>
</mask>
<g mask="url(#mask17_79_559)">
<path d="M172.652 195.433H636.214V529.556H172.652V195.433Z" fill="#003D0D"/>
</g>
</g>
<mask id="mask18_79_559" style="mask-type:luminance" maskUnits="userSpaceOnUse" x="310" y="313" width="26" height="47">
<path d="M310.684 313.19H335.424V359.88H310.684V313.19Z" fill="white"/>
</mask>
<g mask="url(#mask18_79_559)">
<mask id="mask19_79_559" style="mask-type:luminance" maskUnits="userSpaceOnUse" x="310" y="314" width="25" height="46">
<path d="M310.946 314.058L320.657 359.681H324.703L334.435 314.058H310.946Z" fill="white"/>
</mask>
<g mask="url(#mask19_79_559)">
<path d="M172.653 195.432H636.215V529.555H172.653V195.432Z" fill="#003D0D"/>
</g>
</g>
<mask id="mask20_79_559" style="mask-type:luminance" maskUnits="userSpaceOnUse" x="231" y="313" width="87" height="47">
<path d="M231.249 313.19H317.192V359.88H231.249V313.19Z" fill="white"/>
</mask>
<g mask="url(#mask20_79_559)">
<mask id="mask21_79_559" style="mask-type:luminance" maskUnits="userSpaceOnUse" x="231" y="314" width="86" height="46">
<path d="M275.691 330.607L305.74 359.66H316.493L306.762 314.037H254.633V336.849H231.864V348.673L237.215 357.716C237.403 357.496 237.58 357.245 237.809 357.047L265.731 330.545C268.547 327.889 272.917 327.91 275.691 330.586" fill="white"/>
</mask>
<g mask="url(#mask21_79_559)">
<path d="M172.652 195.433H636.214V529.556H172.652V195.433Z" fill="#003D0D"/>
</g>
</g>
<mask id="mask22_79_559" style="mask-type:luminance" maskUnits="userSpaceOnUse" x="327" y="313" width="88" height="47">
<path d="M327.612 313.19H414.494V359.88H327.612V313.19Z" fill="white"/>
</mask>
<g mask="url(#mask22_79_559)">
<mask id="mask23_79_559" style="mask-type:luminance" maskUnits="userSpaceOnUse" x="328" y="314" width="86" height="46">
<path d="M374.694 328.621C376.467 328.621 378.261 329.279 379.648 330.607L407.59 357.098C407.799 357.308 407.986 357.527 408.164 357.757L413.921 348.014V336.848H391.142V314.058H338.606L328.864 359.681H339.68L369.666 330.67C371.054 329.321 372.879 328.642 374.673 328.642" fill="white"/>
</mask>
<g mask="url(#mask23_79_559)">
<path d="M172.654 195.432H636.216V529.555H172.654V195.432Z" fill="#003D0D"/>
</g>
</g>
<mask id="mask24_79_559" style="mask-type:luminance" maskUnits="userSpaceOnUse" x="231" y="332" width="184" height="189">
<path d="M231.249 332.479H414.494V520.419H231.249V332.479Z" fill="white"/>
</mask>
<g mask="url(#mask24_79_559)">
<mask id="mask25_79_559" style="mask-type:luminance" maskUnits="userSpaceOnUse" x="231" y="332" width="183" height="188">
<path d="M373.462 485.898C372.075 487.246 370.302 487.957 368.487 487.957C367.507 487.957 366.526 487.758 365.567 487.351C362.834 486.159 361.176 483.566 361.238 480.576L363.136 413.02C363.199 410.73 364.346 408.556 366.245 407.249L404.408 380.674C405.242 380.078 405.753 379.116 405.753 378.092V362.358C405.753 361.5 405.409 360.685 404.773 360.089L376.831 333.598C375.611 332.427 373.733 332.448 372.503 333.618L345.583 359.66H345.645L345.499 473.561H300.129V359.922L272.875 333.556C271.676 332.385 269.777 332.364 268.547 333.535L240.605 360.026C239.968 360.622 239.624 361.438 239.624 362.295V378.008C239.624 379.032 240.135 379.994 240.97 380.59L279.144 407.165C281.021 408.472 282.189 410.647 282.241 412.936L284.139 480.472C284.139 480.859 284.119 481.235 284.087 481.601C283.774 484.141 282.22 486.284 279.811 487.33C278.862 487.738 277.881 487.947 276.901 487.947C275.076 487.947 273.303 487.225 271.916 485.877L231.864 446.944V496.519H254.633V519.331H391.162V496.519H413.92V446.568L373.462 485.898Z" fill="white"/>
</mask>
<g mask="url(#mask25_79_559)">
<path d="M172.652 195.433H636.214V529.556H172.652V195.433Z" fill="#003D0D"/>
</g>
</g>
<mask id="mask26_79_559" style="mask-type:luminance" maskUnits="userSpaceOnUse" x="364" y="356" width="51" height="128">
<path d="M364.064 356.013H414.494V483.881H364.064V356.013Z" fill="white"/>
</mask>
<g mask="url(#mask26_79_559)">
<mask id="mask27_79_559" style="mask-type:luminance" maskUnits="userSpaceOnUse" x="365" y="356" width="49" height="128">
<path d="M367.236 413.104L365.317 480.661C365.296 481.967 365.995 483.055 367.194 483.588C367.507 483.724 367.81 483.807 368.102 483.828C369.02 483.954 369.916 483.651 370.605 482.95L413.9 440.861V356.044L409.843 362.913V378.051C409.843 380.424 408.674 382.64 406.734 383.989L368.571 410.564C367.747 411.139 367.236 412.08 367.215 413.083" fill="white"/>
</mask>
<g mask="url(#mask27_79_559)">
<path d="M172.653 195.433H636.215V529.556H172.653V195.433Z" fill="#003D0D"/>
</g>
</g>
<mask id="mask28_79_559" style="mask-type:luminance" maskUnits="userSpaceOnUse" x="874" y="599" width="67" height="104">
<path d="M874.438 599.098H940.501V702.45H874.438V599.098Z" fill="white"/>
</mask>
<g mask="url(#mask28_79_559)">
<mask id="mask29_79_559" style="mask-type:luminance" maskUnits="userSpaceOnUse" x="874" y="599" width="67" height="104">
<path d="M908.368 612.176H899.596C897.677 612.176 895.842 612.929 894.079 614.424L890.063 617.78C888.509 619.066 887.737 620.853 887.737 623.059V644.846C887.737 646.613 888.593 648.265 890.282 649.823L894.548 653.628C895.904 654.767 897.333 655.342 898.814 655.342H909.453C911.007 655.342 912.717 654.569 914.574 653.011L924.9 644.219C926.516 642.818 927.309 641.104 927.309 639.075V629.196C927.309 626.802 926.412 624.857 924.597 623.362L913.958 614.277C912.457 612.887 910.6 612.176 908.368 612.176ZM915.825 702.335H887.571C885.756 702.335 884.222 701.729 882.96 700.474C881.688 699.23 881.062 697.672 881.062 695.812C881.062 693.992 881.688 692.477 882.96 691.232C884.222 689.978 885.777 689.372 887.571 689.372H915.825C917.536 689.372 919.132 688.713 920.634 687.427L925.066 683.622C926.579 682.472 927.309 680.977 927.309 679.116V659.148C921.207 665.326 915.252 668.421 909.453 668.421H899.45C894.267 668.421 889.615 666.612 885.485 663.058L880.593 658.698C878.976 657.35 877.61 655.363 876.452 652.792C875.284 650.209 874.689 647.648 874.689 645.16V623.53C874.689 620.456 875.284 617.56 876.452 614.811C877.61 612.072 878.997 610.002 880.593 608.674L885.943 604.074C889.771 600.76 894.287 599.098 899.45 599.098H908.837C913.958 599.098 918.621 600.927 922.824 604.544L927.33 608.35L927.173 605.788C927.173 604.032 927.82 602.495 929.113 601.209C930.396 599.924 931.929 599.265 933.682 599.265C935.496 599.265 937.05 599.903 938.375 601.168C939.7 602.433 940.357 603.99 940.357 605.788V679.074C940.357 684.625 938.135 689.372 933.682 693.313L928.394 697.902C927.048 699.084 925.15 700.129 922.699 701.007C920.248 701.886 917.943 702.335 915.825 702.335Z" fill="white"/>
</mask>
<g mask="url(#mask29_79_559)">
<path d="M874.689 599.098H940.357V702.45H874.689V599.098Z" fill="#003D0D"/>
</g>
</g>
<mask id="mask30_79_559" style="mask-type:luminance" maskUnits="userSpaceOnUse" x="970" y="599" width="67" height="76">
<path d="M970.539 599.256H1036.62V674.496H970.539V599.256Z" fill="white"/>
</mask>
<g mask="url(#mask30_79_559)">
<mask id="mask31_79_559" style="mask-type:luminance" maskUnits="userSpaceOnUse" x="970" y="599" width="67" height="76">
<path d="M1022.9 652.615L1022.51 647.095C1022.45 645.234 1021.81 643.677 1020.57 642.422C1019.33 641.178 1017.8 640.561 1016 640.561H990.262C988.447 640.561 986.914 641.199 985.631 642.464C984.338 643.739 983.733 645.287 983.733 647.095V654.413C983.733 656.18 984.38 657.707 985.663 659.003C986.956 660.289 988.489 660.947 990.262 660.947H1008.67L1022.9 652.615ZM990.283 627.18H1015.86C1017.24 627.18 1019.27 627.493 1021.92 628.131L1021.77 618.858C1021.77 617.039 1021.15 615.502 1019.87 614.237C1018.61 612.962 1017.06 612.334 1015.24 612.334H990.419C988.666 612.334 987.133 611.676 985.829 610.39C984.526 609.093 983.889 607.567 983.889 605.8C983.889 603.981 984.526 602.444 985.788 601.179C987.06 599.914 988.604 599.256 990.419 599.256H1015.22C1020.61 599.256 1025.2 601.159 1029.02 604.943C1032.84 608.728 1034.82 613.38 1034.97 618.879L1036.59 667.816C1036.59 669.635 1035.95 671.172 1034.65 672.437C1033.37 673.712 1031.84 674.34 1030.08 674.34C1028.23 674.34 1026.63 673.712 1025.35 672.437C1024.07 671.172 1023.41 669.614 1023.41 667.816L1012.36 674.34H990.283C984.786 674.34 980.114 672.416 976.276 668.59C972.437 664.774 970.539 660.059 970.539 654.581V646.949C970.539 641.502 972.479 636.84 976.338 632.971C980.197 629.103 984.849 627.18 990.283 627.18Z" fill="white"/>
</mask>
<g mask="url(#mask31_79_559)">
<path d="M970.539 599.256H1036.59V674.256H970.539V599.256Z" fill="#003D0D"/>
</g>
</g>
<mask id="mask32_79_559" style="mask-type:luminance" maskUnits="userSpaceOnUse" x="656" y="314" width="183" height="206">
<path d="M679.395 314.058H823.496V336.869H679.395V314.058ZM656.637 336.869H823.496V359.66H656.637V336.869ZM656.637 359.66H717.319V473.718H656.637V359.66ZM656.637 473.718H838.661V496.529H656.637V473.718ZM679.395 496.529H838.661V519.341H679.395V496.529Z" fill="white"/>
</mask>
<g mask="url(#mask32_79_559)">
<path d="M646.426 281.011H1061V529.554H646.426V281.011Z" fill="#003D0D"/>
</g>
<mask id="mask33_79_559" style="mask-type:luminance" maskUnits="userSpaceOnUse" x="869" y="314" width="183" height="206">
<path d="M891.782 314.058H1051.07V359.66H891.782V314.058ZM891.782 359.66H929.705V374.881H891.782V359.66ZM869.023 374.881H929.705V397.672H869.023V374.881ZM869.023 397.672H1020.72V443.295H869.023V397.672ZM869.023 443.295H929.705V473.718H869.023V443.295ZM869.023 473.718H1051.05V519.341H869.023V473.718Z" fill="white"/>
</mask>
<g mask="url(#mask33_79_559)">
<path d="M646.426 281.011H1061V529.554H646.426V281.011Z" fill="#003D0D"/>
</g>
<mask id="mask34_79_559" style="mask-type:luminance" maskUnits="userSpaceOnUse" x="838" y="291" width="32" height="69">
<path d="M838.682 291.247H869.023V359.661H838.682V291.247Z" fill="white"/>
</mask>
<g mask="url(#mask34_79_559)">
<path d="M646.424 281.013H1061V529.556H646.424V281.013Z" fill="#003D0D"/>
</g>
<mask id="mask35_79_559" style="mask-type:luminance" maskUnits="userSpaceOnUse" x="1065" y="599" width="69" height="76">
<path d="M1065.23 599.098H1133.84V674.317H1065.23V599.098Z" fill="white"/>
</mask>
<g mask="url(#mask35_79_559)">
<mask id="mask36_79_559" style="mask-type:luminance" maskUnits="userSpaceOnUse" x="1065" y="599" width="69" height="76">
<path d="M1065.23 667.783V605.788C1065.23 603.969 1065.87 602.433 1067.13 601.168C1068.39 599.903 1069.95 599.265 1071.74 599.265C1075.11 599.265 1077.24 600.927 1078.12 604.241C1081.72 600.823 1085.77 599.098 1090.19 599.098C1095.42 599.098 1099.71 601.335 1103.05 605.788C1107.19 601.335 1111.75 599.098 1116.71 599.098C1120.73 599.098 1124.25 600.53 1127.2 603.415C1130.16 606.301 1131.76 609.97 1131.96 614.424L1133.81 667.783C1133.81 669.54 1133.17 671.076 1131.88 672.362C1130.59 673.659 1129.06 674.307 1127.3 674.307C1125.49 674.307 1123.93 673.659 1122.65 672.362C1121.37 671.076 1120.69 669.54 1120.63 667.783L1119.09 616.536C1119 613.734 1118.14 612.343 1116.53 612.343C1115.65 612.343 1114.74 612.73 1113.82 613.504L1106.06 620.027V667.783C1106.06 669.54 1105.42 671.055 1104.16 672.31C1102.9 673.554 1101.34 674.171 1099.55 674.171C1097.79 674.171 1096.26 673.533 1094.97 672.268C1093.69 670.993 1093.03 669.445 1093.03 667.637V615.678C1093.03 613.441 1092.07 612.322 1090.17 612.322C1089.25 612.322 1088.4 612.647 1087.63 613.316L1078.27 621.282V667.783C1078.27 669.54 1077.67 671.076 1076.42 672.362C1075.17 673.659 1073.68 674.307 1071.91 674.307C1070.09 674.307 1068.54 673.659 1067.22 672.362C1065.89 671.076 1065.23 669.56 1065.23 667.783Z" fill="white"/>
</mask>
<g mask="url(#mask36_79_559)">
<path d="M1065.23 599.098H1133.84V674.317H1065.23V599.098Z" fill="#003D0D"/>
</g>
</g>
<mask id="mask37_79_559" style="mask-type:luminance" maskUnits="userSpaceOnUse" x="1169" y="565" width="54" height="110">
<path d="M1169.23 565.184H1222.01V674.286H1169.23V565.184Z" fill="white"/>
</mask>
<g mask="url(#mask37_79_559)">
<mask id="mask38_79_559" style="mask-type:luminance" maskUnits="userSpaceOnUse" x="1169" y="565" width="53" height="110">
<path d="M1188.95 565.184H1195.77C1197.59 565.184 1199.11 565.821 1200.38 567.086C1201.65 568.351 1202.28 569.909 1202.28 571.707V577.311C1202.28 579.14 1201.65 580.688 1200.38 582.015C1199.11 583.353 1197.59 584.002 1195.77 584.002H1188.79C1186.93 584.002 1185.36 583.332 1184.09 581.984C1182.83 580.625 1182.22 579.14 1182.28 577.478L1182.45 571.728C1182.45 569.909 1183.07 568.372 1184.34 567.107C1185.61 565.832 1187.14 565.184 1188.95 565.184ZM1215.49 674.171H1175.75C1173.93 674.171 1172.4 673.533 1171.13 672.268C1169.87 671.003 1169.23 669.466 1169.23 667.647C1169.23 665.881 1169.87 664.344 1171.13 663.058C1172.4 661.772 1173.96 661.113 1175.75 661.113H1189.1V612.323H1175.91C1174.09 612.323 1172.56 611.664 1171.3 610.378C1170.03 609.092 1169.4 607.555 1169.4 605.799C1169.4 603.969 1170.03 602.422 1171.3 601.084C1172.56 599.756 1174.11 599.108 1175.91 599.108H1195.77C1197.59 599.108 1199.11 599.756 1200.38 601.084C1201.65 602.422 1202.28 603.969 1202.28 605.799V661.092H1215.32C1217.15 661.092 1218.69 661.73 1220.01 662.995C1221.35 664.271 1222 665.818 1222 667.626C1222 669.425 1221.35 670.982 1220.06 672.247C1218.77 673.512 1217.24 674.15 1215.49 674.15" fill="white"/>
</mask>
<g mask="url(#mask38_79_559)">
<path d="M1169.23 565.184H1222.01V674.077H1169.23V565.184Z" fill="#003D0D"/>
</g>
</g>
<mask id="mask39_79_559" style="mask-type:luminance" maskUnits="userSpaceOnUse" x="1081" y="314" width="183" height="206">
<path d="M1104.16 314.048H1263.45V336.859H1104.16V314.048ZM1081.4 336.859H1263.45V359.671H1081.4V336.859ZM1081.4 359.671H1142.08V397.694H1081.4V359.671ZM1081.4 397.694H1263.45V443.296H1081.4V397.694ZM1202.77 443.296H1263.45V473.718H1202.77V443.296ZM1081.4 473.718H1263.45V496.509H1081.4V473.718ZM1081.4 496.509H1240.7V519.341H1081.4V496.509Z" fill="white"/>
</mask>
<g mask="url(#mask39_79_559)">
<path d="M1081.4 314.048H1263.44V519.331H1081.4V314.048Z" fill="#003D0D"/>
</g>
<mask id="mask40_79_559" style="mask-type:luminance" maskUnits="userSpaceOnUse" x="1262" y="570" width="60" height="105">
<path d="M1262.21 570.935H1321.36V674.444H1262.21V570.935Z" fill="white"/>
</mask>
<g mask="url(#mask40_79_559)">
<mask id="mask41_79_559" style="mask-type:luminance" maskUnits="userSpaceOnUse" x="1262" y="570" width="60" height="105">
<path d="M1288.61 612.324V667.795C1288.61 669.614 1287.96 671.151 1286.67 672.416C1285.39 673.691 1283.86 674.318 1282.09 674.318C1280.24 674.318 1278.65 673.691 1277.36 672.416C1276.08 671.151 1275.43 669.593 1275.43 667.795V612.324H1268.73C1266.91 612.324 1265.39 611.675 1264.11 610.39C1262.85 609.093 1262.21 607.556 1262.21 605.8C1262.21 604.086 1262.79 602.57 1263.96 601.263C1265.11 599.946 1266.71 599.277 1268.73 599.277H1275.57V594.206C1275.57 587.515 1277.85 581.964 1282.43 577.552C1287 573.13 1292.71 570.935 1299.55 570.935H1314.84C1316.66 570.935 1318.19 571.593 1319.45 572.879C1320.72 574.175 1321.35 575.765 1321.35 577.625C1321.35 579.392 1320.7 580.919 1319.41 582.215C1318.13 583.501 1316.6 584.159 1314.84 584.159H1299.55C1296.45 584.159 1293.88 585.1 1291.84 586.961C1289.79 588.822 1288.75 591.237 1288.75 594.206V599.256H1301.8C1303.55 599.193 1305.08 599.831 1306.37 601.116C1307.66 602.402 1308.31 603.96 1308.31 605.779C1308.31 607.546 1307.66 609.072 1306.37 610.369C1305.08 611.655 1303.55 612.313 1301.8 612.313L1288.61 612.324Z" fill="white"/>
</mask>
<g mask="url(#mask41_79_559)">
<path d="M1262.21 570.935H1321.36V674.214H1262.21V570.935Z" fill="#003D0D"/>
</g>
</g>
<mask id="mask42_79_559" style="mask-type:luminance" maskUnits="userSpaceOnUse" x="1361" y="565" width="54" height="110">
<path d="M1361.25 565.184H1414.03V674.286H1361.25V565.184Z" fill="white"/>
</mask>
<g mask="url(#mask42_79_559)">
<mask id="mask43_79_559" style="mask-type:luminance" maskUnits="userSpaceOnUse" x="1361" y="565" width="54" height="110">
<path d="M1380.97 565.184H1387.79C1389.61 565.184 1391.14 565.821 1392.4 567.086C1393.66 568.351 1394.3 569.909 1394.3 571.707V577.311C1394.3 579.14 1393.66 580.688 1392.4 582.015C1391.14 583.353 1389.61 584.002 1387.79 584.002H1380.8C1378.95 584.002 1377.38 583.332 1376.11 581.984C1374.85 580.625 1374.23 579.14 1374.29 577.478L1374.46 571.728C1374.46 569.909 1375.09 568.372 1376.36 567.107C1377.62 565.832 1379.15 565.184 1380.97 565.184ZM1407.5 674.171H1367.76C1365.95 674.171 1364.42 673.533 1363.14 672.268C1361.88 671.003 1361.25 669.466 1361.25 667.647C1361.25 665.881 1361.88 664.344 1363.14 663.058C1364.42 661.772 1365.97 661.113 1367.76 661.113H1381.12V612.323H1367.92C1366.11 612.323 1364.57 611.664 1363.31 610.378C1362.05 609.092 1361.41 607.555 1361.41 605.799C1361.41 603.969 1362.05 602.422 1363.31 601.084C1364.57 599.756 1366.13 599.108 1367.92 599.108H1387.79C1389.61 599.108 1391.14 599.756 1392.4 601.084C1393.66 602.422 1394.3 603.969 1394.3 605.799V661.092H1407.34C1409.16 661.092 1410.71 661.73 1412.04 662.995C1413.36 664.271 1414.01 665.818 1414.01 667.626C1414.01 669.425 1413.36 670.982 1412.07 672.247C1410.79 673.512 1409.26 674.15 1407.5 674.15" fill="white"/>
</mask>
<g mask="url(#mask43_79_559)">
<path d="M1361.25 565.184H1414.03V674.077H1361.25V565.184Z" fill="#003D0D"/>
</g>
</g>
<mask id="mask44_79_559" style="mask-type:luminance" maskUnits="userSpaceOnUse" x="1293" y="314" width="183" height="206">
<path d="M1293.79 314.048H1475.81V359.671H1293.79V314.048ZM1354.47 359.671H1415.15V519.341H1354.47V359.671Z" fill="white"/>
</mask>
<g mask="url(#mask44_79_559)">
<path d="M1293.79 314.048H1475.82V519.331H1293.79V314.048Z" fill="#003D0D"/>
</g>
<mask id="mask45_79_559" style="mask-type:luminance" maskUnits="userSpaceOnUse" x="1450" y="599" width="67" height="76">
<path d="M1450.84 599.005H1516.87V674.486H1450.84V599.005Z" fill="white"/>
</mask>
<g mask="url(#mask45_79_559)">
<mask id="mask46_79_559" style="mask-type:luminance" maskUnits="userSpaceOnUse" x="1451" y="599" width="66" height="76">
<path d="M1510.2 674.329H1482.32C1477.41 674.329 1473.22 672.855 1469.75 669.886L1457.09 658.836C1453.08 655.48 1451.05 650.922 1451.05 645.151V628.131C1450.84 622.559 1453.12 617.75 1457.89 613.641L1469.3 603.783C1472.98 600.772 1476.9 599.256 1481.1 599.256H1510.35C1512.16 599.256 1513.69 599.894 1514.96 601.159C1516.23 602.434 1516.86 603.981 1516.86 605.79C1516.86 607.651 1516.23 609.198 1514.96 610.453C1513.69 611.697 1512.14 612.313 1510.35 612.313H1482.32C1480.57 612.313 1478.89 613.003 1477.28 614.415L1466.81 623.385C1465.09 624.838 1464.26 626.782 1464.26 629.208V645.172C1464.26 646.886 1464.93 648.339 1466.28 649.531L1477.77 659.327C1479.22 660.613 1481.14 661.271 1483.51 661.271H1510.2C1511.96 661.271 1513.5 661.909 1514.78 663.174C1516.06 664.439 1516.72 665.997 1516.72 667.795C1516.72 669.604 1516.08 671.151 1514.82 672.426C1513.55 673.691 1512.01 674.329 1510.2 674.329Z" fill="white"/>
</mask>
<g mask="url(#mask46_79_559)">
<path d="M1450.84 599.256H1516.87V674.225H1450.84V599.256Z" fill="#003D0D"/>
</g>
</g>
<mask id="mask47_79_559" style="mask-type:luminance" maskUnits="userSpaceOnUse" x="1546" y="599" width="67" height="76">
<path d="M1546.6 599.256H1612.9V674.496H1546.6V599.256Z" fill="white"/>
</mask>
<g mask="url(#mask47_79_559)">
<mask id="mask48_79_559" style="mask-type:luminance" maskUnits="userSpaceOnUse" x="1546" y="599" width="67" height="76">
<path d="M1598.95 652.615L1598.56 647.095C1598.5 645.234 1597.87 643.677 1596.62 642.422C1595.38 641.178 1593.85 640.561 1592.05 640.561H1566.31C1564.5 640.561 1562.96 641.199 1561.68 642.464C1560.4 643.739 1559.78 645.287 1559.78 647.095V654.413C1559.78 656.18 1560.44 657.707 1561.72 659.003C1563 660.289 1564.54 660.947 1566.31 660.947H1584.72L1598.95 652.615ZM1566.33 627.18H1591.91C1593.29 627.18 1595.32 627.493 1597.97 628.131L1597.83 618.858C1597.83 617.039 1597.19 615.502 1595.93 614.237C1594.66 612.962 1593.12 612.334 1591.3 612.334H1566.48C1564.73 612.334 1563.19 611.676 1561.88 610.39C1560.57 609.093 1559.95 607.567 1559.95 605.8C1559.95 603.981 1560.57 602.444 1561.85 601.179C1563.11 599.914 1564.66 599.256 1566.48 599.256H1591.28C1596.66 599.256 1601.26 601.159 1605.08 604.943C1608.89 608.728 1610.87 613.38 1611.01 618.879L1612.65 667.816C1612.65 669.635 1611.99 671.172 1610.71 672.437C1609.42 673.712 1607.89 674.34 1606.13 674.34C1604.28 674.34 1602.71 673.712 1601.4 672.437C1600.09 671.172 1599.46 669.614 1599.46 667.816L1588.42 674.34H1566.33C1560.85 674.34 1556.17 672.416 1552.36 668.59C1548.54 664.774 1546.6 660.059 1546.6 654.581V646.949C1546.6 641.502 1548.54 636.84 1552.39 632.971C1556.25 629.103 1560.91 627.18 1566.35 627.18" fill="white"/>
</mask>
<g mask="url(#mask48_79_559)">
<path d="M1546.6 599.256H1612.64V674.256H1546.6V599.256Z" fill="#003D0D"/>
</g>
</g>
<mask id="mask49_79_559" style="mask-type:luminance" maskUnits="userSpaceOnUse" x="1506" y="314" width="183" height="206">
<path d="M1528.93 314.048H1688.2V336.859H1528.93V314.048ZM1506.17 336.859H1688.2V359.671H1506.17V336.859ZM1619.94 359.671H1688.2V435.706H1619.94V359.671ZM1506.17 359.671H1574.43V435.706H1506.17V359.671ZM1506.17 435.706H1688.2V443.296H1506.17V435.706ZM1506.17 443.296H1657.87V473.718H1506.17V443.296ZM1506.17 473.718H1582.02V519.341H1506.17V473.718ZM1612.35 473.718H1688.2V519.341H1612.35V473.718Z" fill="white"/>
</mask>
<g mask="url(#mask49_79_559)">
<path d="M1506.17 314.048H1688.21V519.331H1506.17V314.048Z" fill="#003D0D"/>
</g>
<mask id="mask50_79_559" style="mask-type:luminance" maskUnits="userSpaceOnUse" x="1642" y="599" width="67" height="104">
<path d="M1642.86 599.005H1708.89V702.399H1642.86V599.005Z" fill="white"/>
</mask>
<g mask="url(#mask50_79_559)">
<mask id="mask51_79_559" style="mask-type:luminance" maskUnits="userSpaceOnUse" x="1643" y="599" width="66" height="104">
<path d="M1682.65 674.329H1674.36C1669.43 674.329 1665.25 672.855 1661.79 669.886L1649.13 658.836C1645.09 655.48 1643.07 650.922 1643.07 645.151V628.131C1642.86 622.559 1645.15 617.75 1649.91 613.641L1661.32 603.783C1664.99 600.772 1668.91 599.256 1673.12 599.256H1702.36C1704.18 599.256 1705.71 599.894 1706.97 601.159C1708.24 602.434 1708.87 603.981 1708.87 605.79C1708.87 607.651 1708.24 609.198 1706.97 610.453C1705.71 611.697 1704.16 612.313 1702.36 612.313H1674.36C1672.61 612.313 1670.91 613.003 1669.32 614.415L1658.83 623.385C1657.11 624.838 1656.25 626.782 1656.25 629.208V645.172C1656.25 646.886 1656.93 648.339 1658.27 649.531L1669.77 659.327C1671.22 660.613 1673.14 661.271 1675.51 661.271H1702.22C1703.98 661.271 1705.51 661.909 1706.8 663.174C1708.08 664.439 1708.74 665.997 1708.74 667.795C1708.74 669.604 1708.1 671.151 1706.84 672.426C1705.56 673.691 1704.02 674.329 1702.22 674.329H1695.69V695.646C1695.69 697.507 1695.06 699.106 1693.79 700.392C1692.53 701.678 1690.97 702.336 1689.18 702.336H1662.79C1661.03 702.336 1659.49 701.678 1658.21 700.392C1656.93 699.106 1656.27 697.569 1656.27 695.802C1656.27 693.983 1656.91 692.436 1658.17 691.098C1659.44 689.77 1660.99 689.122 1662.79 689.122H1682.65V674.329Z" fill="white"/>
</mask>
<g mask="url(#mask51_79_559)">
<path d="M1642.86 599.256H1708.89V702.399H1642.86V599.256Z" fill="#003D0D"/>
</g>
</g>
<mask id="mask52_79_559" style="mask-type:luminance" maskUnits="userSpaceOnUse" x="1738" y="570" width="68" height="105">
<path d="M1738.62 570.945H1805.13V674.496H1738.62V570.945Z" fill="white"/>
</mask>
<g mask="url(#mask52_79_559)">
<mask id="mask53_79_559" style="mask-type:luminance" maskUnits="userSpaceOnUse" x="1738" y="570" width="68" height="105">
<path d="M1790.96 652.615L1790.58 647.095C1790.51 645.234 1789.89 643.677 1788.64 642.422C1787.4 641.178 1785.86 640.561 1784.07 640.561H1758.33C1756.51 640.561 1754.98 641.199 1753.7 642.464C1752.41 643.739 1751.8 645.287 1751.8 647.095V654.413C1751.8 656.18 1752.46 657.707 1753.74 659.003C1755.02 660.289 1756.55 660.937 1758.33 660.937H1776.74L1790.96 652.615ZM1801.95 583.24L1790.15 590.401C1788.7 591.112 1787.54 591.478 1786.67 591.478H1782.54C1782.13 591.478 1781.44 591.321 1780.44 591.007L1760.57 584.317H1758.71L1748.86 590.401C1747.68 591.112 1746.45 591.478 1745.21 591.478C1743.45 591.478 1741.92 590.788 1740.63 589.376C1739.35 587.965 1738.7 586.366 1738.7 584.547C1738.7 582.257 1739.75 580.48 1741.88 579.183L1753.59 572.022C1754.57 571.416 1755.74 571.102 1757.09 571.102H1761.27C1762 571.102 1762.66 571.207 1763.29 571.416L1783.62 578.263H1784.79L1794.95 572.022C1796.16 571.311 1797.34 570.945 1798.53 570.945C1800.34 570.945 1801.88 571.635 1803.18 573.047C1804.46 574.458 1805.12 576.058 1805.12 577.877C1805.12 580.166 1804.05 581.943 1801.93 583.24M1758.35 627.18H1783.92C1785.31 627.18 1787.33 627.493 1789.99 628.121L1789.85 618.858C1789.85 617.039 1789.21 615.502 1787.95 614.237C1786.69 612.962 1785.13 612.334 1783.32 612.334H1758.49C1756.74 612.334 1755.21 611.676 1753.91 610.39C1752.59 609.094 1751.97 607.567 1751.97 605.8C1751.97 603.981 1752.59 602.444 1753.86 601.18C1755.13 599.915 1756.68 599.277 1758.49 599.277H1783.3C1788.68 599.277 1793.28 601.18 1797.1 604.964C1800.91 608.749 1802.88 613.39 1803.03 618.9L1804.67 667.837C1804.67 669.656 1804.01 671.193 1802.73 672.458C1801.44 673.733 1799.91 674.36 1798.15 674.36C1796.29 674.36 1794.73 673.733 1793.41 672.458C1792.11 671.193 1791.47 669.635 1791.47 667.837L1780.44 674.36H1758.35C1752.86 674.36 1748.19 672.437 1744.37 668.611C1740.56 664.784 1738.62 660.059 1738.62 654.581V646.949C1738.62 641.502 1740.56 636.84 1744.41 632.971C1748.26 629.103 1752.93 627.18 1758.37 627.18" fill="white"/>
</mask>
<g mask="url(#mask53_79_559)">
<path d="M1738.62 570.945H1805.13V674.329H1738.62V570.945Z" fill="#003D0D"/>
</g>
</g>
<mask id="mask54_79_559" style="mask-type:luminance" maskUnits="userSpaceOnUse" x="1718" y="314" width="183" height="206">
<path d="M1741.31 314.048H1877.84V336.859H1741.31V314.048ZM1718.55 336.859H1900.58V359.671H1718.55V336.859ZM1832.33 359.671H1900.58V435.706H1832.33V359.671ZM1718.55 359.671H1786.82V435.706H1718.55V359.671ZM1718.55 435.706H1900.58V473.718H1718.55V435.706ZM1718.55 473.718H1794.39V519.341H1718.55V473.718ZM1824.76 473.718H1900.58V519.341H1824.76V473.718Z" fill="white"/>
</mask>
<g mask="url(#mask54_79_559)">
<path d="M1718.55 314.048H1900.59V519.331H1718.55V314.048Z" fill="#003D0D"/>
</g>
<mask id="mask55_79_559" style="mask-type:luminance" maskUnits="userSpaceOnUse" x="1834" y="598" width="67" height="77">
<path d="M1834.78 598.994H1900.59V674.245H1834.78V598.994Z" fill="white"/>
</mask>
<g mask="url(#mask55_79_559)">
<mask id="mask56_79_559" style="mask-type:luminance" maskUnits="userSpaceOnUse" x="1834" y="599" width="67" height="76">
<path d="M1875.13 612.179C1877.19 612.179 1879.01 612.827 1880.56 614.124L1885.14 617.783C1886.74 619.027 1887.54 620.95 1887.54 623.533V649.982C1887.54 652.219 1886.74 653.955 1885.14 655.199L1881.17 658.701C1879.36 660.322 1877.33 661.116 1875.11 661.116H1860.01C1858.05 661.116 1856.52 660.646 1855.43 659.705L1850.53 655.513C1848.82 654.122 1847.96 652.219 1847.96 649.825V623.365C1847.96 621.18 1848.76 619.414 1850.37 618.065L1854.79 614.28C1856.41 612.89 1858.67 612.179 1861.64 612.179H1875.13ZM1875.64 599.101C1875.52 599.101 1875.39 599.101 1875.29 599.101H1860.01C1853.8 599.101 1848.05 601.641 1842.74 606.69C1837.43 611.75 1834.78 617.124 1834.78 622.832V650.453C1834.78 656.161 1837.49 661.545 1842.91 666.594C1848.35 671.654 1854.04 674.184 1860.01 674.184H1875.29C1881.13 674.184 1886.83 671.696 1892.33 666.72C1897.83 661.775 1900.56 656.391 1900.6 650.557V622.738C1900.58 616.8 1897.83 611.353 1892.33 606.408C1886.93 601.536 1881.38 599.101 1875.64 599.101Z" fill="white"/>
</mask>
<g mask="url(#mask56_79_559)">
<path d="M1834.78 598.994H1900.59V674.245H1834.78V598.994Z" fill="#003D0D"/>
</g>
</g>
</svg>