<svg xmlns="http://www.w3.org/2000/svg" width="468" height="356" viewBox="0 0 468 356" fill="none"><path d="M448 272.448H20V331.448H448V272.448Z" fill="#56E22F"></path><path d="M20 272.448H448" stroke="#032100" stroke-linejoin="round"></path><path d="M396.125 145.836C396.125 145.836 388.879 147.493 386.898 150.633C384.917 153.773 382.614 161.213 383.275 164.03C383.935 166.847 387.063 174.611 389.531 176.599C391.998 178.588 396.959 181.397 400.574 181.397C404.189 181.397 410.956 176.599 411.608 174.28C412.26 171.96 414.084 165.348 414.249 162.373C414.414 159.399 415.735 154.602 409.966 150.136C404.197 145.67 402.224 144.493 396.125 145.836Z" fill="white" stroke="#032100" stroke-width="0.7" stroke-linejoin="round"></path><path d="M411.608 174.263C412.269 171.951 414.084 165.331 414.249 162.357C414.373 160.111 415.149 156.83 413.044 153.433C412.855 154.875 412.062 158.637 410.791 160.211C409.306 162.025 402.711 165.497 394.144 163.682C387.979 162.373 385.404 158.413 384.447 156.292C383.497 159.266 382.895 162.398 383.275 164.014C383.935 166.823 387.063 174.594 389.531 176.583C391.998 178.571 396.959 181.38 400.574 181.38C404.189 181.38 410.956 176.583 411.608 174.263Z" fill="white" stroke="#032100" stroke-width="0.7" stroke-linejoin="round"></path><path d="M383.275 164.014C383.275 164.014 381.129 163.185 380.799 165.331C380.468 167.477 381.789 171.96 383.605 172.946C384.136 173.232 384.73 173.382 385.334 173.382C385.937 173.382 386.531 173.232 387.063 172.946L383.275 164.014Z" fill="white" stroke="#032100" stroke-width="0.7" stroke-linejoin="round"></path><path d="M414.249 163.683C414.249 163.683 417.551 161.031 417.212 165.166C416.874 169.3 412.434 172.449 412.434 172.449L414.249 163.683Z" fill="white" stroke="#032100" stroke-width="0.7" stroke-linejoin="round"></path><path d="M416.519 186.674C416.519 186.674 411.905 179.392 411.41 178.894C410.915 178.397 403.503 177.237 398.89 177.237C394.276 177.237 386.699 179.218 386.699 179.218L382.746 187.503C382.746 187.503 401.234 182.706 416.519 186.674Z" fill="#032100" stroke="#032100" stroke-width="0.7" stroke-linejoin="round"></path><path d="M360.041 236.627C360.041 236.627 358.746 243.405 359.571 245.261C360.396 247.117 363.524 248.898 365.175 248.898C366.897 248.76 368.606 248.482 370.284 248.069L370.944 238.475L360.041 236.627Z" fill="white" stroke="#032100" stroke-width="0.7" stroke-linejoin="round"></path><path d="M437.482 231.499C437.482 231.499 438.143 239.436 437.647 240.762C437.152 242.087 434.346 244.565 432.374 245.062C430.654 245.524 428.88 245.747 427.1 245.725C426.605 245.559 424.954 233.81 424.954 233.81L437.482 231.499Z" fill="white" stroke="#032100" stroke-width="0.7" stroke-linejoin="round"></path><path d="M395.63 316.847C395.63 316.847 395.3 328.753 396.125 329.913C396.95 331.073 400.904 332.556 405.204 332.059C409.504 331.562 411.303 330.244 411.303 329.416C411.303 328.587 411.138 317.998 411.138 317.998C411.138 317.998 397.776 317.178 395.63 316.847Z" fill="#032100" stroke="#032100" stroke-width="0.7" stroke-linejoin="round"></path><path d="M411.286 329.416C411.286 329.233 411.286 328.587 411.286 327.643C405.616 330.128 399.154 328.745 395.745 327.643C395.742 328.412 395.879 329.176 396.15 329.896C396.975 331.056 400.929 332.539 405.228 332.042C409.528 331.545 411.286 330.244 411.286 329.416Z" fill="white" stroke="#032100" stroke-width="0.7" stroke-linejoin="round"></path><path d="M391.842 273.34C391.842 273.34 395.63 299.969 395.465 303.615C395.337 305.433 395.392 307.26 395.63 309.067C395.63 309.067 394.145 309.895 394.145 311.221C394.145 312.547 395.63 316.847 395.63 316.847C395.63 316.847 395.465 317.51 399.757 318.33C404.048 319.15 409.974 318.827 411.13 317.998C412.285 317.17 412.277 313.367 412.112 310.889C411.947 308.412 409.974 303.283 409.974 301.295C409.974 299.306 412.607 271.691 412.607 271.691C412.607 271.691 397.776 274.5 391.842 273.34Z" fill="#3BC90C" stroke="#032100" stroke-width="0.7" stroke-linejoin="round"></path><path d="M420.183 308.578C420.183 308.578 422.659 316.863 423.311 318.33C423.963 319.796 426.613 321.478 427.925 321.478C429.237 321.478 436.327 319.158 437.317 318.661C438.308 318.164 440.115 315.19 439.29 312.547C438.465 309.904 434.338 301.461 434.338 301.461L420.183 308.578Z" fill="#032100" stroke="#032100" stroke-width="0.7" stroke-linejoin="round"></path><path d="M437.317 318.661C438.225 318.206 439.793 315.662 439.439 313.209C437.163 314.722 434.804 316.105 432.374 317.352C429.82 318.548 427.087 319.312 424.285 319.614C425.274 320.604 426.547 321.259 427.925 321.487C429.246 321.487 436.327 319.158 437.317 318.661Z" fill="white" stroke="#032100" stroke-width="0.7" stroke-linejoin="round"></path><path d="M408.48 281.12C408.48 281.12 414.91 294.02 416.057 296.034C417.204 298.047 418.038 299.514 418.038 299.514C417.471 300.373 417.226 301.406 417.344 302.43C417.674 303.921 420.15 308.553 420.15 308.553C420.15 308.553 423.939 309.382 426.902 308.387C429.865 307.393 433.331 304.576 433.661 303.921C433.95 303.114 434.169 302.282 434.313 301.436C433.756 299.238 433.042 297.084 432.175 294.99C430.69 291.344 429.048 288.535 428.387 285.395C427.727 282.255 424.104 268.824 424.104 268.824L405.121 272.967L408.48 281.12Z" fill="#3BC90C" stroke="#032100" stroke-width="0.7" stroke-linejoin="round"></path><path d="M367.453 254.491C367.453 254.491 366.628 260.29 366.958 262.925C367.288 265.56 367.783 268.874 376.036 272.039C384.29 275.204 392.543 277.325 399.146 276.836C405.748 276.348 417.93 273.357 420.604 272.039C423.278 270.722 425.433 268.203 427.207 266.48C428.982 264.756 429.485 258.476 429.163 255.99C428.988 254.577 428.656 253.187 428.173 251.848C428.173 251.848 400.408 259.122 367.453 254.491Z" fill="#3BC90C" stroke="#032100" stroke-width="0.7" stroke-linejoin="round"></path><path d="M382.779 187.495C382.779 187.495 374.873 194.778 371.225 197.586C367.577 200.395 363.978 203.875 363.978 204.869C363.978 205.864 354.256 235.799 354.256 235.799C354.256 235.799 358.044 240.596 366.289 241.416H368.65C368.65 241.416 367.494 253.331 367.494 254.491C367.494 255.651 382.986 261.119 401.11 259.611C419.234 258.103 427.801 253.496 428.131 251.839C428.462 250.182 427.801 246.868 427.801 244.383C427.801 241.897 427.306 237.1 427.306 237.1C427.306 237.1 431.92 237.597 435.378 236.271C438.836 234.945 443.904 230.347 443.904 230.347C443.904 230.347 434 209.012 432.539 204.215C431.078 199.418 416.519 186.675 416.519 186.675C416.519 186.675 403.041 182.374 382.779 187.495Z" fill="#032100" stroke="#032100" stroke-width="0.7" stroke-linejoin="round"></path><path d="M368.006 214.654L369.302 252.552C369.302 252.552 398.915 259.246 426.489 252.552L428.709 215.209C428.709 215.209 378.925 217.09 368.006 214.654Z" fill="#2CA700"></path><path d="M369.301 252.552L364.118 332.407" stroke="#032100" stroke-width="0.7" stroke-linecap="round" stroke-linejoin="round"></path><path d="M426.332 252.552L431.515 332.407" stroke="#032100" stroke-width="0.7" stroke-linecap="round" stroke-linejoin="round"></path><path d="M368.237 266.604C368.237 266.604 384.182 275.063 399.245 274.84C414.926 274.608 427.124 266.463 427.124 266.463L427.95 275.179C427.95 275.179 400.714 286.605 367.989 274.641L368.237 266.604Z" fill="#2CA700"></path><path d="M311.892 272.826C311.892 272.826 318.717 301.113 319.798 304.12C320.879 307.128 322.126 305.463 323.521 309.141C324.915 312.82 325.229 316.002 326.781 318.015C328.332 320.028 332.368 320.857 333.606 323.873C334.844 326.889 335.628 329.391 330.816 330.402C326.005 331.413 321.664 328.554 319.65 324.204C317.636 319.854 314.838 307.633 314.838 307.633C314.838 307.633 295.913 281.029 293.734 276.008L291.564 270.987L311.892 272.826Z" fill="white" stroke="#032100" stroke-width="0.7" stroke-linejoin="round"></path><path d="M321.507 306.631L321.969 306.697C322.711 307.36 323.25 308.223 323.521 309.183C324.924 312.87 325.229 316.043 326.781 318.057C328.332 320.07 332.368 320.898 333.606 323.914C334.844 326.93 335.628 329.432 330.816 330.443C326.005 331.454 321.664 328.596 319.65 324.246C317.636 319.896 314.838 307.675 314.838 307.675C317.784 302.952 321.507 306.631 321.507 306.631Z" fill="#032100" stroke="#032100" stroke-width="0.7" stroke-linejoin="round"></path><path d="M316.554 272.826C316.554 272.826 309.729 301.113 308.639 304.12C307.55 307.128 306.312 305.463 304.917 309.141C303.522 312.82 303.209 316.002 301.657 318.015C300.105 320.028 296.07 320.857 294.832 323.873C293.594 326.889 292.818 329.391 297.621 330.402C302.425 331.413 306.774 328.554 308.796 324.204C310.818 319.854 313.6 307.633 313.6 307.633C313.6 307.633 332.533 281.029 334.703 276.008L336.874 270.987L316.554 272.826Z" fill="white" stroke="#032100" stroke-width="0.7" stroke-linejoin="round"></path><path d="M306.931 306.631L306.469 306.697C305.726 307.36 305.188 308.223 304.917 309.183C303.522 312.87 303.209 316.043 301.657 318.057C300.105 320.07 296.07 320.898 294.832 323.914C293.594 326.93 292.818 329.432 297.621 330.443C302.425 331.454 306.774 328.596 308.796 324.246C310.818 319.896 313.6 307.675 313.6 307.675C310.653 302.952 306.931 306.631 306.931 306.631Z" fill="#032100" stroke="#032100" stroke-width="0.7" stroke-linejoin="round"></path><path d="M295.302 185.216C295.302 185.216 285.398 189.425 285.217 191.29C285.035 193.154 278.688 217.612 278.243 220.404C277.797 223.197 275.139 229.908 277.153 232.708C279.167 235.509 282.741 237.381 285.068 237.539C285.671 237.629 286.287 237.563 286.856 237.345C287.426 237.127 287.93 236.766 288.32 236.296L286.306 250C286.306 250 283.203 259.653 283.979 263.547C284.755 267.441 287.396 271.335 302.136 274.608C316.877 277.88 325.41 276.165 330.841 273.671C336.272 271.178 342.784 268.062 343.403 264.168C344.022 260.274 341.546 247.97 341.546 247.97L340.299 234.713C340.299 234.713 347.727 234.556 350.542 230.968C353.356 227.381 352.399 223.81 351.318 220.694C350.237 217.579 346.976 206.212 345.887 202.16C344.798 198.108 344.022 191.099 342.784 189.392C341.546 187.685 328.976 184.877 328.976 184.877C328.976 184.877 312.832 178.837 295.302 185.216Z" fill="white" stroke="#032100" stroke-width="0.7" stroke-linejoin="round"></path><path d="M289.566 205.466L292.975 221.507" stroke="#032100" stroke-width="0.7" stroke-linejoin="round"></path><path d="M340.91 206.551L338.583 220.728" stroke="#032100" stroke-width="0.7" stroke-linejoin="round"></path><path d="M343.394 264.176C343.906 260.962 342.305 251.989 341.744 248.981C323.273 254.184 297.126 250.771 286.446 248.981L286.298 249.984C286.298 249.984 283.194 259.636 283.97 263.53C284.746 267.424 287.387 271.318 302.128 274.591C316.868 277.864 325.402 276.149 330.833 273.655C336.263 271.161 342.775 268.071 343.394 264.176Z" fill="#3BC90C" stroke="#032100" stroke-width="0.7" stroke-linejoin="round"></path><path d="M306.164 141.768C306.164 141.768 300.576 139.589 299.8 146.739C299.025 153.889 302.441 162.481 302.598 164.337C302.755 166.193 292.042 182.25 294.527 187.536C297.011 192.822 302.441 199.84 310.208 200.934C317.974 202.028 324.016 200.619 329.752 195.482C335.488 190.345 336.734 189.251 336.577 186.451C336.42 183.65 330.528 167.138 329.909 163.086C329.29 159.034 333.012 151.246 328.514 143.773C324.016 136.299 314.549 134.584 310.827 136.763C307.105 138.942 306.164 141.768 306.164 141.768Z" fill="#032100" stroke="#032100" stroke-width="0.7" stroke-linejoin="round"></path><path d="M283.814 214.655L285.11 252.552C285.11 252.552 314.722 259.247 342.297 252.552L344.517 215.21C344.517 215.21 294.733 217.09 283.814 214.655Z" fill="#2CA700"></path><path d="M285.109 252.552L279.935 332.407" stroke="#032100" stroke-width="0.7" stroke-linecap="round" stroke-linejoin="round"></path><path d="M342.14 252.552L347.323 332.407" stroke="#032100" stroke-width="0.7" stroke-linecap="round" stroke-linejoin="round"></path><path d="M284.045 266.604C284.045 266.604 299.99 275.063 315.053 274.84C330.734 274.608 342.932 266.463 342.932 266.463L343.758 275.179C343.758 275.179 316.522 286.605 283.805 274.641L284.045 266.604Z" fill="#2CA700"></path><path d="M150.175 161.909L148.938 177.677L173.153 176.848L171.296 162.846L150.175 161.909Z" fill="white" stroke="#032100" stroke-width="0.7" stroke-linejoin="round"></path><path d="M177.997 139.398C176.867 135.984 172.344 135.802 170.833 134.849C169.323 133.896 169.703 131.444 165.551 129.928C161.4 128.411 158.949 128.602 156.869 130.499C155.171 132.188 153.598 133.999 152.164 135.918C149.952 137.028 147.741 138.404 146.874 139.779C144.893 142.919 144.249 150.351 144.91 153.16C145.57 155.969 148.698 163.749 151.174 165.729C153.65 167.709 158.602 170.526 162.209 170.526C165.815 170.526 172.591 165.729 173.252 163.417C173.912 161.106 175.728 154.486 175.884 151.503C176.145 150.209 176.537 148.946 177.056 147.733C177.395 146.78 179.087 142.803 177.997 139.398Z" fill="#032100" stroke="#032100" stroke-width="0.7" stroke-linejoin="round"></path><path d="M144.868 153.16C144.868 153.16 142.73 152.332 142.392 154.486C142.054 156.64 143.374 161.114 145.19 162.092C145.721 162.379 146.315 162.529 146.919 162.529C147.522 162.529 148.117 162.379 148.648 162.092L144.868 153.16Z" fill="white" stroke="#032100" stroke-width="0.7" stroke-linejoin="round"></path><path d="M175.843 152.829C175.843 152.829 179.144 150.185 178.814 154.32C178.484 158.454 174.035 161.578 174.035 161.578L175.843 152.829Z" fill="white" stroke="#032100" stroke-width="0.7" stroke-linejoin="round"></path><path d="M181.233 182.929C181.233 182.929 175.777 174.453 175.191 173.882C174.605 173.31 165.84 171.951 160.385 171.951C154.929 171.951 145.975 174.263 145.975 174.263L141.295 183.89C141.295 183.89 163.142 178.306 181.233 182.929Z" fill="#3BC90C" stroke="#032100" stroke-width="0.7" stroke-linejoin="round"></path><path d="M121.635 236.627C121.635 236.627 120.323 243.405 121.14 245.227C121.957 247.05 125.102 248.865 126.744 248.865C128.466 248.727 130.175 248.45 131.853 248.036L132.513 238.442L121.635 236.627Z" fill="white" stroke="#032100" stroke-width="0.7" stroke-linejoin="round"></path><path d="M199.076 231.499C199.076 231.499 199.736 239.436 199.241 240.762C198.746 242.087 195.94 244.565 193.967 245.062C192.248 245.524 190.473 245.747 188.693 245.725C188.198 245.559 186.556 233.81 186.556 233.81L199.076 231.499Z" fill="white" stroke="#032100" stroke-width="0.7" stroke-linejoin="round"></path><path d="M130.384 319.539L125.019 324.096C125.019 324.096 120.892 324.925 121.916 328.032C122.395 329.465 129.558 334.254 132.645 334.876C135.732 335.497 141.319 334.876 142.764 332.804C144.208 330.733 143.176 320.989 143.176 320.989L130.384 319.539Z" fill="white" stroke="#032100" stroke-width="0.7" stroke-linejoin="round"></path><path d="M142.772 332.804C143.022 332.385 143.188 331.921 143.259 331.437C140.576 332.224 136.111 332.97 133.066 332.39C130.02 331.81 124.812 328.049 122.064 325.944C121.89 326.26 121.786 326.611 121.76 326.972C121.735 327.332 121.788 327.694 121.916 328.032C122.394 329.465 129.558 334.254 132.645 334.876C135.732 335.497 141.327 334.876 142.772 332.804Z" fill="white" stroke="#032100" stroke-width="0.7" stroke-linejoin="round"></path><path d="M134.716 253.223C134.716 253.223 127.907 253.844 125.844 259.851C123.781 265.858 129.352 313.706 129.352 313.706C129.352 313.706 128.32 316.813 128.526 317.435C128.733 318.056 129.145 321.37 129.145 321.37C129.145 321.37 130.177 323.235 134.716 323.235C137.677 323.147 140.577 322.367 143.184 320.956C143.184 320.956 142.772 314.949 142.772 312.041C142.772 309.133 142.565 302.72 142.565 302.72L146.073 266.04C146.073 266.04 149.168 255.087 134.716 253.223Z" fill="#032100" stroke="#032100" stroke-width="0.7" stroke-linejoin="round"></path><path d="M188.298 319.54L193.671 324.097C193.671 324.097 197.797 324.925 196.766 328.032C196.287 329.465 189.123 334.254 186.036 334.876C182.95 335.497 177.37 334.876 175.918 332.805C174.465 330.733 175.505 320.989 175.505 320.989L188.298 319.54Z" fill="white" stroke="#032100" stroke-width="0.7" stroke-linejoin="round"></path><path d="M175.909 332.804C175.665 332.382 175.501 331.919 175.422 331.437C178.104 332.224 182.569 332.97 185.615 332.39C188.66 331.81 193.868 328.049 196.616 325.944C196.795 326.259 196.901 326.61 196.926 326.971C196.952 327.332 196.897 327.695 196.765 328.032C196.286 329.465 189.122 334.254 186.036 334.876C182.949 335.497 177.361 334.876 175.909 332.804Z" fill="white" stroke="#032100" stroke-width="0.7" stroke-linejoin="round"></path><path d="M183.964 253.223C183.964 253.223 190.773 253.844 192.845 259.851C194.917 265.858 189.329 313.706 189.329 313.706C189.329 313.706 190.361 316.813 190.154 317.435C189.948 318.056 189.535 321.37 189.535 321.37C189.535 321.37 188.504 323.235 183.964 323.235C181.015 323.154 178.124 322.385 175.521 320.989C175.521 320.989 175.934 314.982 175.934 312.074C175.934 309.166 176.149 302.753 176.149 302.753L172.633 266.074C172.633 266.074 169.513 255.087 183.964 253.223Z" fill="#032100" stroke="#032100" stroke-width="0.7" stroke-linejoin="round"></path><path d="M129.055 254.491C129.055 254.491 128.229 260.29 128.559 262.925C128.89 265.56 129.385 268.874 137.638 272.039C145.891 275.204 154.145 277.325 160.706 276.836C167.268 276.348 179.482 273.357 182.165 272.039C184.847 270.722 186.993 268.203 188.767 266.48C190.542 264.756 191.054 258.476 190.724 255.99C190.549 254.577 190.216 253.187 189.733 251.848C189.733 251.848 162.002 259.122 129.055 254.491Z" fill="#032100" stroke="#032100" stroke-width="0.7" stroke-linejoin="round"></path><path d="M144.373 182.209C144.373 182.209 136.466 185.432 132.818 188.24C129.17 191.049 125.564 194.529 125.564 195.523C125.564 196.518 115.85 235.799 115.85 235.799C115.85 235.799 119.638 240.596 127.875 241.416H130.177C130.177 241.416 129.03 253.331 129.03 254.491C129.03 255.651 144.513 261.119 162.638 259.611C180.762 258.103 189.329 253.496 189.659 251.839C189.989 250.182 189.329 246.868 189.329 244.382C189.329 241.897 188.834 237.1 188.834 237.1C188.834 237.1 193.447 237.597 196.914 236.271C200.38 234.945 205.506 230.347 205.506 230.347C205.506 230.347 195.602 199.691 194.132 194.869C192.663 190.047 178.154 181.388 178.154 181.388C178.154 181.388 164.643 177.08 144.373 182.209Z" fill="#3BC90C" stroke="#032100" stroke-width="0.7" stroke-linejoin="round"></path><path d="M129.715 202.756L133.693 219.427" stroke="#032100" stroke-width="0.7" stroke-linejoin="round"></path><path d="M188.999 209.327L186.49 219.427" stroke="#032100" stroke-width="0.7" stroke-linejoin="round"></path><path d="M190.468 203.428L189.742 206.352" stroke="#032100" stroke-width="0.7" stroke-linejoin="round"></path><path d="M130.054 214.654L131.349 252.552C131.349 252.552 160.954 259.246 188.537 252.552L190.757 215.209C190.757 215.209 140.973 217.09 130.054 214.654Z" fill="#2CA700"></path><path d="M131.349 252.552L126.166 332.407" stroke="#032100" stroke-width="0.7" stroke-linecap="round" stroke-linejoin="round"></path><path d="M188.372 252.552L193.555 332.407" stroke="#032100" stroke-width="0.7" stroke-linecap="round" stroke-linejoin="round"></path><path d="M130.276 266.604C130.276 266.604 146.222 275.088 161.284 274.84C176.966 274.608 189.164 266.463 189.164 266.463L189.989 275.179C189.989 275.179 162.753 286.605 130.037 274.641L130.276 266.604Z" fill="#2CA700"></path><path d="M65.2574 325.721C63.6067 326.491 59.7772 329.863 56.6987 330.534C53.6202 331.205 47.4632 330.534 46.4398 328.819C45.5237 327.286 49.7411 324.387 51.92 321.826C52.1646 321.537 52.3907 321.233 52.5968 320.915C54.3052 318.164 55.3286 312.671 55.3286 312.671L48.8332 266.646L65.2574 269.048L64.5724 309.581C64.5724 309.581 67.5023 314.817 68.3359 318.852C69.1034 322.589 68.6577 324.179 65.2574 325.721Z" fill="white" stroke="#032100" stroke-width="0.7" stroke-linejoin="round"></path><path d="M65.2571 325.72C63.6064 326.491 59.7769 329.863 56.6984 330.534C53.6199 331.205 47.4629 330.534 46.4395 328.819C46.381 328.726 46.3417 328.622 46.3239 328.513C46.0351 326.93 49.8976 324.229 51.9197 321.826L52.745 322.655C52.745 322.655 55.2788 318.744 56.1289 317.046C56.979 315.347 57.8208 312.969 59.6778 311.246C61.5348 309.522 64.5638 309.531 64.5638 309.531C64.5638 309.531 67.4937 314.767 68.3273 318.802C68.4493 319.366 68.5403 319.935 68.5997 320.509C68.8638 323.144 68.088 324.444 65.2571 325.72Z" fill="white" stroke="#032100" stroke-width="0.7" stroke-linejoin="round"></path><path d="M65.2574 325.72C63.6067 326.491 59.7771 329.863 56.6987 330.534C53.6202 331.205 47.4632 330.534 46.4398 328.819C46.3813 328.726 46.342 328.622 46.3242 328.513C48.4513 329.647 50.8751 330.096 53.2653 329.797C57.9944 329.109 58.5061 324.536 64.7622 321.511C65.9279 320.836 67.2644 320.517 68.6082 320.592C68.8641 323.144 68.0883 324.445 65.2574 325.72Z" fill="white" stroke="#032100" stroke-width="0.7" stroke-linejoin="round"></path><path d="M75.0702 325.721C76.7209 326.491 80.5504 329.863 83.6289 330.534C86.7074 331.205 92.8726 330.534 93.8961 328.819C94.8039 327.286 90.5947 324.387 88.4158 321.826C88.1686 321.539 87.9424 321.235 87.7391 320.915C86.0306 318.164 84.999 312.671 84.999 312.671L91.5026 266.646L75.0702 269.048L75.7552 309.581C75.7552 309.581 72.8335 314.817 71.9917 318.852C71.2241 322.589 71.6781 324.179 75.0702 325.721Z" fill="white" stroke="#032100" stroke-width="0.7" stroke-linejoin="round"></path><path d="M75.0699 325.72C76.7206 326.491 80.5502 329.863 83.6287 330.534C86.7072 331.205 92.8724 330.534 93.8958 328.819C93.9543 328.726 93.9936 328.622 94.0114 328.513C94.292 326.93 90.4377 324.229 88.4156 321.826L87.5903 322.655C87.5903 322.655 85.0565 318.744 84.2146 317.046C83.3728 315.347 82.5145 312.969 80.6575 311.246C78.8005 309.522 75.7715 309.531 75.7715 309.531C75.7715 309.531 72.8498 314.767 72.008 318.802C71.8884 319.366 71.8002 319.936 71.7439 320.509C71.4632 323.144 72.2473 324.444 75.0699 325.72Z" fill="white" stroke="#032100" stroke-width="0.7" stroke-linejoin="round"></path><path d="M75.0702 325.72C76.7209 326.491 80.5505 329.863 83.629 330.534C86.7075 331.205 92.8727 330.534 93.8961 328.819C93.9546 328.726 93.9939 328.621 94.0117 328.513C91.8839 329.645 89.4607 330.093 87.0706 329.797C82.3414 329.109 81.8215 324.536 75.5654 321.511C74.4025 320.837 73.0688 320.517 71.7277 320.592C71.4635 323.144 72.2476 324.444 75.0702 325.72Z" fill="white" stroke="#032100" stroke-width="0.7" stroke-linejoin="round"></path><path d="M53.2649 185.216C53.2649 185.216 43.3609 189.425 43.1793 191.289C42.9978 193.154 36.6675 217.612 36.2053 220.413C35.7431 223.213 33.102 229.916 35.1158 232.717C37.1297 235.517 40.7034 237.39 43.0308 237.547C43.6335 237.637 44.2493 237.571 44.8188 237.353C45.3884 237.135 45.8925 236.774 46.2826 236.304L44.2935 250.008C44.2935 250.008 41.1903 259.661 41.9661 263.555C42.7419 267.449 45.383 271.343 60.1234 274.616C74.8639 277.889 83.3978 276.174 88.8285 273.68C94.2592 271.186 100.771 268.07 101.39 264.176C102.009 260.282 99.5331 247.978 99.5331 247.978L98.2869 234.722C98.2869 234.722 105.715 234.564 108.529 230.977C111.344 227.389 110.386 223.818 109.305 220.703C108.224 217.587 104.964 206.22 103.874 202.168C102.785 198.117 102.009 191.107 100.771 189.4C99.5331 187.694 86.9633 184.885 86.9633 184.885C86.9633 184.885 70.795 178.836 53.2649 185.216Z" fill="#3BC90C" stroke="#032100" stroke-width="0.7" stroke-linejoin="round"></path><path d="M48.9893 212.334L50.937 221.506" stroke="#032100" stroke-width="0.7" stroke-linejoin="round"></path><path d="M47.5293 205.466L48.2391 208.813" stroke="#032100" stroke-width="0.7" stroke-linejoin="round"></path><path d="M98.8811 206.551L96.5537 220.728" stroke="#032100" stroke-width="0.7" stroke-linejoin="round"></path><path d="M101.357 264.176C101.869 260.962 100.268 251.989 99.7064 248.981C81.2355 254.184 55.0889 250.771 44.4091 248.981L44.2606 249.984C44.2606 249.984 41.1573 259.636 41.9331 263.53C42.7089 267.424 45.35 271.318 60.0904 274.591C74.8309 277.864 83.3648 276.149 88.7955 273.655C94.2262 271.161 100.738 268.071 101.357 264.176Z" fill="#032100" stroke="#032100" stroke-width="0.7" stroke-linejoin="round"></path><path d="M56.5914 154.511C56.5914 154.511 55.7661 151.735 54.2474 154.088C52.7288 156.441 54.2475 160.501 55.3121 161.785C56.3897 162.829 57.6268 163.694 58.9766 164.345L60.4209 162.639L56.5914 154.511Z" fill="white" stroke="#032100" stroke-width="0.7" stroke-linejoin="round"></path><path d="M86.2118 154.511C86.2118 154.511 87.0372 151.735 88.5558 154.088C90.0744 156.441 88.5558 160.501 87.4911 161.785C86.4135 162.829 85.1764 163.694 83.8266 164.345L82.374 162.639L86.2118 154.511Z" fill="white" stroke="#032100" stroke-width="0.7" stroke-linejoin="round"></path><path d="M62.4505 169.449L56.863 195.913C59.4932 198.575 62.8922 200.338 66.5772 200.95C74.195 202.019 80.1622 200.677 85.8074 195.764C84.8831 187.412 82.1512 167.809 82.1512 167.809L84.9738 161.744C86.5145 158.517 87.2509 154.963 87.1197 151.387C87.024 148.706 86.2546 146.092 84.8831 143.789C80.385 136.332 70.9184 134.601 67.1962 136.78C63.4739 138.959 62.5413 141.751 62.5413 141.751C62.5413 141.751 56.962 139.572 56.1862 146.722C55.4104 153.873 56.5906 160.692 58.9758 164.321L62.4505 169.449Z" fill="#032100" stroke="#032100" stroke-width="0.7" stroke-linejoin="round"></path><path d="M71.7115 141.892C71.0227 141.907 70.3448 142.067 69.722 142.363C69.0991 142.658 68.5452 143.082 68.0965 143.607C67.3392 144.734 67.0436 146.111 67.2712 147.451C68.3291 146.316 69.7783 145.629 71.3236 145.529C71.9819 145.517 72.6303 145.691 73.1949 146.031C73.7596 146.371 74.2179 146.863 74.5176 147.451C74.5176 147.451 76.3994 143.607 71.7115 141.892Z" fill="white" stroke="#032100" stroke-width="0.7" stroke-linejoin="round"></path><path d="M41.7268 214.655L43.0226 252.552C43.0226 252.552 72.6355 259.247 100.21 252.552L102.43 215.21C102.43 215.21 52.646 217.09 41.7268 214.655Z" fill="#2CA700"></path><path d="M43.0229 252.552L37.8398 332.407" stroke="#032100" stroke-width="0.7" stroke-linecap="round" stroke-linejoin="round"></path><path d="M100.053 252.552L105.236 332.407" stroke="#032100" stroke-width="0.7" stroke-linecap="round" stroke-linejoin="round"></path><path d="M41.9493 266.604C41.9493 266.604 57.8947 275.063 72.9571 274.84C88.6384 274.608 100.845 266.463 100.845 266.463L101.67 275.179C101.67 275.179 74.4344 286.605 41.71 274.641L41.9493 266.604Z" fill="#2CA700"></path><path d="M211.566 256.989C211.566 256.989 210.46 263.857 210.27 264.445C210.08 265.034 207.126 271.314 206.754 272.988C206.383 274.661 208.793 275.589 210.27 275.589C211.747 275.589 219.894 276.144 220.818 275.407C221.742 274.67 222.675 272.242 222.469 270.386C222.262 268.53 220.991 257.196 220.991 257.196L211.566 256.989Z" fill="white" stroke="#032100" stroke-width="0.7" stroke-linejoin="round"></path><path d="M260.244 258.107C260.244 258.107 262.464 261.637 263.545 262.564C264.626 263.492 271.32 270.369 273.54 271.107C275.76 271.844 275.389 273.526 274.093 274.827C272.797 276.128 265.765 275.755 262.068 275.382C258.37 275.009 254.112 275.382 253.559 275.175C253.006 274.968 249.49 274.993 247.823 274.056C246.156 273.12 246.898 266.26 246.898 266.26L260.244 258.107Z" fill="white" stroke="#032100" stroke-width="0.7" stroke-linejoin="round"></path><path d="M220.818 136.154C220.818 136.154 216.567 153.247 216.963 164.921C217.359 176.595 214.743 206.729 214.743 207.657C214.743 208.585 212.713 213.971 212.713 218.991C212.713 224.012 212.152 252.315 212.152 252.315C212.152 252.315 209.931 252.688 210.303 254.735C210.674 256.781 211.046 259.747 211.046 259.747C211.046 259.747 214.347 259.93 216.963 260.303C218.566 260.522 220.194 260.461 221.775 260.12C221.775 260.12 223.426 255.472 223.632 253.061C223.838 250.65 223.261 249.83 223.261 247.046C223.261 244.262 239.173 164.192 239.173 164.192L245.099 211.377C245.099 211.377 245.47 235.322 246.584 242.033C247.239 245.867 247.609 249.744 247.69 253.633C247.69 253.633 247.137 258.645 246.956 259.209C246.774 259.772 246.031 260.137 246.395 261.62C246.682 263.155 246.87 264.708 246.956 266.268C249.116 264.929 251.409 263.819 253.798 262.954C257.495 261.653 261.754 259.64 261.754 259.64C261.419 258.357 261.171 257.053 261.011 255.737C261.011 254.809 260.087 254.436 260.087 253.699C260.087 252.962 261.572 219.621 262.125 207.914C262.678 196.207 262.678 155.525 262.678 155.525L258.23 136.154L257.306 132.434L221.585 132.251L220.818 136.154Z" fill="#032100" stroke="#032100" stroke-width="0.7" stroke-linejoin="round"></path><path d="M225.439 135.988C225.439 135.988 235.401 139.021 242.35 138.416C249.299 137.811 252.312 136.444 252.312 136.444L254.103 112.043L255.465 78.852L255.613 73.4002C255.613 73.4002 246.411 70.666 243.687 70.3678C240.964 70.0695 232.826 69.6221 232.826 69.6221L223.747 74.5933L225.439 135.988Z" fill="white" stroke="#032100" stroke-width="0.7" stroke-linejoin="round"></path><path d="M232.058 61.3533L232.843 69.6387C233.199 70.8815 233.757 72.057 234.493 73.1186C235.616 74.5768 239.528 77.3856 239.528 77.3856L241.426 83.6659L243.324 77.1618C244.758 76.5254 245.967 75.4683 246.791 74.1294C247.652 72.3962 248.256 70.5454 248.582 68.6361L249.027 64.5929C249.027 64.5929 244.447 66.25 240.98 65.4214C237.514 64.5929 232.058 61.3533 232.058 61.3533Z" fill="white" stroke="#032100" stroke-width="0.7" stroke-linejoin="round"></path><path d="M239.553 77.3689L236.004 85.3726L233.891 80.3682" stroke="#032100" stroke-width="0.7" stroke-linejoin="round"></path><path d="M243.349 77.1453L246.122 84.3122L248.086 81.2797" stroke="#032100" stroke-width="0.7" stroke-linejoin="round"></path><path d="M228.741 51.8249C228.741 51.8249 226.62 49.8033 225.985 52.8938C225.349 55.9842 227.899 58.5361 228.642 58.9587C229.279 59.2677 229.958 59.4826 230.656 59.5967C231.429 61.8359 232.741 63.8483 234.477 65.4544C237.127 67.6915 241.369 70.0363 246.676 67.7992C251.983 65.5622 251.553 58.9587 251.24 53.8466C250.926 48.7345 249.754 39.5791 248.054 36.1738C246.354 32.7685 239.669 31.8074 234.37 32.9756C229.071 34.1439 226.414 39.8939 226.199 43.0921C225.985 46.2903 228.741 51.8249 228.741 51.8249Z" fill="white" stroke="#032100" stroke-width="0.7" stroke-linejoin="round"></path><path d="M228.741 51.825C228.376 51.4804 227.915 51.2551 227.42 51.1787L228.741 51.825Z" fill="white" stroke="#032100" stroke-width="0.7" stroke-linejoin="round"></path><path d="M234.477 65.4959C237.126 67.733 241.368 70.0778 246.675 67.8407C251.982 65.6037 251.553 59.0002 251.239 53.8881C251.173 52.9104 251.082 51.7836 250.959 50.5739L250.917 50.4828L249.754 58.7682C249.754 58.7682 249.432 57.9396 246.147 55.8931C242.862 53.8466 239.775 55.8931 238.083 56.9537C236.814 57.8226 235.638 58.8223 234.576 59.9364C233.26 59.1788 232.221 58.017 231.613 56.6223C230.885 55.0373 230.416 53.3446 230.226 51.6096C230.226 51.6096 232.347 49.0577 231.712 47.2432C231.076 45.4287 230.548 46.0749 230.127 43.929C229.706 41.7831 229.17 39.4549 230.655 38.1789C232.141 36.903 235.962 36.7953 237.547 37.8558C239.132 38.9163 240.625 39.5626 242.433 38.4938C244.24 37.425 244.975 36.2567 246.246 36.5798C247.184 36.9548 248.052 37.4871 248.813 38.1541C248.612 37.4694 248.359 36.8018 248.054 36.1573C246.353 32.7437 239.668 31.7909 234.369 32.9591C229.071 34.1274 226.413 39.8774 226.199 43.0756C225.984 46.2738 228.741 51.8084 228.741 51.8084L230.655 59.5802C231.42 61.8403 232.733 63.8735 234.477 65.4959Z" fill="#032100" stroke="#032100" stroke-width="0.7" stroke-linejoin="round"></path><path d="M242.853 45.7517C242.853 45.7517 243.274 53.424 244.339 55.0231C245.404 56.6222 245.296 57.2602 243.596 56.937C241.896 56.6139 240.295 54.8077 240.295 53.7471" fill="white"></path><path d="M242.853 45.7517C242.853 45.7517 243.274 53.424 244.339 55.0231C245.404 56.6222 245.296 57.2602 243.596 56.937C241.896 56.6139 240.295 54.8077 240.295 53.7471" stroke="#032100" stroke-width="0.7" stroke-linejoin="round"></path><path d="M238.826 58.5361C238.826 58.5361 240.947 61.1957 245.718 59.7044" stroke="white" stroke-width="0.7" stroke-linecap="round" stroke-linejoin="round"></path><path d="M237.861 49.5878C237.985 50.4164 237.754 51.1206 237.333 51.1869C236.912 51.2532 236.507 50.6401 236.351 49.8281C236.194 49.0161 236.466 48.2953 236.879 48.229C237.291 48.1627 237.737 48.7759 237.861 49.5878Z" fill="#032100"></path><path d="M247.113 48.925C247.245 49.7536 247.006 50.4496 246.585 50.5158C246.164 50.5821 245.759 49.969 245.603 49.157C245.446 48.3451 245.718 47.6242 246.131 47.5579C246.543 47.4917 246.989 48.0965 247.113 48.925Z" fill="#032100"></path><path d="M234.584 46.2905C234.584 46.2905 235.731 45.1388 238.48 45.0642" stroke="#032100" stroke-width="0.7" stroke-linecap="round" stroke-linejoin="round"></path><path d="M244.298 44.6746C244.298 44.6746 245.75 43.0672 248.425 45.1385" stroke="#032100" stroke-width="0.7" stroke-linecap="round" stroke-linejoin="round"></path><path d="M250.802 48.3616C250.802 48.3616 252.337 47.5993 252.56 50.1264C252.665 51.7338 252.295 53.3366 251.495 54.7331L250.802 48.3616Z" fill="white" stroke="#032100" stroke-width="0.7" stroke-linejoin="round"></path><path d="M201.43 91.1808C201.43 91.1808 199.639 85.903 199.78 85.4556C199.754 83.9053 199.411 82.3768 198.773 80.9649C198.104 79.8464 198.212 80.1861 197.205 78.4793C196.198 76.7725 194.729 74.668 194.415 73.7732C194.101 72.8783 192.962 75.1154 193.631 76.4659C194.299 77.8164 195.868 80.1695 195.868 80.1695C195.479 80.2227 195.084 80.144 194.745 79.9458C194.388 79.73 194.016 79.5417 193.631 79.3824L191.733 78.3716C191.733 78.3716 188.828 75.7865 188.374 75.5628C187.92 75.3391 186.03 69.6139 185.023 70.2933C184.016 70.9727 185.138 72.4226 185.246 73.5412C185.616 75.6622 186.101 77.7614 186.698 79.8298C186.921 80.3932 189.38 83.6411 190.726 85.439C191.976 86.8876 193.404 88.171 194.976 89.2586L196.982 96.1024L201.43 91.1808Z" fill="white" stroke="#032100" stroke-width="0.7" stroke-linejoin="round"></path><path d="M190.817 84.163C190.817 84.163 190.891 82.5059 191.039 81.5614C191.188 80.6168 193.515 74.7756 193.912 75.571C194.306 76.4856 194.359 77.5122 194.06 78.4626C193.771 79.0343 192.905 81.1305 192.905 81.1305L193.73 84.3121C193.73 84.3121 195.818 84.5275 196.751 85.3892C197.445 86.2118 197.959 87.1715 198.261 88.2063" fill="white"></path><path d="M190.817 84.163C190.817 84.163 190.891 82.5059 191.039 81.5614C191.188 80.6168 193.515 74.7756 193.912 75.571C194.306 76.4856 194.359 77.5122 194.06 78.4626C193.771 79.0343 192.905 81.1305 192.905 81.1305L193.73 84.3121C193.73 84.3121 195.818 84.5275 196.751 85.3892C197.445 86.2118 197.959 87.1715 198.261 88.2063" stroke="#032100" stroke-width="0.7" stroke-linejoin="round"></path><path d="M189.727 83.0113C189.727 83.0113 188.901 81.0559 189 80.1197C189.099 79.1834 190.585 73.4085 190.585 73.4085C190.585 73.4085 191.592 72.9031 191.666 73.9802C191.583 75.5417 191.343 77.0907 190.948 78.6035C190.892 79.5898 190.917 80.5791 191.023 81.5613" fill="white"></path><path d="M189.727 83.0113C189.727 83.0113 188.901 81.0559 189 80.1197C189.099 79.1834 190.585 73.4085 190.585 73.4085C190.585 73.4085 191.592 72.9031 191.666 73.9802C191.583 75.5417 191.343 77.0907 190.948 78.6035C190.892 79.5898 190.917 80.5791 191.023 81.5613" stroke="#032100" stroke-width="0.7" stroke-linejoin="round"></path><path d="M188.952 80.6996C188.952 80.6996 187.441 78.7525 187.441 77.7334C187.509 75.4161 187.7 73.104 188.011 70.8068C188.234 70.1523 188.836 70.3014 189.018 71.9585C189.107 73.5277 189.035 75.1019 188.803 76.6563L189.381 78.388" fill="white"></path><path d="M188.952 80.6996C188.952 80.6996 187.441 78.7525 187.441 77.7334C187.509 75.4161 187.7 73.104 188.011 70.8068C188.234 70.1523 188.836 70.3014 189.018 71.9585C189.107 73.5277 189.035 75.1019 188.803 76.6563L189.381 78.388" stroke="#032100" stroke-width="0.7" stroke-linejoin="round"></path><path d="M232.397 68.6196L232.958 89.7143C232.958 89.7143 234.856 116.228 235.302 119.898C235.747 123.569 230.275 162.435 230.275 162.435C230.275 162.435 224.011 161.532 217.532 160.074C211.053 158.616 208.454 157.158 208.454 157.158L218.201 118.44C218.201 118.44 208.363 129.211 207.694 129.443C207.026 129.675 206.465 129.443 205.565 128.092C204.665 126.742 193.854 96.5581 193.854 96.5581L201.455 91.1725L208.949 103.402C208.949 103.402 213.414 78.6036 213.901 77.717C214.388 76.8305 232.397 68.6196 232.397 68.6196Z" fill="#3BC90C" stroke="#032100" stroke-width="0.7" stroke-linejoin="round"></path><path d="M228.369 71.0803C228.369 71.0803 225.893 86.3503 227.593 94.2795C229.294 102.209 233.965 117.172 233.965 117.172" stroke="#032100" stroke-width="0.7" stroke-linejoin="round"></path><path d="M218.201 118.44L218.985 114.512L216.187 86.458" stroke="#032100" stroke-width="0.7" stroke-linejoin="round"></path><path d="M208.925 103.402L211.046 110.022" stroke="#032100" stroke-width="0.7" stroke-linejoin="round"></path><path d="M289.593 93.4261C289.593 93.4261 292.828 88.9022 292.853 88.4548C293.326 86.9798 294.096 85.6178 295.114 84.453C296.08 83.5747 295.874 83.8647 297.326 82.5473C298.733 81.3848 300.08 80.1515 301.362 78.852C301.948 78.0898 302.369 80.5588 301.362 81.6525C300.355 82.7462 298.151 84.5441 298.151 84.5441C298.503 84.7159 298.903 84.757 299.282 84.6601C299.686 84.5572 300.097 84.4852 300.512 84.4447L302.625 84.0304C302.625 84.0304 306.149 82.4148 306.644 82.3236C307.139 82.2325 310.614 77.3524 311.382 78.2555C312.149 79.1586 310.655 80.2688 310.226 81.3045C309.262 83.2279 308.19 85.0951 307.016 86.8972C306.644 87.3694 303.343 89.7639 301.544 91.0896C299.93 92.1113 298.194 92.9242 296.377 93.5089L292.457 99.4661L289.593 93.4261Z" fill="white" stroke="#032100" stroke-width="0.7" stroke-linejoin="round"></path><path d="M301.782 89.8137C301.782 89.8137 302.195 88.1981 302.327 87.2618C302.459 86.3255 301.947 80.0535 301.312 80.6915C300.663 81.4449 300.316 82.4133 300.338 83.4091C300.445 84.0471 300.668 86.3007 300.668 86.3007L299.017 89.1094C297.954 88.8925 296.853 88.9466 295.815 89.2669C294.911 89.8487 294.14 90.6169 293.554 91.5205" fill="white"></path><path d="M301.782 89.8137C301.782 89.8137 302.195 88.1981 302.327 87.2618C302.459 86.3255 301.947 80.0535 301.312 80.6915C300.663 81.4449 300.316 82.4133 300.338 83.4091C300.445 84.0471 300.668 86.3007 300.668 86.3007L299.017 89.1094C297.954 88.8925 296.853 88.9466 295.815 89.2669C294.911 89.8487 294.14 90.6169 293.554 91.5205" stroke="#032100" stroke-width="0.7" stroke-linejoin="round"></path><path d="M303.153 89.0183C303.153 89.0183 304.539 87.411 304.671 86.4664C304.803 85.5219 305.101 79.5812 305.101 79.5812C305.101 79.5812 304.275 78.8024 303.904 79.8215C303.529 81.3389 303.311 82.8909 303.252 84.4531C303.02 85.4129 302.711 86.3523 302.327 87.2618" fill="white"></path><path d="M303.153 89.0183C303.153 89.0183 304.539 87.411 304.671 86.4664C304.803 85.5219 305.101 79.5812 305.101 79.5812C305.101 79.5812 304.275 78.8024 303.904 79.8215C303.529 81.3389 303.311 82.8909 303.252 84.4531C303.02 85.4129 302.711 86.3523 302.327 87.2618" stroke="#032100" stroke-width="0.7" stroke-linejoin="round"></path><path d="M304.572 87.0381C304.572 87.0381 306.586 85.613 306.875 84.6436C307.484 82.4076 307.969 80.1395 308.328 77.8495C308.328 77.1618 307.717 77.1287 307.032 78.6781C306.499 80.1519 306.114 81.6758 305.885 83.2268L304.828 84.7181" fill="white"></path><path d="M304.572 87.0381C304.572 87.0381 306.586 85.613 306.875 84.6436C307.484 82.4076 307.969 80.1395 308.328 77.8495C308.328 77.1618 307.717 77.1287 307.032 78.6781C306.499 80.1519 306.114 81.6758 305.885 83.2268L304.828 84.7181" stroke="#032100" stroke-width="0.7" stroke-linejoin="round"></path><path d="M248.606 68.6196C248.903 75.2138 248.829 81.8195 248.384 88.4052C247.632 97.0386 244.612 119.02 244.917 119.625C245.222 120.229 249.44 161.88 249.44 161.88C249.44 161.88 258.048 162.187 262.876 161.126C265.821 160.477 268.702 159.565 271.485 158.4C271.485 158.4 260.466 117.694 260.31 117.048C260.153 116.402 261.96 111.132 261.96 111.132C261.96 111.132 272.69 123.411 274.489 123.113C276.288 122.815 295.188 97.8091 295.188 97.8091L289.304 91.4377L276.164 102.78C276.164 102.78 267.713 81.868 266.805 80.0452C265.849 78.4312 264.68 76.9541 263.33 75.6539C262.876 75.2148 248.606 68.6196 248.606 68.6196Z" fill="#3BC90C" stroke="#032100" stroke-width="0.7" stroke-linejoin="round"></path><path d="M252.312 71.7266C253.348 77.4668 253.551 83.3273 252.915 89.1259C251.858 98.8282 245.974 117.769 245.974 117.769" stroke="#032100" stroke-width="0.7" stroke-linejoin="round"></path><path d="M261.977 111.132L265.443 89.4656" stroke="#032100" stroke-width="0.7" stroke-linejoin="round"></path><path d="M276.164 102.797L276.016 108.862" stroke="#032100" stroke-width="0.7" stroke-linejoin="round"></path><path d="M287.116 20H265.145C263.692 20 262.298 20.5796 261.27 21.6114C260.242 22.6431 259.665 24.0424 259.665 25.5015V40.2164C259.665 41.6755 260.242 43.0748 261.27 44.1066C262.298 45.1383 263.692 45.7179 265.145 45.7179H267.968L264.328 53.0174L274.232 45.7179H287.116C288.569 45.7179 289.963 45.1383 290.991 44.1066C292.018 43.0748 292.596 41.6755 292.596 40.2164V25.5015C292.596 24.0424 292.018 22.6431 290.991 21.6114C289.963 20.5796 288.569 20 287.116 20Z" fill="white" stroke="#032100" stroke-width="0.7" stroke-linejoin="round"></path><path d="M269.132 34.4664C270.016 34.4664 270.733 33.7468 270.733 32.8591C270.733 31.9714 270.016 31.2517 269.132 31.2517C268.247 31.2517 267.531 31.9714 267.531 32.8591C267.531 33.7468 268.247 34.4664 269.132 34.4664Z" fill="#032100" stroke="#032100" stroke-width="0.7" stroke-linejoin="round"></path><path d="M276.114 34.4664C276.998 34.4664 277.715 33.7468 277.715 32.8591C277.715 31.9714 276.998 31.2517 276.114 31.2517C275.23 31.2517 274.513 31.9714 274.513 32.8591C274.513 33.7468 275.23 34.4664 276.114 34.4664Z" fill="#032100" stroke="#032100" stroke-width="0.7" stroke-linejoin="round"></path><path d="M283.104 34.4662C283.988 34.4662 284.705 33.7466 284.705 32.8588C284.705 31.9711 283.988 31.2515 283.104 31.2515C282.22 31.2515 281.503 31.9711 281.503 32.8588C281.503 33.7466 282.22 34.4662 283.104 34.4662Z" fill="#032100" stroke="#032100" stroke-width="0.7" stroke-linejoin="round"></path></svg>