<svg xmlns="http://www.w3.org/2000/svg" width="432" height="376" viewBox="0 0 432 376" fill="none"><path d="M358.527 153.945L332.211 154.155C332.211 154.155 330.466 153.945 330.035 155.248C330.035 155.248 325.464 166.777 325.253 170.907C325.043 175.038 326.116 174.386 324.381 179.82C322.647 185.253 317.634 198.085 314.807 208.531C311.008 222.566 310.025 237.444 309.795 251.93C309.795 254.256 308.361 274.246 311.98 274.246C314.988 274.246 342.667 277.915 342.998 272.581C344.331 251.308 340.491 230.476 347.88 209.835C350.747 201.815 354.035 193.313 356.471 184.902C358.908 176.491 359.329 167.759 360.923 159.158C362.005 153.293 358.527 153.945 358.527 153.945Z" fill="#032100"></path><path d="M361.105 156.552C360.844 153.544 358.529 153.945 358.529 153.945L332.213 154.156C332.213 154.156 330.468 153.945 330.037 155.248C330.037 155.248 325.466 166.777 325.255 170.907C325.191 171.997 325.221 173.091 325.346 174.176L325.907 175.038C325.907 175.038 326.769 182.647 337.215 183.058C347.661 183.469 353.526 178.707 355.701 174.135C357.877 169.564 358.709 162.176 360.483 157.825C360.667 157.389 360.875 156.964 361.105 156.552Z" fill="#56E22F"></path><path d="M354.999 165.043C353.234 171.399 354.297 173.163 352.533 184.09C350.768 195.018 344.412 207.389 341.946 218.677C339.48 229.965 340.533 269.855 340.883 271.619C341.02 272.558 341.071 273.508 341.034 274.456C342.217 274.015 342.939 273.404 342.989 272.571C344.322 251.298 340.482 230.466 347.871 209.825C350.738 201.805 354.026 193.303 356.462 184.892C358.899 176.481 359.32 167.749 360.914 159.148C361.585 155.539 360.533 154.406 359.61 154.055C357.612 157.507 356.062 161.199 354.999 165.043Z" fill="#56E22F"></path><path d="M304.173 325.634L304.002 325.494V300.922H307.531V285.394H294.498V300.922H298.027V325.915L266.799 335.87V338.316C266.776 338.701 266.832 339.086 266.964 339.448C267.095 339.811 267.299 340.142 267.563 340.423C267.828 340.703 268.147 340.927 268.501 341.08C268.854 341.232 269.236 341.311 269.621 341.311C270.007 341.311 270.388 341.232 270.742 341.08C271.096 340.927 271.414 340.703 271.679 340.423C271.943 340.142 272.147 339.811 272.279 339.448C272.41 339.086 272.466 338.701 272.443 338.316V337.965L298.508 334.957V338.697C298.487 339.035 298.535 339.373 298.649 339.692C298.764 340.01 298.942 340.302 299.174 340.549C299.405 340.795 299.685 340.992 299.996 341.127C300.306 341.261 300.641 341.33 300.98 341.33C301.318 341.33 301.653 341.261 301.963 341.127C302.274 340.992 302.554 340.795 302.785 340.549C303.017 340.302 303.195 340.01 303.31 339.692C303.424 339.373 303.472 339.035 303.451 338.697V334.837L330.629 337.995V338.316C330.606 338.701 330.662 339.086 330.793 339.448C330.925 339.811 331.129 340.142 331.393 340.423C331.657 340.703 331.976 340.927 332.33 341.08C332.684 341.232 333.065 341.311 333.451 341.311C333.836 341.311 334.217 341.232 334.571 341.08C334.925 340.927 335.244 340.703 335.508 340.423C335.773 340.142 335.977 339.811 336.108 339.448C336.24 339.086 336.296 338.701 336.273 338.316V335.85L304.173 325.634Z" fill="#032100"></path><path d="M340.985 270.246H264.283C262.069 270.246 260.273 272.041 260.273 274.256V284.251C260.273 286.465 262.069 288.261 264.283 288.261H340.985C343.2 288.261 344.995 286.465 344.995 284.251V274.256C344.995 272.041 343.2 270.246 340.985 270.246Z" fill="#032100"></path><path d="M190.558 218.246H227.2V175.92H190.558V218.246Z" fill="#56E22F"></path><path d="M230.035 220.131H188.662V181.915H208.241L230.035 220.131Z" fill="#032100"></path><path d="M179.771 222.256H203.44C203.675 222.274 203.912 222.243 204.135 222.165C204.358 222.087 204.562 221.965 204.736 221.804C204.909 221.644 205.047 221.449 205.142 221.233C205.236 221.016 205.285 220.783 205.285 220.546C205.285 220.31 205.236 220.077 205.142 219.86C205.047 219.644 204.909 219.449 204.736 219.289C204.562 219.128 204.358 219.005 204.135 218.928C203.912 218.85 203.675 218.819 203.44 218.837H179.771C179.144 218.845 178.524 218.706 177.961 218.431C177.397 218.156 176.906 217.752 176.527 217.253C176.148 216.754 175.891 216.173 175.777 215.557C175.663 214.941 175.695 214.306 175.871 213.704L184.262 183.629C184.335 183.409 184.362 183.176 184.342 182.945C184.323 182.714 184.257 182.489 184.148 182.285C184.039 182.08 183.889 181.9 183.708 181.754C183.528 181.609 183.319 181.502 183.096 181.439C182.873 181.377 182.639 181.36 182.409 181.391C182.179 181.421 181.958 181.498 181.758 181.617C181.559 181.735 181.386 181.893 181.249 182.08C181.113 182.268 181.015 182.481 180.964 182.707L172.573 212.782C172.261 213.892 172.211 215.059 172.427 216.192C172.642 217.324 173.117 218.391 173.815 219.309C174.512 220.227 175.413 220.971 176.447 221.482C177.48 221.994 178.618 222.258 179.771 222.256Z" fill="#032100"></path><path d="M191.047 213.306L196.402 212.665L188.103 143.376L182.748 144.017L191.047 213.306Z" fill="#56E22F"></path><path d="M182.718 144.03C182.718 144.03 173.204 178.005 191.029 213.324L182.718 144.03Z" fill="#032100"></path><path d="M410.106 222.105H159.63V344.191H410.106V222.105Z" fill="#2CA700"></path><path d="M409.947 225.042H159.731V228.421H409.947V225.042Z" fill="#032100"></path><path d="M411.68 220.11H154.898V225.444H411.68V220.11Z" fill="#2CA700"></path><path d="M274.508 356C293.71 356 309.275 354.465 309.275 352.571C309.275 350.678 293.71 349.143 274.508 349.143C255.307 349.143 239.741 350.678 239.741 352.571C239.741 354.465 255.307 356 274.508 356Z" fill="#032100"></path><path d="M274.007 91.3683C274.007 91.3683 280.123 91.3683 281.506 95.7994C282.889 100.23 279.02 106.095 274.007 107.418C268.995 108.742 264.564 104.17 264.854 99.7593C265.145 95.3483 271.22 91.248 274.007 91.3683Z" fill="#032100" stroke="#032100" stroke-width="0.7" stroke-linecap="round" stroke-linejoin="round"></path><path d="M309.966 293.393C309.966 293.393 311.761 292.712 312.041 289.975C312.322 287.238 308.823 280.852 308.833 277.403C308.843 273.955 308.593 267.9 307.831 266.787C307.069 265.674 302.578 265.905 299.751 268.2C296.924 270.496 304.372 275.398 306.387 280.952C308.402 286.506 307.129 287.238 307.911 289.734C308.291 291.102 308.996 292.357 309.966 293.393Z" fill="white" stroke="#032100" stroke-width="0.7" stroke-linecap="round" stroke-linejoin="round"></path><path d="M225.043 227.839C225.043 227.839 226.888 247.168 227.89 249.514C228.893 251.859 236.642 253.333 239.8 254.526C242.958 255.719 276.321 266.336 283.028 270.295C289.735 274.255 299.539 282.666 303.8 286.546C308.06 290.426 308.812 294.997 310.005 293.393C311.198 291.789 309.594 285.584 308.381 282.185C307.168 278.787 305.795 277.092 305.524 274.646C305.253 272.2 304.582 268.691 302.076 267.92C299.569 267.148 295.459 270.175 295.459 270.175C295.459 270.175 292.572 269.714 287.208 264.852C281.845 259.99 271.649 253.273 267.639 250.275C263.629 247.278 251.449 245.002 247.73 244.26C245.541 243.851 243.41 243.178 241.384 242.255L243.7 231.278C243.7 231.278 227.89 229.153 225.043 227.839Z" fill="white" stroke="#032100" stroke-width="0.7" stroke-linecap="round" stroke-linejoin="round"></path><path d="M305.486 274.647C305.225 272.21 304.543 268.692 302.037 267.92C300.273 267.378 297.736 268.702 296.373 269.544C298.932 271.991 301.136 274.785 302.919 277.845C305.576 282.516 305.596 285.403 305.155 287.97C308.213 291.439 308.914 294.797 309.967 293.393C311.16 291.789 309.556 285.584 308.343 282.185C307.13 278.787 305.757 277.093 305.486 274.647Z" fill="#3BC90C" stroke="#032100" stroke-width="0.7" stroke-linecap="round" stroke-linejoin="round"></path><path d="M251.139 335.88C252.018 336.506 253.037 336.905 254.107 337.044C255.177 337.182 256.265 337.054 257.274 336.672C260.512 335.278 264.572 329.313 265.946 327.719C267.319 326.125 273.855 322.837 274.657 319.99C275.459 317.143 270.848 313.394 270.848 313.394C269.412 316.086 267.531 318.516 265.284 320.582C261.675 323.84 262.206 325.444 258.036 329.163C253.865 332.882 251.139 335.88 251.139 335.88Z" fill="white" stroke="#032100" stroke-width="0.7" stroke-linecap="round" stroke-linejoin="round"></path><path d="M253.004 235.94C253.004 235.94 252.814 248.842 253.857 255.128C254.899 261.413 258.869 303.107 257.867 312.27C256.864 321.433 253.746 330.666 251.711 334.115C249.676 337.564 254.659 335.539 257.636 333.874C260.613 332.21 265.135 323.679 266.107 322.376C267.08 321.072 270.929 320.912 271.4 316.19C271.872 311.468 266.097 311.418 266.468 304.992C266.839 298.566 272.212 278.927 270.248 270.546C268.283 262.165 265.997 251.569 266.368 247.95C266.739 244.331 268.223 235.218 268.223 235.218L253.004 235.94Z" fill="white" stroke="#032100" stroke-width="0.7" stroke-linecap="round" stroke-linejoin="round"></path><path d="M267.721 309.724C266.03 314.08 263.833 318.222 261.175 322.065C258.428 325.744 256.353 325.704 255.25 325.243C254.4 328.325 253.22 331.306 251.731 334.135C249.726 337.584 254.679 335.559 257.656 333.895C260.634 332.23 265.155 323.699 266.127 322.396C267.1 321.093 270.949 320.932 271.421 316.21C271.741 313.062 269.295 311.98 267.721 309.724Z" fill="#3BC90C" stroke="#032100" stroke-width="0.7" stroke-linecap="round" stroke-linejoin="round"></path><path d="M323.179 199.128C322.177 196.321 321.174 192.591 316.854 190.175C312.533 187.759 310.728 186.476 310.728 186.476C310.728 186.476 299.38 162.877 296.603 158.286C293.826 153.694 291.761 150.747 291.761 150.747C291.761 150.747 284.122 129.905 283.21 126.376C282.297 122.847 282.939 120.2 278.748 118.687C274.558 117.173 265.104 116.04 261.706 115.519C259.049 114.959 256.468 114.088 254.017 112.922C254.017 112.922 246.357 111.789 243.731 110.977C237.313 108.547 231.023 105.793 224.884 102.727C221.295 100.722 216.864 96.1302 216.864 96.1302C216.864 96.1302 206.969 74.3357 204.613 69.0626C202.668 64.6916 200.804 60.822 200.202 59.5989C199.704 58.2359 199.293 56.843 198.969 55.4285C198.889 52.832 199.19 50.0149 198.969 48.4109C198.748 46.8069 198.458 46.1052 198.227 44.2305C197.997 42.3558 196.222 43.5287 196.503 45.624L196.322 46.837L194.097 37.243C194.097 37.243 192.683 36.2405 192.463 37.3232L193.525 44.421L193.124 44.5413L191.57 35.7894C191.57 35.7894 191.34 34.8771 190.067 35.0275C190.067 35.0275 189.385 35.228 189.485 37.0325L190.899 45.1929L190.087 45.2931L188.794 36.421C188.794 36.421 188.242 35.7894 187.791 36.3107C187.416 37.047 187.313 37.8919 187.5 38.6967C187.611 39.619 188.383 45.9849 188.383 45.9849L187.099 41.2029C187.099 41.2029 185.886 39.9498 186.097 42.2756C186.494 45.1861 187.166 48.0526 188.102 50.837C188.956 52.9404 190.268 54.8272 191.941 56.3608C193.225 57.2631 193.856 57.654 193.946 58.1152C193.946 58.2255 194.388 59.6591 195.069 61.8245H195.149C196.483 65.8946 206.849 97.634 208.723 102.556C210.728 107.819 235.019 126.556 235.019 126.556C235.019 126.556 230.418 138.025 232.112 144.521C233.345 148.839 235.319 152.91 237.946 156.551C237.946 156.551 234.037 161.213 227.4 178.436C220.763 195.659 222.197 231.418 222.197 231.418C230.335 235.953 239.433 238.489 248.743 238.817C264.062 239.288 269.946 238.256 269.946 238.256C269.946 238.256 276.884 198.476 274.027 183.9C272.313 175.144 269.861 166.548 266.698 158.205L274.347 139.829C274.347 139.829 287.29 161.885 292.212 170.386C297.134 178.887 309.255 191.439 309.255 191.439C309.255 191.439 309.465 194.717 310.929 196.311C311.966 197.377 313.151 198.289 314.448 199.017C314.448 199.017 311.881 204.722 313.445 205.032C315.009 205.343 316.192 199.348 316.192 199.348C316.192 199.348 315.039 205.363 316.272 205.684C317.505 206.005 318.819 200.16 318.819 200.16C318.819 200.16 317.535 205.634 318.969 205.774C320.403 205.915 321.024 199.839 321.024 199.839C321.024 199.839 321.956 204.852 322.909 204.371C323.861 203.89 324.132 201.975 323.179 199.128Z" fill="white" stroke="#032100" stroke-width="0.7" stroke-linecap="round" stroke-linejoin="round"></path><path d="M196.351 46.7769C196.454 47.3038 196.381 47.8498 196.144 48.3314C195.907 48.813 195.518 49.2036 195.038 49.4435C193.324 50.3558 194.376 52.451 195.82 54.2255" stroke="#032100" stroke-width="0.7" stroke-linecap="round" stroke-linejoin="round"></path><path d="M313.194 193.394C313.848 194.343 314.623 195.202 315.5 195.95C316.51 196.383 317.583 196.65 318.678 196.742C318.678 196.742 319.54 201.955 321.254 201.193C322.969 200.431 320.663 195.549 319.861 194.296C319.51 193.663 319.003 193.132 318.387 192.752" fill="white"></path><path d="M313.194 193.394C313.848 194.343 314.623 195.202 315.5 195.95C316.51 196.383 317.583 196.65 318.678 196.742C318.678 196.742 319.54 201.955 321.254 201.193C322.969 200.431 320.663 195.549 319.861 194.296C319.51 193.663 319.003 193.132 318.387 192.752" stroke="#032100" stroke-width="0.7" stroke-linecap="round" stroke-linejoin="round"></path><path d="M248.653 238.737C263.971 239.208 269.856 238.175 269.856 238.175C269.856 238.175 276.793 198.396 273.936 183.819C273.756 182.887 273.565 181.965 273.365 181.062C258.023 184.214 242.131 183.403 227.189 178.707C220.703 196.05 222.107 231.338 222.107 231.338C230.244 235.872 239.343 238.408 248.653 238.737Z" fill="#032100" stroke="#032100" stroke-width="0.7" stroke-linecap="round" stroke-linejoin="round"></path><path d="M239.981 192.722C239.981 192.722 246.157 203.549 253.114 208.952" stroke="white" stroke-width="0.7" stroke-linecap="round" stroke-linejoin="round"></path><path d="M251.16 213.614C251.922 214.155 252.694 214.666 253.506 215.138" stroke="white" stroke-width="0.7" stroke-linecap="round" stroke-linejoin="round"></path><path d="M240.754 202.767C243.004 205.994 245.629 208.942 248.574 211.549" stroke="white" stroke-width="0.7" stroke-linecap="round" stroke-linejoin="round"></path><path d="M298.478 161.724C297.696 160.221 297.034 159.018 296.603 158.286C293.816 153.664 291.761 150.747 291.761 150.747C291.761 150.747 284.122 129.905 283.209 126.376C282.297 122.847 282.939 120.201 278.748 118.687C274.558 117.173 265.104 116.04 261.706 115.519C259.049 114.959 256.468 114.088 254.016 112.922C254.016 112.922 246.357 111.79 243.731 110.977C237.313 108.547 231.023 105.794 224.884 102.727C221.295 100.722 216.864 96.1304 216.864 96.1304C216.864 96.1304 214.137 90.1153 211.209 83.6592C208.466 84.4158 205.785 85.381 203.189 86.5464C205.625 93.8847 207.851 100.491 208.623 102.526C210.628 107.79 234.919 126.526 234.919 126.526C234.919 126.526 230.317 137.995 232.011 144.491C233.244 148.809 235.218 152.88 237.846 156.521C237.846 156.521 233.936 161.183 227.3 178.406C226.677 180.067 226.144 181.76 225.706 183.479C235.57 187.81 252.773 192.501 274.367 187.098C274.257 185.925 274.117 184.842 273.926 183.87C272.212 175.114 269.761 166.518 266.598 158.175L274.247 139.8C274.247 139.8 284.693 157.634 290.387 167.389C293.205 165.679 295.907 163.787 298.478 161.724Z" fill="#3BC90C" stroke="#032100" stroke-width="0.7" stroke-linecap="round" stroke-linejoin="round"></path><path d="M229.935 111.99L234.927 126.526L224.912 107.348" stroke="#032100" stroke-width="0.7" stroke-linecap="round" stroke-linejoin="round"></path><path d="M274.257 139.749L270.116 137.483" stroke="#032100" stroke-width="0.7" stroke-linecap="round" stroke-linejoin="round"></path><path d="M279.381 121.253C279.381 121.253 275.14 122.025 272.434 128.601" stroke="#032100" stroke-width="0.7" stroke-linecap="round" stroke-linejoin="round"></path><path d="M247.319 151.007C247.319 151.007 252.331 157.574 260.07 157.574" stroke="#032100" stroke-width="0.7" stroke-linecap="round" stroke-linejoin="round"></path><path d="M271.49 117.002C267.671 116.331 263.681 115.82 261.716 115.519C259.059 114.959 256.478 114.088 254.026 112.922C254.026 112.922 246.367 111.789 243.741 110.977C243.47 110.887 243.059 110.747 242.578 110.566C242.327 115.038 242.137 125.333 244.964 132.792C248.663 142.566 252.733 144.591 252.733 144.591C252.733 144.591 265.114 130.135 268.773 122.917C270.067 120.271 270.929 118.366 271.49 117.002Z" fill="#032100" stroke="#032100" stroke-width="0.7" stroke-linecap="round" stroke-linejoin="round"></path><path d="M257.385 71.208C257.385 71.208 250.668 71.8596 247.019 77.223C243.37 82.5864 242.197 87.5889 240.954 93.2631C239.711 98.9373 241.154 104.371 243.129 104.571L249.936 105.263C249.936 105.263 249.936 120.11 250.337 125.253C250.738 130.396 252.342 134.095 253.836 132.271C255.33 130.446 260.252 117.233 260.252 117.233L261.054 104.902C261.054 104.902 264.663 102.165 269.996 97.604C275.33 93.0426 276.864 84.5714 272.954 77.2932C269.044 70.015 257.385 71.208 257.385 71.208Z" fill="white" stroke="#032100" stroke-width="0.7" stroke-linecap="round" stroke-linejoin="round"></path><path d="M261.355 95.8698C261.355 95.8698 262.578 96.371 262.669 95.4888C262.759 94.6066 265.445 93.1129 266.498 95.2482" stroke="#032100" stroke-width="0.7" stroke-linecap="round" stroke-linejoin="round"></path><path d="M262.668 95.4888C262.668 95.4888 265.786 96.0602 263.961 97.7845" stroke="#032100" stroke-width="0.7" stroke-linecap="round" stroke-linejoin="round"></path><path d="M246.988 84.3911C246.667 85.3936 245.985 86.0653 245.534 85.9049C245.083 85.7445 244.923 84.8222 245.243 83.8197C245.564 82.8172 246.246 82.1455 246.707 82.3059C247.168 82.4663 247.309 83.3986 246.988 84.3911Z" fill="#032100"></path><path d="M253.373 87.6892C253.042 88.6917 252.371 89.3634 251.909 89.203C251.448 89.0426 251.308 88.1102 251.629 87.1177C251.95 86.1253 252.631 85.4436 253.082 85.604C253.534 85.7644 253.694 86.6867 253.373 87.6892Z" fill="#032100"></path><path d="M244.863 91.2681C244.863 91.2681 244.863 92.3207 246.577 92.4911" stroke="#032100" stroke-width="0.7" stroke-linecap="round" stroke-linejoin="round"></path><path d="M244.401 95.8096C244.401 95.8096 249.264 97.0928 251.72 94.8071" stroke="#032100" stroke-width="0.7" stroke-linecap="round" stroke-linejoin="round"></path><path d="M253.405 82.1554C254.648 82.0638 255.878 82.4659 256.828 83.2746C257.777 84.0834 258.37 85.2336 258.477 86.4762" stroke="#032100" stroke-width="0.7" stroke-linecap="round" stroke-linejoin="round"></path><path d="M246.297 79.7293C246.297 79.7293 247.851 77.3934 249.304 81.0826" stroke="#032100" stroke-width="0.7" stroke-linecap="round" stroke-linejoin="round"></path><path d="M247.22 96.4913C247.22 96.4913 249.375 99.8597 250.377 99.0477C251.38 98.2356 250.588 95.6592 250.588 95.6592C249.489 96.0255 248.363 96.3038 247.22 96.4913Z" fill="#032100" stroke="#032100" stroke-width="0.7" stroke-linecap="round" stroke-linejoin="round"></path><path d="M272.543 97.6038C277.886 93.0424 278.558 85.0224 274.548 77.8043C269.345 68.4209 257.375 71.2078 257.375 71.2078C256.111 71.3762 254.873 71.6959 253.686 72.1602C256.192 72.5211 261.756 73.8945 264.092 79.1777C267.159 86.1351 262.648 93.4334 262.648 93.4334C262.648 93.4334 268.462 90.7066 268.262 94.8971C268.159 96.3995 267.497 97.8088 266.405 98.8464C265.314 99.884 263.873 100.474 262.367 100.501C261.183 100.317 260.027 99.9801 258.929 99.4986C258.9 100.48 259.085 101.455 259.469 102.359C259.853 103.262 260.428 104.071 261.154 104.732C261.766 104.291 267.711 101.724 272.543 97.6038Z" fill="#032100" stroke="#032100" stroke-width="0.7" stroke-linecap="round" stroke-linejoin="round"></path><path d="M252.343 72.7919C252.343 72.7919 255.35 74.406 257.977 81.8145C260.603 89.223 265.836 88.4611 268.854 87.8295C271.872 87.198 274.097 87.0275 274.097 87.0275C271.78 84.8819 270.166 82.0864 269.466 79.0075C268.253 73.8045 260.192 61.7143 252.343 72.7919Z" fill="#032100" stroke="#032100" stroke-width="0.7" stroke-linecap="round" stroke-linejoin="round"></path><path d="M120.621 74.6568C120.621 74.6568 122.626 71.6493 119.077 69.8748C115.173 68.0928 110.789 67.6516 106.608 68.6198C102.427 69.588 98.6832 71.9114 95.9596 75.2282C87.4484 85.0528 94.3155 94.5365 98.7466 99.2884C103.178 104.04 109.594 106.186 109.594 107.038C109.125 108.737 108.566 110.41 107.92 112.05L122.887 112.712C122.887 112.712 124.712 107.128 126.346 105.263C127.98 103.399 130.937 106.266 133.153 101.544C135.368 96.8222 132.651 90.5766 132.651 90.5766C132.651 90.5766 134.065 85.2232 132.06 85.0227C130.055 84.8222 128.571 82.356 127.148 79.3184C125.724 76.2808 120.621 74.6568 120.621 74.6568Z" fill="white" stroke="#032100" stroke-width="0.7" stroke-linecap="round" stroke-linejoin="round"></path><path d="M127.228 80.852C127.228 80.852 125.223 77.7142 124.952 82.0049" stroke="#032100" stroke-width="0.7" stroke-linecap="round" stroke-linejoin="round"></path><path d="M133.344 93.5038C133.344 93.5038 132.902 94.8472 130.597 93.2231" stroke="#032100" stroke-width="0.7" stroke-linecap="round" stroke-linejoin="round"></path><path d="M128.902 84.6117C129.393 85.5541 129.554 86.4363 129.253 86.6167C128.952 86.7972 128.31 86.1355 127.819 85.2032C127.328 84.2709 127.168 83.3787 127.468 83.1982C127.769 83.0178 128.411 83.6794 128.902 84.6117Z" fill="#032100"></path><path d="M117.213 97.5137C116.924 97.4639 116.649 97.3558 116.403 97.1958C116.157 97.0359 115.947 96.8276 115.785 96.5837C115.622 96.3397 115.512 96.0653 115.459 95.777C115.406 95.4887 115.413 95.1928 115.479 94.9072C115.92 93.3734 119.428 94.015 119.428 94.015C119.428 94.015 117.895 95.0175 119.529 95.8896C121.163 96.7618 122.065 94.8871 122.065 94.8871" stroke="#032100" stroke-width="0.7" stroke-linecap="round" stroke-linejoin="round"></path><path d="M119.099 69.8548C115.195 68.0728 110.811 67.6316 106.63 68.5998C102.448 69.568 98.7047 71.8914 95.9811 75.2082C87.4698 85.0328 94.337 94.5165 98.7681 99.2683C102.277 103.058 107.039 105.163 108.793 106.286C110.475 106.26 112.141 105.959 113.725 105.394C116.134 104.532 118.277 103.056 119.941 101.113C119.941 101.113 114.096 101.674 113.475 96.4112C112.853 91.148 118.297 91.6994 120.583 91.93C122.868 92.1606 121.415 89.4137 120.332 88.722C119.249 88.0302 120.392 85.2633 121.004 82.1455C121.615 79.0277 117.996 80.6819 117.485 79.7596C116.974 78.8373 120.623 74.6568 120.623 74.6568C120.623 74.6568 122.678 71.6493 119.099 69.8548Z" fill="#032100" stroke="#032100" stroke-width="0.7" stroke-linecap="round" stroke-linejoin="round"></path><path d="M126.958 111.99C122.635 110.617 118.161 109.775 113.635 109.484C106.166 109.012 102.347 112.381 102.347 112.381C102.347 112.381 107.82 112.652 116.713 113.263C125.605 113.875 126.958 111.99 126.958 111.99Z" fill="#3BC90C" stroke="#032100" stroke-width="0.7" stroke-linecap="round" stroke-linejoin="round"></path><path d="M162.024 85.4938C162.024 85.4938 176.37 63.8296 176.41 60.6216C176.45 57.4136 175.247 52.1204 175.408 50.1153C175.568 48.1103 175.989 47.2883 176.22 44.9925C176.45 42.6968 178.626 44.0803 178.365 46.6567L178.616 48.1304L181.102 36.3409C181.102 36.3409 182.806 35.0777 183.107 36.4011L181.774 44.3209L182.486 44.4311L184.2 34.5564C184.2 34.5564 184.45 33.4336 186.014 33.5539C186.014 33.5539 186.856 33.7745 186.776 35.9199L185.433 45.2031L186.145 45.5239L187.699 35.2983C187.699 35.2983 188.35 34.5063 188.861 35.1279C189.345 36.0153 189.495 37.0469 189.283 38.0351C189.172 39.178 188.38 46.9775 188.38 46.9775L189.834 41.1028C189.834 41.1028 191.288 39.5289 191.137 42.386C190.722 45.9552 189.981 49.4788 188.922 52.9123C188.29 54.8472 185.914 58.6266 184.36 59.7595C182.806 60.8923 182.044 61.3835 181.984 61.9549C181.924 62.5264 173.964 90.376 169.282 96.6316C169.282 96.6316 167.608 90.6166 163.819 89.7745C160.029 88.9324 160.641 90.0251 160.641 90.0251L162.024 85.4938Z" fill="white" stroke="#032100" stroke-width="0.7" stroke-linecap="round" stroke-linejoin="round"></path><path d="M156.581 93.614C156.581 93.614 156.33 90.406 158.506 88.8922C160.681 87.3784 160.34 85.0326 162.406 84.6617C164.471 84.2907 170.155 88.0501 170.686 91.2882C171.218 94.5263 170.366 94.4361 170.105 97.0125C169.844 99.589 166.325 103.028 163.318 101.233C160.31 99.4386 156.581 93.614 156.581 93.614Z" fill="#3BC90C" stroke="#032100" stroke-width="0.7" stroke-linecap="round" stroke-linejoin="round"></path><path d="M60.9325 148.391C60.9325 148.391 55.7095 167.639 53.915 178.546C52.1205 189.454 50.707 193.013 49.534 195.93C48.3611 198.847 47.0278 201.333 47.3686 204.411C47.7095 207.489 51.519 206.356 53.2634 206.316C55.0077 206.276 57.7045 205.454 57.9451 203.088C58.1857 200.722 58.6568 200.341 58.2258 198.125C57.7947 195.91 56.2207 194.005 56.3912 192.712C56.5616 191.419 66.2358 168.501 68.1606 162.386C70.0854 156.271 71.3486 152.491 71.3486 152.491C71.3486 152.491 62.8874 150.547 60.9325 148.391Z" fill="white" stroke="#032100" stroke-width="0.7" stroke-linecap="round" stroke-linejoin="round"></path><path d="M88.3721 177.915C84.1315 191.84 84.8232 184.933 84.1315 191.84C83.4397 198.747 80.733 214.537 80.733 214.537L70.1866 256.291C70.1866 256.291 57.0738 266.476 50.4372 276.271C43.8006 286.065 26.2869 307.138 26.2869 307.138C26.2869 307.138 30.1465 307.8 31.5701 309.143C32.9936 310.486 36.2919 313.875 36.2919 313.875C38.5302 312.263 40.5225 310.335 42.2067 308.151C48.7731 299.689 58.6879 292.481 66.357 284.993C74.0262 277.504 83.3295 269.875 89.5049 260.933C92.6327 255.82 108.472 215.469 108.472 215.469L111.74 215.369C111.74 215.369 128.081 240.722 130.357 244C132.633 247.278 139.821 259.96 139.821 259.96C139.821 259.96 127.52 269.795 124.292 278.005C121.064 286.216 105.014 315.83 104.001 317.243C103.335 318.264 102.853 319.394 102.578 320.582C102.578 320.582 108.492 322.266 111.48 322.787C113.19 323.059 114.83 323.669 116.302 324.582C116.302 324.582 117.144 322.707 118.026 320.411C118.893 318.451 119.538 316.4 119.951 314.296C120.111 312.792 136.322 296.612 145.274 281.213C154.227 265.815 158.537 261.905 159.089 258.697C159.64 255.489 151.6 231.85 147.811 219.94C144.021 208.03 133.886 194.396 133.565 193.273C133.244 192.151 132.252 180.532 132.252 180.532C132.252 180.532 125.685 180.953 111.991 180.862C104.029 180.828 96.099 179.838 88.3721 177.915Z" fill="#032100" stroke="#032100" stroke-width="0.7" stroke-linecap="round" stroke-linejoin="round"></path><path d="M98.0654 211.228L108.471 215.398" stroke="white" stroke-width="0.7" stroke-linecap="round" stroke-linejoin="round"></path><path d="M137.595 136.361C137.595 136.361 136.733 144.902 147.851 152.06C158.968 159.218 162.507 171.82 162.507 171.82L159.55 179.158L152.923 175.268C152.923 175.268 153.926 161.514 146.908 155.78C139.891 150.045 136.562 146.887 134.447 140.05C132.332 133.213 127.921 123.318 127.921 123.318C127.921 123.318 136.081 129.574 137.595 136.361Z" fill="#032100" stroke="#032100" stroke-width="0.7" stroke-linecap="round" stroke-linejoin="round"></path><path d="M107.87 112.07C103.181 111.754 98.5125 111.185 93.8849 110.366C88.2208 109.213 83.2885 112.18 82.5466 116.722C81.8047 121.263 62.7772 143.338 62.6368 144.792C62.4965 146.246 69.5541 150.697 72.8123 149.875C76.0704 149.053 88.9727 135.91 88.9727 135.91C88.9727 135.91 89.3536 166.306 88.321 170.817C87.2885 175.328 85.5341 178.346 87.9 180.601C90.2659 182.857 108.301 184.702 117.604 184.201C126.908 183.699 132.311 181.654 132.642 178.506C132.973 175.358 133.464 167.599 133.895 163.308C134.326 159.018 138.908 131.439 138.908 131.439C138.908 131.439 152.1 115.398 158.206 109.383C164.311 103.368 166.607 100.692 166.958 97.2632C167.309 93.8346 162.787 89.9048 159.78 91.0376C156.772 92.1704 148.542 102.065 143.93 104.752C139.319 107.439 132.602 108.221 129.765 110.536C126.928 112.852 123.689 113.383 118.256 112.832C112.822 112.281 107.87 112.07 107.87 112.07Z" fill="#3BC90C" stroke="#032100" stroke-width="0.7" stroke-linecap="round" stroke-linejoin="round"></path><path d="M85.2219 121.714L88.9813 135.88L81.1016 124.892" stroke="#032100" stroke-width="0.7" stroke-linecap="round" stroke-linejoin="round"></path><path d="M138.857 131.409L132.181 140.752" stroke="#032100" stroke-width="0.7" stroke-linecap="round" stroke-linejoin="round"></path><path d="M125.975 154.166L124.882 155.99" stroke="#032100" stroke-width="0.7" stroke-linecap="round" stroke-linejoin="round"></path><path d="M134.406 140.05L128.04 150.707" stroke="#032100" stroke-width="0.7" stroke-linecap="round" stroke-linejoin="round"></path><path d="M105.503 147.068C109.212 155.86 115.027 168.341 120.129 173.434" stroke="#032100" stroke-width="0.7" stroke-linecap="round" stroke-linejoin="round"></path><path d="M101.726 137.584C101.726 137.584 102.357 139.308 103.44 142.035" stroke="#032100" stroke-width="0.7" stroke-linecap="round" stroke-linejoin="round"></path><path d="M104.581 155.038C104.581 155.038 111.879 168.07 115.679 173.083" stroke="#032100" stroke-width="0.7" stroke-linecap="round" stroke-linejoin="round"></path><path d="M63.6086 143.439C65.1822 144.895 66.9668 146.105 68.9019 147.027C71.6086 148.17 76.15 146.235 75.9194 148.391C75.7659 149.917 75.1095 151.349 74.0533 152.462C72.9971 153.574 71.6011 154.304 70.0848 154.536C65.8643 155.408 61.0623 151.659 59.7189 149.524C58.3755 147.388 59.348 140.401 63.6086 143.439Z" fill="#3BC90C" stroke="#032100" stroke-width="0.7" stroke-linecap="round" stroke-linejoin="round"></path><path d="M54.4561 199.038C54.4561 199.038 48.7318 201.935 51.0275 202.817C53.3233 203.699 57.0426 203.218 57.6641 201.754" fill="white"></path><path d="M54.4561 199.038C54.4561 199.038 48.7318 201.935 51.0275 202.817C53.3233 203.699 57.0426 203.218 57.6641 201.754" stroke="#032100" stroke-width="0.7" stroke-linecap="round" stroke-linejoin="round"></path><path d="M51.0476 202.817L48.832 203.248" stroke="#032100" stroke-width="0.7" stroke-linecap="round" stroke-linejoin="round"></path><path d="M116.3 324.461C116.3 324.461 121.824 333.283 125.824 336.491C129.824 339.699 130.436 339.499 130.305 340.872C130.175 342.246 126.737 343.068 120.892 342.476C115.047 341.885 110.165 337.654 104.752 334.737C99.338 331.82 97.8643 330.887 98.947 328.05C100.026 325.473 101.237 322.953 102.576 320.501C102.576 320.501 110.305 320.271 116.3 324.461Z" fill="white" stroke="#032100" stroke-width="0.7" stroke-linecap="round" stroke-linejoin="round"></path><path d="M98.9473 328.01C98.9473 328.01 103.108 329.504 111.428 335.408C119.749 341.313 125.574 342.105 130.306 340.832" fill="white"></path><path d="M98.9473 328.01C98.9473 328.01 103.108 329.504 111.428 335.408C119.749 341.313 125.574 342.105 130.306 340.832" stroke="#032100" stroke-width="0.7" stroke-linecap="round" stroke-linejoin="round"></path><path d="M36.2909 313.835C36.2909 313.835 36.3611 321.033 37.4639 325.013C38.5666 328.993 41.3235 332.842 40.0603 333.695C38.7972 334.547 37.5039 334.797 35.0478 333.474C32.5917 332.151 29.4939 329.464 26.2959 325.674C23.8328 323.055 21.9475 319.947 20.7621 316.552C19.2383 312.652 20.0704 310.446 22.6268 309.344C23.9678 308.819 25.2114 308.074 26.306 307.138C26.306 307.138 33.7345 306.747 36.2909 313.835Z" fill="white" stroke="#032100" stroke-width="0.7" stroke-linecap="round" stroke-linejoin="round"></path><path d="M21.0127 311.248C24.3575 314.084 27.0868 317.574 29.0327 321.504C32.7119 328.521 36.5816 332.411 40.0603 333.724" fill="white"></path><path d="M21.0127 311.248C24.3575 314.084 27.0868 317.574 29.0327 321.504C32.7119 328.521 36.5816 332.411 40.0603 333.724" stroke="#032100" stroke-width="0.7" stroke-linecap="round" stroke-linejoin="round"></path><path d="M95.1068 356C114.308 356 129.874 354.465 129.874 352.572C129.874 350.678 114.308 349.143 95.1068 349.143C75.9055 349.143 60.3398 350.678 60.3398 352.572C60.3398 354.465 75.9055 356 95.1068 356Z" fill="#032100"></path><path d="M186.678 20V29.0927" stroke="#032100" stroke-linecap="round" stroke-linejoin="round"></path><path d="M195.399 30.5462L200.131 24.7217" stroke="#032100" stroke-linecap="round" stroke-linejoin="round"></path><path d="M172.853 27.6392L177.213 31.2682" stroke="#032100" stroke-linecap="round" stroke-linejoin="round"></path><path d="M167.76 39.6392H175.399" stroke="#032100" stroke-linecap="round" stroke-linejoin="round"></path><path d="M198.676 39.2783H204.5" stroke="#032100" stroke-linecap="round" stroke-linejoin="round"></path></svg>